%TF.GenerationSoftware,KiCad,Pcbnew,9.0.6*%
%TF.CreationDate,2026-02-28T10:16:42-08:00*%
%TF.ProjectId,sensor tip,73656e73-6f72-4207-9469-702e6b696361,rev?*%
%TF.SameCoordinates,Original*%
%TF.FileFunction,Legend,Top*%
%TF.FilePolarity,Positive*%
%FSLAX46Y46*%
G04 Gerber Fmt 4.6, Leading zero omitted, Abs format (unit mm)*
G04 Created by KiCad (PCBNEW 9.0.6) date 2026-02-28 10:16:42*
%MOMM*%
%LPD*%
G01*
G04 APERTURE LIST*
%ADD10C,0.150000*%
%ADD11C,0.152400*%
%ADD12C,0.127000*%
%ADD13C,0.200000*%
%ADD14C,0.120000*%
G04 APERTURE END LIST*
D10*
X150268596Y-88678819D02*
X150268596Y-89488342D01*
X150268596Y-89488342D02*
X150316215Y-89583580D01*
X150316215Y-89583580D02*
X150363834Y-89631200D01*
X150363834Y-89631200D02*
X150459072Y-89678819D01*
X150459072Y-89678819D02*
X150649548Y-89678819D01*
X150649548Y-89678819D02*
X150744786Y-89631200D01*
X150744786Y-89631200D02*
X150792405Y-89583580D01*
X150792405Y-89583580D02*
X150840024Y-89488342D01*
X150840024Y-89488342D02*
X150840024Y-88678819D01*
X151840024Y-89678819D02*
X151268596Y-89678819D01*
X151554310Y-89678819D02*
X151554310Y-88678819D01*
X151554310Y-88678819D02*
X151459072Y-88821676D01*
X151459072Y-88821676D02*
X151363834Y-88916914D01*
X151363834Y-88916914D02*
X151268596Y-88964533D01*
X143489618Y-86831876D02*
X143489618Y-86191876D01*
X143489618Y-86191876D02*
X143641999Y-86191876D01*
X143641999Y-86191876D02*
X143733428Y-86222352D01*
X143733428Y-86222352D02*
X143794380Y-86283304D01*
X143794380Y-86283304D02*
X143824857Y-86344257D01*
X143824857Y-86344257D02*
X143855333Y-86466161D01*
X143855333Y-86466161D02*
X143855333Y-86557590D01*
X143855333Y-86557590D02*
X143824857Y-86679495D01*
X143824857Y-86679495D02*
X143794380Y-86740447D01*
X143794380Y-86740447D02*
X143733428Y-86801400D01*
X143733428Y-86801400D02*
X143641999Y-86831876D01*
X143641999Y-86831876D02*
X143489618Y-86831876D01*
X144099142Y-86252828D02*
X144129618Y-86222352D01*
X144129618Y-86222352D02*
X144190571Y-86191876D01*
X144190571Y-86191876D02*
X144342952Y-86191876D01*
X144342952Y-86191876D02*
X144403904Y-86222352D01*
X144403904Y-86222352D02*
X144434380Y-86252828D01*
X144434380Y-86252828D02*
X144464857Y-86313780D01*
X144464857Y-86313780D02*
X144464857Y-86374733D01*
X144464857Y-86374733D02*
X144434380Y-86466161D01*
X144434380Y-86466161D02*
X144068666Y-86831876D01*
X144068666Y-86831876D02*
X144464857Y-86831876D01*
X143750819Y-97361333D02*
X144465104Y-97361333D01*
X144465104Y-97361333D02*
X144607961Y-97408952D01*
X144607961Y-97408952D02*
X144703200Y-97504190D01*
X144703200Y-97504190D02*
X144750819Y-97647047D01*
X144750819Y-97647047D02*
X144750819Y-97742285D01*
X144750819Y-96361333D02*
X144750819Y-96932761D01*
X144750819Y-96647047D02*
X143750819Y-96647047D01*
X143750819Y-96647047D02*
X143893676Y-96742285D01*
X143893676Y-96742285D02*
X143988914Y-96837523D01*
X143988914Y-96837523D02*
X144036533Y-96932761D01*
X157295618Y-91544676D02*
X157295618Y-90904676D01*
X157295618Y-90904676D02*
X157447999Y-90904676D01*
X157447999Y-90904676D02*
X157539428Y-90935152D01*
X157539428Y-90935152D02*
X157600380Y-90996104D01*
X157600380Y-90996104D02*
X157630857Y-91057057D01*
X157630857Y-91057057D02*
X157661333Y-91178961D01*
X157661333Y-91178961D02*
X157661333Y-91270390D01*
X157661333Y-91270390D02*
X157630857Y-91392295D01*
X157630857Y-91392295D02*
X157600380Y-91453247D01*
X157600380Y-91453247D02*
X157539428Y-91514200D01*
X157539428Y-91514200D02*
X157447999Y-91544676D01*
X157447999Y-91544676D02*
X157295618Y-91544676D01*
X158270857Y-91544676D02*
X157905142Y-91544676D01*
X158087999Y-91544676D02*
X158087999Y-90904676D01*
X158087999Y-90904676D02*
X158027047Y-90996104D01*
X158027047Y-90996104D02*
X157966095Y-91057057D01*
X157966095Y-91057057D02*
X157905142Y-91087533D01*
X155713580Y-82616166D02*
X155761200Y-82663785D01*
X155761200Y-82663785D02*
X155808819Y-82806642D01*
X155808819Y-82806642D02*
X155808819Y-82901880D01*
X155808819Y-82901880D02*
X155761200Y-83044737D01*
X155761200Y-83044737D02*
X155665961Y-83139975D01*
X155665961Y-83139975D02*
X155570723Y-83187594D01*
X155570723Y-83187594D02*
X155380247Y-83235213D01*
X155380247Y-83235213D02*
X155237390Y-83235213D01*
X155237390Y-83235213D02*
X155046914Y-83187594D01*
X155046914Y-83187594D02*
X154951676Y-83139975D01*
X154951676Y-83139975D02*
X154856438Y-83044737D01*
X154856438Y-83044737D02*
X154808819Y-82901880D01*
X154808819Y-82901880D02*
X154808819Y-82806642D01*
X154808819Y-82806642D02*
X154856438Y-82663785D01*
X154856438Y-82663785D02*
X154904057Y-82616166D01*
X155808819Y-81663785D02*
X155808819Y-82235213D01*
X155808819Y-81949499D02*
X154808819Y-81949499D01*
X154808819Y-81949499D02*
X154951676Y-82044737D01*
X154951676Y-82044737D02*
X155046914Y-82139975D01*
X155046914Y-82139975D02*
X155094533Y-82235213D01*
X145274833Y-83884580D02*
X145227214Y-83932200D01*
X145227214Y-83932200D02*
X145084357Y-83979819D01*
X145084357Y-83979819D02*
X144989119Y-83979819D01*
X144989119Y-83979819D02*
X144846262Y-83932200D01*
X144846262Y-83932200D02*
X144751024Y-83836961D01*
X144751024Y-83836961D02*
X144703405Y-83741723D01*
X144703405Y-83741723D02*
X144655786Y-83551247D01*
X144655786Y-83551247D02*
X144655786Y-83408390D01*
X144655786Y-83408390D02*
X144703405Y-83217914D01*
X144703405Y-83217914D02*
X144751024Y-83122676D01*
X144751024Y-83122676D02*
X144846262Y-83027438D01*
X144846262Y-83027438D02*
X144989119Y-82979819D01*
X144989119Y-82979819D02*
X145084357Y-82979819D01*
X145084357Y-82979819D02*
X145227214Y-83027438D01*
X145227214Y-83027438D02*
X145274833Y-83075057D01*
X145608167Y-82979819D02*
X146227214Y-82979819D01*
X146227214Y-82979819D02*
X145893881Y-83360771D01*
X145893881Y-83360771D02*
X146036738Y-83360771D01*
X146036738Y-83360771D02*
X146131976Y-83408390D01*
X146131976Y-83408390D02*
X146179595Y-83456009D01*
X146179595Y-83456009D02*
X146227214Y-83551247D01*
X146227214Y-83551247D02*
X146227214Y-83789342D01*
X146227214Y-83789342D02*
X146179595Y-83884580D01*
X146179595Y-83884580D02*
X146131976Y-83932200D01*
X146131976Y-83932200D02*
X146036738Y-83979819D01*
X146036738Y-83979819D02*
X145751024Y-83979819D01*
X145751024Y-83979819D02*
X145655786Y-83932200D01*
X145655786Y-83932200D02*
X145608167Y-83884580D01*
X157623833Y-95610819D02*
X157290500Y-95134628D01*
X157052405Y-95610819D02*
X157052405Y-94610819D01*
X157052405Y-94610819D02*
X157433357Y-94610819D01*
X157433357Y-94610819D02*
X157528595Y-94658438D01*
X157528595Y-94658438D02*
X157576214Y-94706057D01*
X157576214Y-94706057D02*
X157623833Y-94801295D01*
X157623833Y-94801295D02*
X157623833Y-94944152D01*
X157623833Y-94944152D02*
X157576214Y-95039390D01*
X157576214Y-95039390D02*
X157528595Y-95087009D01*
X157528595Y-95087009D02*
X157433357Y-95134628D01*
X157433357Y-95134628D02*
X157052405Y-95134628D01*
X158576214Y-95610819D02*
X158004786Y-95610819D01*
X158290500Y-95610819D02*
X158290500Y-94610819D01*
X158290500Y-94610819D02*
X158195262Y-94753676D01*
X158195262Y-94753676D02*
X158100024Y-94848914D01*
X158100024Y-94848914D02*
X158004786Y-94896533D01*
X151968819Y-82374404D02*
X152778342Y-82374404D01*
X152778342Y-82374404D02*
X152873580Y-82326785D01*
X152873580Y-82326785D02*
X152921200Y-82279166D01*
X152921200Y-82279166D02*
X152968819Y-82183928D01*
X152968819Y-82183928D02*
X152968819Y-81993452D01*
X152968819Y-81993452D02*
X152921200Y-81898214D01*
X152921200Y-81898214D02*
X152873580Y-81850595D01*
X152873580Y-81850595D02*
X152778342Y-81802976D01*
X152778342Y-81802976D02*
X151968819Y-81802976D01*
X151968819Y-81422023D02*
X151968819Y-80802976D01*
X151968819Y-80802976D02*
X152349771Y-81136309D01*
X152349771Y-81136309D02*
X152349771Y-80993452D01*
X152349771Y-80993452D02*
X152397390Y-80898214D01*
X152397390Y-80898214D02*
X152445009Y-80850595D01*
X152445009Y-80850595D02*
X152540247Y-80802976D01*
X152540247Y-80802976D02*
X152778342Y-80802976D01*
X152778342Y-80802976D02*
X152873580Y-80850595D01*
X152873580Y-80850595D02*
X152921200Y-80898214D01*
X152921200Y-80898214D02*
X152968819Y-80993452D01*
X152968819Y-80993452D02*
X152968819Y-81279166D01*
X152968819Y-81279166D02*
X152921200Y-81374404D01*
X152921200Y-81374404D02*
X152873580Y-81422023D01*
X158253580Y-82616166D02*
X158301200Y-82663785D01*
X158301200Y-82663785D02*
X158348819Y-82806642D01*
X158348819Y-82806642D02*
X158348819Y-82901880D01*
X158348819Y-82901880D02*
X158301200Y-83044737D01*
X158301200Y-83044737D02*
X158205961Y-83139975D01*
X158205961Y-83139975D02*
X158110723Y-83187594D01*
X158110723Y-83187594D02*
X157920247Y-83235213D01*
X157920247Y-83235213D02*
X157777390Y-83235213D01*
X157777390Y-83235213D02*
X157586914Y-83187594D01*
X157586914Y-83187594D02*
X157491676Y-83139975D01*
X157491676Y-83139975D02*
X157396438Y-83044737D01*
X157396438Y-83044737D02*
X157348819Y-82901880D01*
X157348819Y-82901880D02*
X157348819Y-82806642D01*
X157348819Y-82806642D02*
X157396438Y-82663785D01*
X157396438Y-82663785D02*
X157444057Y-82616166D01*
X157444057Y-82235213D02*
X157396438Y-82187594D01*
X157396438Y-82187594D02*
X157348819Y-82092356D01*
X157348819Y-82092356D02*
X157348819Y-81854261D01*
X157348819Y-81854261D02*
X157396438Y-81759023D01*
X157396438Y-81759023D02*
X157444057Y-81711404D01*
X157444057Y-81711404D02*
X157539295Y-81663785D01*
X157539295Y-81663785D02*
X157634533Y-81663785D01*
X157634533Y-81663785D02*
X157777390Y-81711404D01*
X157777390Y-81711404D02*
X158348819Y-82282832D01*
X158348819Y-82282832D02*
X158348819Y-81663785D01*
D11*
%TO.C,U1*%
X149356301Y-88024000D02*
G75*
G02*
X149153101Y-88024000I-101600J0D01*
G01*
X149153101Y-88024000D02*
G75*
G02*
X149356301Y-88024000I101600J0D01*
G01*
D12*
%TO.C,D2*%
X142280000Y-87380000D02*
X145280000Y-87380000D01*
X145280000Y-90420000D02*
X142280000Y-90420000D01*
D13*
X141645000Y-88900000D02*
G75*
G02*
X141445000Y-88900000I-100000J0D01*
G01*
X141445000Y-88900000D02*
G75*
G02*
X141645000Y-88900000I100000J0D01*
G01*
D14*
%TO.C,J1*%
X145736000Y-95698000D02*
X147066000Y-95698000D01*
X145736000Y-97028000D02*
X145736000Y-95698000D01*
X148336000Y-95698000D02*
X156016000Y-95698000D01*
X148336000Y-98358000D02*
X148336000Y-95698000D01*
X148336000Y-98358000D02*
X156016000Y-98358000D01*
X156016000Y-98358000D02*
X156016000Y-95698000D01*
D12*
%TO.C,D1*%
X156450000Y-87380000D02*
X159450000Y-87380000D01*
X159450000Y-90420000D02*
X156450000Y-90420000D01*
D13*
X160285000Y-88900000D02*
G75*
G02*
X160085000Y-88900000I-100000J0D01*
G01*
X160085000Y-88900000D02*
G75*
G02*
X160285000Y-88900000I100000J0D01*
G01*
%TD*%
M02*
