%TF.GenerationSoftware,KiCad,Pcbnew,9.0.6*%
%TF.CreationDate,2026-02-28T10:16:42-08:00*%
%TF.ProjectId,sensor tip,73656e73-6f72-4207-9469-702e6b696361,rev?*%
%TF.SameCoordinates,Original*%
%TF.FileFunction,Legend,Bot*%
%TF.FilePolarity,Positive*%
%FSLAX46Y46*%
G04 Gerber Fmt 4.6, Leading zero omitted, Abs format (unit mm)*
G04 Created by KiCad (PCBNEW 9.0.6) date 2026-02-28 10:16:42*
%MOMM*%
%LPD*%
G01*
G04 APERTURE LIST*
%ADD10C,0.150000*%
%ADD11C,0.120000*%
%ADD12C,0.152400*%
G04 APERTURE END LIST*
D10*
X158004166Y-94180819D02*
X158337499Y-93704628D01*
X158575594Y-94180819D02*
X158575594Y-93180819D01*
X158575594Y-93180819D02*
X158194642Y-93180819D01*
X158194642Y-93180819D02*
X158099404Y-93228438D01*
X158099404Y-93228438D02*
X158051785Y-93276057D01*
X158051785Y-93276057D02*
X158004166Y-93371295D01*
X158004166Y-93371295D02*
X158004166Y-93514152D01*
X158004166Y-93514152D02*
X158051785Y-93609390D01*
X158051785Y-93609390D02*
X158099404Y-93657009D01*
X158099404Y-93657009D02*
X158194642Y-93704628D01*
X158194642Y-93704628D02*
X158575594Y-93704628D01*
X157147023Y-93180819D02*
X157337499Y-93180819D01*
X157337499Y-93180819D02*
X157432737Y-93228438D01*
X157432737Y-93228438D02*
X157480356Y-93276057D01*
X157480356Y-93276057D02*
X157575594Y-93418914D01*
X157575594Y-93418914D02*
X157623213Y-93609390D01*
X157623213Y-93609390D02*
X157623213Y-93990342D01*
X157623213Y-93990342D02*
X157575594Y-94085580D01*
X157575594Y-94085580D02*
X157527975Y-94133200D01*
X157527975Y-94133200D02*
X157432737Y-94180819D01*
X157432737Y-94180819D02*
X157242261Y-94180819D01*
X157242261Y-94180819D02*
X157147023Y-94133200D01*
X157147023Y-94133200D02*
X157099404Y-94085580D01*
X157099404Y-94085580D02*
X157051785Y-93990342D01*
X157051785Y-93990342D02*
X157051785Y-93752247D01*
X157051785Y-93752247D02*
X157099404Y-93657009D01*
X157099404Y-93657009D02*
X157147023Y-93609390D01*
X157147023Y-93609390D02*
X157242261Y-93561771D01*
X157242261Y-93561771D02*
X157432737Y-93561771D01*
X157432737Y-93561771D02*
X157527975Y-93609390D01*
X157527975Y-93609390D02*
X157575594Y-93657009D01*
X157575594Y-93657009D02*
X157623213Y-93752247D01*
X152971166Y-92750819D02*
X153304499Y-92274628D01*
X153542594Y-92750819D02*
X153542594Y-91750819D01*
X153542594Y-91750819D02*
X153161642Y-91750819D01*
X153161642Y-91750819D02*
X153066404Y-91798438D01*
X153066404Y-91798438D02*
X153018785Y-91846057D01*
X153018785Y-91846057D02*
X152971166Y-91941295D01*
X152971166Y-91941295D02*
X152971166Y-92084152D01*
X152971166Y-92084152D02*
X153018785Y-92179390D01*
X153018785Y-92179390D02*
X153066404Y-92227009D01*
X153066404Y-92227009D02*
X153161642Y-92274628D01*
X153161642Y-92274628D02*
X153542594Y-92274628D01*
X152066404Y-91750819D02*
X152542594Y-91750819D01*
X152542594Y-91750819D02*
X152590213Y-92227009D01*
X152590213Y-92227009D02*
X152542594Y-92179390D01*
X152542594Y-92179390D02*
X152447356Y-92131771D01*
X152447356Y-92131771D02*
X152209261Y-92131771D01*
X152209261Y-92131771D02*
X152114023Y-92179390D01*
X152114023Y-92179390D02*
X152066404Y-92227009D01*
X152066404Y-92227009D02*
X152018785Y-92322247D01*
X152018785Y-92322247D02*
X152018785Y-92560342D01*
X152018785Y-92560342D02*
X152066404Y-92655580D01*
X152066404Y-92655580D02*
X152114023Y-92703200D01*
X152114023Y-92703200D02*
X152209261Y-92750819D01*
X152209261Y-92750819D02*
X152447356Y-92750819D01*
X152447356Y-92750819D02*
X152542594Y-92703200D01*
X152542594Y-92703200D02*
X152590213Y-92655580D01*
X148907166Y-95610819D02*
X149240499Y-95134628D01*
X149478594Y-95610819D02*
X149478594Y-94610819D01*
X149478594Y-94610819D02*
X149097642Y-94610819D01*
X149097642Y-94610819D02*
X149002404Y-94658438D01*
X149002404Y-94658438D02*
X148954785Y-94706057D01*
X148954785Y-94706057D02*
X148907166Y-94801295D01*
X148907166Y-94801295D02*
X148907166Y-94944152D01*
X148907166Y-94944152D02*
X148954785Y-95039390D01*
X148954785Y-95039390D02*
X149002404Y-95087009D01*
X149002404Y-95087009D02*
X149097642Y-95134628D01*
X149097642Y-95134628D02*
X149478594Y-95134628D01*
X148573832Y-94610819D02*
X147907166Y-94610819D01*
X147907166Y-94610819D02*
X148335737Y-95610819D01*
X157829238Y-88459457D02*
X157924476Y-88411838D01*
X157924476Y-88411838D02*
X158019714Y-88316600D01*
X158019714Y-88316600D02*
X158162571Y-88173742D01*
X158162571Y-88173742D02*
X158257809Y-88126123D01*
X158257809Y-88126123D02*
X158353047Y-88126123D01*
X158305428Y-88364219D02*
X158400666Y-88316600D01*
X158400666Y-88316600D02*
X158495904Y-88221361D01*
X158495904Y-88221361D02*
X158543523Y-88030885D01*
X158543523Y-88030885D02*
X158543523Y-87697552D01*
X158543523Y-87697552D02*
X158495904Y-87507076D01*
X158495904Y-87507076D02*
X158400666Y-87411838D01*
X158400666Y-87411838D02*
X158305428Y-87364219D01*
X158305428Y-87364219D02*
X158114952Y-87364219D01*
X158114952Y-87364219D02*
X158019714Y-87411838D01*
X158019714Y-87411838D02*
X157924476Y-87507076D01*
X157924476Y-87507076D02*
X157876857Y-87697552D01*
X157876857Y-87697552D02*
X157876857Y-88030885D01*
X157876857Y-88030885D02*
X157924476Y-88221361D01*
X157924476Y-88221361D02*
X158019714Y-88316600D01*
X158019714Y-88316600D02*
X158114952Y-88364219D01*
X158114952Y-88364219D02*
X158305428Y-88364219D01*
X156924476Y-88364219D02*
X157495904Y-88364219D01*
X157210190Y-88364219D02*
X157210190Y-87364219D01*
X157210190Y-87364219D02*
X157305428Y-87507076D01*
X157305428Y-87507076D02*
X157400666Y-87602314D01*
X157400666Y-87602314D02*
X157495904Y-87649933D01*
X144542166Y-92750819D02*
X144875499Y-92274628D01*
X145113594Y-92750819D02*
X145113594Y-91750819D01*
X145113594Y-91750819D02*
X144732642Y-91750819D01*
X144732642Y-91750819D02*
X144637404Y-91798438D01*
X144637404Y-91798438D02*
X144589785Y-91846057D01*
X144589785Y-91846057D02*
X144542166Y-91941295D01*
X144542166Y-91941295D02*
X144542166Y-92084152D01*
X144542166Y-92084152D02*
X144589785Y-92179390D01*
X144589785Y-92179390D02*
X144637404Y-92227009D01*
X144637404Y-92227009D02*
X144732642Y-92274628D01*
X144732642Y-92274628D02*
X145113594Y-92274628D01*
X144161213Y-91846057D02*
X144113594Y-91798438D01*
X144113594Y-91798438D02*
X144018356Y-91750819D01*
X144018356Y-91750819D02*
X143780261Y-91750819D01*
X143780261Y-91750819D02*
X143685023Y-91798438D01*
X143685023Y-91798438D02*
X143637404Y-91846057D01*
X143637404Y-91846057D02*
X143589785Y-91941295D01*
X143589785Y-91941295D02*
X143589785Y-92036533D01*
X143589785Y-92036533D02*
X143637404Y-92179390D01*
X143637404Y-92179390D02*
X144208832Y-92750819D01*
X144208832Y-92750819D02*
X143589785Y-92750819D01*
X143859261Y-87613342D02*
X143764023Y-87660961D01*
X143764023Y-87660961D02*
X143668785Y-87756200D01*
X143668785Y-87756200D02*
X143525928Y-87899057D01*
X143525928Y-87899057D02*
X143430690Y-87946676D01*
X143430690Y-87946676D02*
X143335452Y-87946676D01*
X143383071Y-87708580D02*
X143287833Y-87756200D01*
X143287833Y-87756200D02*
X143192595Y-87851438D01*
X143192595Y-87851438D02*
X143144976Y-88041914D01*
X143144976Y-88041914D02*
X143144976Y-88375247D01*
X143144976Y-88375247D02*
X143192595Y-88565723D01*
X143192595Y-88565723D02*
X143287833Y-88660961D01*
X143287833Y-88660961D02*
X143383071Y-88708580D01*
X143383071Y-88708580D02*
X143573547Y-88708580D01*
X143573547Y-88708580D02*
X143668785Y-88660961D01*
X143668785Y-88660961D02*
X143764023Y-88565723D01*
X143764023Y-88565723D02*
X143811642Y-88375247D01*
X143811642Y-88375247D02*
X143811642Y-88041914D01*
X143811642Y-88041914D02*
X143764023Y-87851438D01*
X143764023Y-87851438D02*
X143668785Y-87756200D01*
X143668785Y-87756200D02*
X143573547Y-87708580D01*
X143573547Y-87708580D02*
X143383071Y-87708580D01*
X144192595Y-88613342D02*
X144240214Y-88660961D01*
X144240214Y-88660961D02*
X144335452Y-88708580D01*
X144335452Y-88708580D02*
X144573547Y-88708580D01*
X144573547Y-88708580D02*
X144668785Y-88660961D01*
X144668785Y-88660961D02*
X144716404Y-88613342D01*
X144716404Y-88613342D02*
X144764023Y-88518104D01*
X144764023Y-88518104D02*
X144764023Y-88422866D01*
X144764023Y-88422866D02*
X144716404Y-88280009D01*
X144716404Y-88280009D02*
X144144976Y-87708580D01*
X144144976Y-87708580D02*
X144764023Y-87708580D01*
X143573166Y-90718819D02*
X143906499Y-90242628D01*
X144144594Y-90718819D02*
X144144594Y-89718819D01*
X144144594Y-89718819D02*
X143763642Y-89718819D01*
X143763642Y-89718819D02*
X143668404Y-89766438D01*
X143668404Y-89766438D02*
X143620785Y-89814057D01*
X143620785Y-89814057D02*
X143573166Y-89909295D01*
X143573166Y-89909295D02*
X143573166Y-90052152D01*
X143573166Y-90052152D02*
X143620785Y-90147390D01*
X143620785Y-90147390D02*
X143668404Y-90195009D01*
X143668404Y-90195009D02*
X143763642Y-90242628D01*
X143763642Y-90242628D02*
X144144594Y-90242628D01*
X143001737Y-90147390D02*
X143096975Y-90099771D01*
X143096975Y-90099771D02*
X143144594Y-90052152D01*
X143144594Y-90052152D02*
X143192213Y-89956914D01*
X143192213Y-89956914D02*
X143192213Y-89909295D01*
X143192213Y-89909295D02*
X143144594Y-89814057D01*
X143144594Y-89814057D02*
X143096975Y-89766438D01*
X143096975Y-89766438D02*
X143001737Y-89718819D01*
X143001737Y-89718819D02*
X142811261Y-89718819D01*
X142811261Y-89718819D02*
X142716023Y-89766438D01*
X142716023Y-89766438D02*
X142668404Y-89814057D01*
X142668404Y-89814057D02*
X142620785Y-89909295D01*
X142620785Y-89909295D02*
X142620785Y-89956914D01*
X142620785Y-89956914D02*
X142668404Y-90052152D01*
X142668404Y-90052152D02*
X142716023Y-90099771D01*
X142716023Y-90099771D02*
X142811261Y-90147390D01*
X142811261Y-90147390D02*
X143001737Y-90147390D01*
X143001737Y-90147390D02*
X143096975Y-90195009D01*
X143096975Y-90195009D02*
X143144594Y-90242628D01*
X143144594Y-90242628D02*
X143192213Y-90337866D01*
X143192213Y-90337866D02*
X143192213Y-90528342D01*
X143192213Y-90528342D02*
X143144594Y-90623580D01*
X143144594Y-90623580D02*
X143096975Y-90671200D01*
X143096975Y-90671200D02*
X143001737Y-90718819D01*
X143001737Y-90718819D02*
X142811261Y-90718819D01*
X142811261Y-90718819D02*
X142716023Y-90671200D01*
X142716023Y-90671200D02*
X142668404Y-90623580D01*
X142668404Y-90623580D02*
X142620785Y-90528342D01*
X142620785Y-90528342D02*
X142620785Y-90337866D01*
X142620785Y-90337866D02*
X142668404Y-90242628D01*
X142668404Y-90242628D02*
X142716023Y-90195009D01*
X142716023Y-90195009D02*
X142811261Y-90147390D01*
D11*
%TO.C,R6*%
X157582776Y-90917500D02*
X158092224Y-90917500D01*
X157582776Y-91962500D02*
X158092224Y-91962500D01*
%TO.C,R5*%
X153059224Y-93203500D02*
X152549776Y-93203500D01*
X153059224Y-94248500D02*
X152549776Y-94248500D01*
%TO.C,C1*%
X153414000Y-82595767D02*
X153414000Y-82303233D01*
X154434000Y-82595767D02*
X154434000Y-82303233D01*
%TO.C,R7*%
X148485776Y-93203500D02*
X148995224Y-93203500D01*
X148485776Y-94248500D02*
X148995224Y-94248500D01*
D12*
%TO.C,Q1*%
X156083000Y-87083900D02*
X157121860Y-87083900D01*
X156083000Y-88734900D02*
X156083000Y-87083900D01*
X158074360Y-88734900D02*
X157393640Y-88734900D01*
X158346140Y-87083900D02*
X159385000Y-87083900D01*
X159385000Y-87083900D02*
X159385000Y-88734900D01*
D11*
%TO.C,R2*%
X144630224Y-93203500D02*
X144120776Y-93203500D01*
X144630224Y-94248500D02*
X144120776Y-94248500D01*
%TO.C,C3*%
X145295233Y-81585000D02*
X145587767Y-81585000D01*
X145295233Y-82605000D02*
X145587767Y-82605000D01*
%TO.C,R1*%
X157535776Y-93203500D02*
X158045224Y-93203500D01*
X157535776Y-94248500D02*
X158045224Y-94248500D01*
D12*
%TO.C,Q2*%
X142303500Y-88988900D02*
X142303500Y-87337900D01*
X143342360Y-88988900D02*
X142303500Y-88988900D01*
X143614140Y-87337900D02*
X144294860Y-87337900D01*
X145605500Y-87337900D02*
X145605500Y-88988900D01*
X145605500Y-88988900D02*
X144566640Y-88988900D01*
D11*
%TO.C,R8*%
X143661224Y-91171500D02*
X143151776Y-91171500D01*
X143661224Y-92216500D02*
X143151776Y-92216500D01*
%TO.C,U3*%
X148554000Y-80852500D02*
X148554000Y-82372500D01*
X148554000Y-82372500D02*
X148604000Y-82372500D01*
X149554000Y-80852500D02*
X148554000Y-80852500D01*
X149724000Y-82372500D02*
X150504000Y-82372500D01*
X151624000Y-82372500D02*
X151674000Y-82372500D01*
X151674000Y-80852500D02*
X150674000Y-80852500D01*
X151674000Y-82372500D02*
X151674000Y-80852500D01*
X150494000Y-82912500D02*
X150164000Y-83152500D01*
X150164000Y-82672500D01*
X150494000Y-82912500D01*
G36*
X150494000Y-82912500D02*
G01*
X150164000Y-83152500D01*
X150164000Y-82672500D01*
X150494000Y-82912500D01*
G37*
%TO.C,C2*%
X155954000Y-82595767D02*
X155954000Y-82303233D01*
X156974000Y-82595767D02*
X156974000Y-82303233D01*
%TD*%
M02*
