%TF.GenerationSoftware,KiCad,Pcbnew,9.0.6*%
%TF.CreationDate,2026-02-28T10:16:42-08:00*%
%TF.ProjectId,sensor tip,73656e73-6f72-4207-9469-702e6b696361,rev?*%
%TF.SameCoordinates,Original*%
%TF.FileFunction,Copper,L2,Bot*%
%TF.FilePolarity,Positive*%
%FSLAX46Y46*%
G04 Gerber Fmt 4.6, Leading zero omitted, Abs format (unit mm)*
G04 Created by KiCad (PCBNEW 9.0.6) date 2026-02-28 10:16:42*
%MOMM*%
%LPD*%
G01*
G04 APERTURE LIST*
G04 Aperture macros list*
%AMRoundRect*
0 Rectangle with rounded corners*
0 $1 Rounding radius*
0 $2 $3 $4 $5 $6 $7 $8 $9 X,Y pos of 4 corners*
0 Add a 4 corners polygon primitive as box body*
4,1,4,$2,$3,$4,$5,$6,$7,$8,$9,$2,$3,0*
0 Add four circle primitives for the rounded corners*
1,1,$1+$1,$2,$3*
1,1,$1+$1,$4,$5*
1,1,$1+$1,$6,$7*
1,1,$1+$1,$8,$9*
0 Add four rect primitives between the rounded corners*
20,1,$1+$1,$2,$3,$4,$5,0*
20,1,$1+$1,$4,$5,$6,$7,0*
20,1,$1+$1,$6,$7,$8,$9,0*
20,1,$1+$1,$8,$9,$2,$3,0*%
G04 Aperture macros list end*
%TA.AperFunction,ComponentPad*%
%ADD10R,1.700000X1.700000*%
%TD*%
%TA.AperFunction,ComponentPad*%
%ADD11C,1.700000*%
%TD*%
%TA.AperFunction,SMDPad,CuDef*%
%ADD12RoundRect,0.237500X-0.250000X-0.237500X0.250000X-0.237500X0.250000X0.237500X-0.250000X0.237500X0*%
%TD*%
%TA.AperFunction,SMDPad,CuDef*%
%ADD13RoundRect,0.237500X0.250000X0.237500X-0.250000X0.237500X-0.250000X-0.237500X0.250000X-0.237500X0*%
%TD*%
%TA.AperFunction,SMDPad,CuDef*%
%ADD14RoundRect,0.237500X0.237500X-0.300000X0.237500X0.300000X-0.237500X0.300000X-0.237500X-0.300000X0*%
%TD*%
%TA.AperFunction,SMDPad,CuDef*%
%ADD15R,0.558800X1.270000*%
%TD*%
%TA.AperFunction,SMDPad,CuDef*%
%ADD16RoundRect,0.237500X-0.300000X-0.237500X0.300000X-0.237500X0.300000X0.237500X-0.300000X0.237500X0*%
%TD*%
%TA.AperFunction,SMDPad,CuDef*%
%ADD17RoundRect,0.150000X0.150000X-0.587500X0.150000X0.587500X-0.150000X0.587500X-0.150000X-0.587500X0*%
%TD*%
%TA.AperFunction,ViaPad*%
%ADD18C,1.500000*%
%TD*%
%TA.AperFunction,Conductor*%
%ADD19C,0.306000*%
%TD*%
%TA.AperFunction,Conductor*%
%ADD20C,0.508000*%
%TD*%
%TA.AperFunction,Conductor*%
%ADD21C,0.200000*%
%TD*%
G04 APERTURE END LIST*
D10*
%TO.P,J1,1,Pin_1*%
%TO.N,+3.3V*%
X147066000Y-97028000D03*
D11*
%TO.P,J1,2,Pin_2*%
%TO.N,GND*%
X149606000Y-97028000D03*
%TO.P,J1,3,Pin_3*%
%TO.N,/SCL_3V3*%
X152146000Y-97028000D03*
%TO.P,J1,4,Pin_4*%
%TO.N,/SDA_3V3*%
X154686000Y-97028000D03*
%TD*%
D12*
%TO.P,R6,1*%
%TO.N,/SDA_3V3*%
X156925000Y-91440000D03*
%TO.P,R6,2*%
%TO.N,Net-(Q1-Pad3)*%
X158750000Y-91440000D03*
%TD*%
D13*
%TO.P,R5,1*%
%TO.N,Net-(Q1-Pad2)*%
X153717000Y-93726000D03*
%TO.P,R5,2*%
%TO.N,/SDA*%
X151892000Y-93726000D03*
%TD*%
D14*
%TO.P,C1,1*%
%TO.N,+1V8*%
X153924000Y-83312000D03*
%TO.P,C1,2*%
%TO.N,GND*%
X153924000Y-81587000D03*
%TD*%
D12*
%TO.P,R7,1*%
%TO.N,Net-(Q2-Pad2)*%
X147828000Y-93726000D03*
%TO.P,R7,2*%
%TO.N,/SCL*%
X149653000Y-93726000D03*
%TD*%
D15*
%TO.P,Q1,1*%
%TO.N,+1V8*%
X158686500Y-88950800D03*
%TO.P,Q1,2*%
%TO.N,Net-(Q1-Pad2)*%
X156781500Y-88950800D03*
%TO.P,Q1,3*%
%TO.N,Net-(Q1-Pad3)*%
X157734000Y-86868000D03*
%TD*%
D13*
%TO.P,R2,1*%
%TO.N,/LDR*%
X145288000Y-93726000D03*
%TO.P,R2,2*%
%TO.N,Net-(D2-PadC)*%
X143463000Y-93726000D03*
%TD*%
D16*
%TO.P,C3,1*%
%TO.N,+3.3V*%
X144579000Y-82095000D03*
%TO.P,C3,2*%
%TO.N,GND*%
X146304000Y-82095000D03*
%TD*%
D12*
%TO.P,R1,1*%
%TO.N,/LDR*%
X156878000Y-93726000D03*
%TO.P,R1,2*%
%TO.N,Net-(D1-PadC)*%
X158703000Y-93726000D03*
%TD*%
D15*
%TO.P,Q2,1*%
%TO.N,+1V8*%
X143002000Y-87122000D03*
%TO.P,Q2,2*%
%TO.N,Net-(Q2-Pad2)*%
X144907000Y-87122000D03*
%TO.P,Q2,3*%
%TO.N,Net-(Q2-Pad3)*%
X143954500Y-89204800D03*
%TD*%
D13*
%TO.P,R8,1*%
%TO.N,/SCL_3V3*%
X144319000Y-91694000D03*
%TO.P,R8,2*%
%TO.N,Net-(Q2-Pad3)*%
X142494000Y-91694000D03*
%TD*%
D17*
%TO.P,U3,1,GND*%
%TO.N,GND*%
X151064000Y-82550000D03*
%TO.P,U3,2,VO*%
%TO.N,+1V8*%
X149164000Y-82550000D03*
%TO.P,U3,3,VI*%
%TO.N,+3.3V*%
X150114000Y-80675000D03*
%TD*%
D14*
%TO.P,C2,1*%
%TO.N,+1V8*%
X156464000Y-83312000D03*
%TO.P,C2,2*%
%TO.N,GND*%
X156464000Y-81587000D03*
%TD*%
D18*
%TO.N,Net-(D1-PadC)*%
X160782000Y-89408000D03*
%TO.N,+3.3V*%
X143510000Y-84074000D03*
%TO.N,GND*%
X152654000Y-79756000D03*
X146304000Y-84074000D03*
%TO.N,/SDA*%
X153162000Y-85344000D03*
%TO.N,/SCL*%
X148082000Y-87122000D03*
%TO.N,+1V8*%
X150368000Y-85344000D03*
%TO.N,/LDR*%
X154940000Y-91948000D03*
X146558000Y-91948000D03*
%TO.N,Net-(D2-PadC)*%
X140970000Y-89408000D03*
%TD*%
D19*
%TO.N,/SDA_3V3*%
X157734000Y-95758000D02*
X157734000Y-92249000D01*
D20*
X157734000Y-92249000D02*
X156925000Y-91440000D01*
%TO.N,Net-(Q1-Pad2)*%
X153717000Y-91139000D02*
X153717000Y-93726000D01*
X155905200Y-88950800D02*
X153717000Y-91139000D01*
X156781500Y-88950800D02*
X155905200Y-88950800D01*
%TO.N,/SCL_3V3*%
X150067000Y-94949000D02*
X144319000Y-94949000D01*
X152146000Y-97028000D02*
X150067000Y-94949000D01*
D21*
%TO.N,/LDR*%
X156718000Y-93726000D02*
X156878000Y-93726000D01*
D20*
X154940000Y-91948000D02*
X156718000Y-93726000D01*
%TO.N,+3.3V*%
X145237000Y-80675000D02*
X150114000Y-80675000D01*
X143510000Y-84074000D02*
X143510000Y-83312000D01*
X143510000Y-83312000D02*
X144579000Y-82243000D01*
X144579000Y-82243000D02*
X144579000Y-81333000D01*
X144579000Y-81333000D02*
X145237000Y-80675000D01*
%TO.N,GND*%
X151064000Y-82550000D02*
X152027000Y-81587000D01*
X153924000Y-81587000D02*
X153924000Y-81026000D01*
X153924000Y-81026000D02*
X152654000Y-79756000D01*
X153924000Y-81587000D02*
X156464000Y-81587000D01*
X146304000Y-82095000D02*
X146304000Y-84074000D01*
X152027000Y-81587000D02*
X153924000Y-81587000D01*
%TO.N,/SDA*%
X153162000Y-89408000D02*
X151892000Y-90678000D01*
X153162000Y-85344000D02*
X153162000Y-89408000D01*
X151892000Y-90678000D02*
X151892000Y-93726000D01*
%TO.N,/SCL*%
X148082000Y-87122000D02*
X148082000Y-89154000D01*
X148082000Y-89154000D02*
X149606000Y-90678000D01*
D21*
X149606000Y-93679000D02*
X149653000Y-93726000D01*
D20*
X149606000Y-90678000D02*
X149606000Y-93679000D01*
%TO.N,+1V8*%
X153924000Y-83312000D02*
X156464000Y-83312000D01*
D21*
X150368000Y-85344000D02*
X150114000Y-85598000D01*
D20*
X149164000Y-84140000D02*
X149164000Y-82550000D01*
X158686500Y-88442800D02*
X158686500Y-84264500D01*
X144399000Y-85598000D02*
X143002000Y-86995000D01*
X152400000Y-83312000D02*
X150368000Y-85344000D01*
D21*
X143002000Y-86995000D02*
X143002000Y-87122000D01*
X153924000Y-83312000D02*
X153469000Y-83312000D01*
D20*
X153924000Y-83312000D02*
X152400000Y-83312000D01*
X150114000Y-85598000D02*
X144399000Y-85598000D01*
X158686500Y-84264500D02*
X157734000Y-83312000D01*
X150368000Y-85344000D02*
X149164000Y-84140000D01*
D21*
X153469000Y-83312000D02*
X153456000Y-83299000D01*
D20*
X157734000Y-83312000D02*
X156464000Y-83312000D01*
D19*
%TO.N,/SCL_3V3*%
X144319000Y-91694000D02*
X144319000Y-94949000D01*
D20*
%TO.N,/SDA_3V3*%
X155956000Y-95758000D02*
X157734000Y-95758000D01*
X154686000Y-97028000D02*
X155956000Y-95758000D01*
%TO.N,/LDR*%
X146558000Y-92202000D02*
X145288000Y-93472000D01*
D21*
X146558000Y-91948000D02*
X146558000Y-92202000D01*
X145288000Y-93472000D02*
X145288000Y-93726000D01*
D20*
%TO.N,Net-(D2-PadC)*%
X140970000Y-89408000D02*
X140970000Y-92456000D01*
X140970000Y-92456000D02*
X142240000Y-93726000D01*
X142240000Y-93726000D02*
X143463000Y-93726000D01*
%TO.N,Net-(Q1-Pad3)*%
X157734000Y-86868000D02*
X157734000Y-89916000D01*
X157734000Y-89916000D02*
X158750000Y-90932000D01*
D21*
X158750000Y-90932000D02*
X158750000Y-91440000D01*
D20*
%TO.N,Net-(Q2-Pad2)*%
X144907000Y-88011000D02*
X147828000Y-90932000D01*
X147828000Y-90932000D02*
X147828000Y-93726000D01*
X144907000Y-87122000D02*
X144907000Y-88011000D01*
%TO.N,Net-(Q2-Pad3)*%
X142494000Y-90424000D02*
X142494000Y-91694000D01*
X143764000Y-89154000D02*
X142494000Y-90424000D01*
%TO.N,Net-(D1-PadC)*%
X159512000Y-93726000D02*
X158703000Y-93726000D01*
X160782000Y-92456000D02*
X159512000Y-93726000D01*
X160782000Y-89408000D02*
X160782000Y-92456000D01*
%TD*%
%TA.AperFunction,Conductor*%
%TO.N,GND*%
G36*
X160769752Y-93637784D02*
G01*
X160825686Y-93679655D01*
X160850103Y-93745120D01*
X160839495Y-93804857D01*
X160767059Y-93965805D01*
X160763780Y-93972540D01*
X160458479Y-94554243D01*
X160454799Y-94560767D01*
X160114939Y-95122963D01*
X160110872Y-95129253D01*
X159737689Y-95669902D01*
X159733250Y-95675935D01*
X159328094Y-96193077D01*
X159323298Y-96198831D01*
X158887671Y-96690553D01*
X158882537Y-96696007D01*
X158418007Y-97160537D01*
X158412553Y-97165671D01*
X157920831Y-97601298D01*
X157915077Y-97606094D01*
X157397935Y-98011250D01*
X157391902Y-98015689D01*
X156851253Y-98388872D01*
X156844963Y-98392939D01*
X156282767Y-98732799D01*
X156276243Y-98736479D01*
X155694540Y-99041780D01*
X155687805Y-99045059D01*
X155088737Y-99314677D01*
X155081817Y-99317543D01*
X154467564Y-99550499D01*
X154460483Y-99552942D01*
X153833303Y-99748379D01*
X153826088Y-99750391D01*
X153188225Y-99907610D01*
X153180902Y-99909182D01*
X152534719Y-100027599D01*
X152527314Y-100028726D01*
X151875163Y-100107912D01*
X151867703Y-100108590D01*
X151211954Y-100148256D01*
X151204467Y-100148482D01*
X150547533Y-100148482D01*
X150540046Y-100148256D01*
X149884296Y-100108590D01*
X149876836Y-100107912D01*
X149224685Y-100028726D01*
X149217280Y-100027599D01*
X148571097Y-99909182D01*
X148563774Y-99907610D01*
X147925911Y-99750391D01*
X147918696Y-99748379D01*
X147291510Y-99552940D01*
X147284441Y-99550501D01*
X147059068Y-99465028D01*
X146670182Y-99317543D01*
X146663262Y-99314677D01*
X146064194Y-99045059D01*
X146057459Y-99041780D01*
X145837864Y-98926528D01*
X145475749Y-98736475D01*
X145469240Y-98732803D01*
X144907036Y-98392939D01*
X144900746Y-98388872D01*
X144360097Y-98015689D01*
X144354064Y-98011250D01*
X143836922Y-97606094D01*
X143831168Y-97601298D01*
X143339446Y-97165671D01*
X143333992Y-97160537D01*
X142869462Y-96696007D01*
X142864328Y-96690553D01*
X142428701Y-96198831D01*
X142423905Y-96193077D01*
X142018749Y-95675935D01*
X142014310Y-95669902D01*
X141812802Y-95377967D01*
X141641125Y-95129250D01*
X141637060Y-95122963D01*
X141530408Y-94946539D01*
X141297189Y-94560749D01*
X141293530Y-94554261D01*
X140988214Y-93972531D01*
X140984940Y-93965805D01*
X140968257Y-93928736D01*
X140912502Y-93804854D01*
X140902940Y-93735645D01*
X140932313Y-93672250D01*
X140991298Y-93634799D01*
X141061167Y-93635183D01*
X141113260Y-93666285D01*
X141649600Y-94202624D01*
X141649621Y-94202647D01*
X141759028Y-94312054D01*
X141759035Y-94312060D01*
X141882608Y-94394628D01*
X141882609Y-94394628D01*
X141882610Y-94394629D01*
X142019920Y-94451505D01*
X142165683Y-94480499D01*
X142165687Y-94480500D01*
X142165688Y-94480500D01*
X142634948Y-94480500D01*
X142701987Y-94500185D01*
X142722629Y-94516819D01*
X142752150Y-94546340D01*
X142898984Y-94636908D01*
X143062747Y-94691174D01*
X143163823Y-94701500D01*
X143447855Y-94701499D01*
X143514893Y-94721183D01*
X143560648Y-94773987D01*
X143570592Y-94843146D01*
X143569472Y-94849687D01*
X143564500Y-94874686D01*
X143564500Y-95023316D01*
X143593493Y-95169072D01*
X143593495Y-95169080D01*
X143650371Y-95306391D01*
X143732939Y-95429964D01*
X143732945Y-95429971D01*
X143838028Y-95535054D01*
X143838035Y-95535060D01*
X143961608Y-95617628D01*
X143961609Y-95617628D01*
X143961610Y-95617629D01*
X144098920Y-95674505D01*
X144244683Y-95703499D01*
X144244687Y-95703500D01*
X144244688Y-95703500D01*
X145698283Y-95703500D01*
X145765322Y-95723185D01*
X145811077Y-95775989D01*
X145821021Y-95845147D01*
X145797550Y-95901811D01*
X145772204Y-95935668D01*
X145772202Y-95935671D01*
X145721908Y-96070517D01*
X145717084Y-96115390D01*
X145715501Y-96130123D01*
X145715500Y-96130135D01*
X145715500Y-97925870D01*
X145715501Y-97925876D01*
X145721908Y-97985483D01*
X145772202Y-98120328D01*
X145772206Y-98120335D01*
X145858452Y-98235544D01*
X145858455Y-98235547D01*
X145973664Y-98321793D01*
X145973671Y-98321797D01*
X146108517Y-98372091D01*
X146108516Y-98372091D01*
X146115444Y-98372835D01*
X146168127Y-98378500D01*
X147963872Y-98378499D01*
X148023483Y-98372091D01*
X148158331Y-98321796D01*
X148273546Y-98235546D01*
X148359796Y-98120331D01*
X148410091Y-97985483D01*
X148416500Y-97925873D01*
X148416499Y-97901979D01*
X148419330Y-97888963D01*
X148429940Y-97869525D01*
X148436179Y-97848275D01*
X148452803Y-97827643D01*
X148452808Y-97827636D01*
X148452811Y-97827634D01*
X148452818Y-97827626D01*
X149123037Y-97157408D01*
X149140075Y-97220993D01*
X149205901Y-97335007D01*
X149298993Y-97428099D01*
X149413007Y-97493925D01*
X149476590Y-97510962D01*
X148844282Y-98143269D01*
X148844282Y-98143270D01*
X148898449Y-98182624D01*
X149087782Y-98279095D01*
X149289870Y-98344757D01*
X149499754Y-98378000D01*
X149712246Y-98378000D01*
X149922127Y-98344757D01*
X149922130Y-98344757D01*
X150124217Y-98279095D01*
X150313554Y-98182622D01*
X150367716Y-98143270D01*
X150367717Y-98143270D01*
X149735408Y-97510962D01*
X149798993Y-97493925D01*
X149913007Y-97428099D01*
X150006099Y-97335007D01*
X150071925Y-97220993D01*
X150088962Y-97157408D01*
X150721270Y-97789717D01*
X150721270Y-97789716D01*
X150760622Y-97735555D01*
X150765232Y-97726507D01*
X150813205Y-97675709D01*
X150881025Y-97658912D01*
X150947161Y-97681447D01*
X150986204Y-97726504D01*
X150990949Y-97735817D01*
X151115890Y-97907786D01*
X151266213Y-98058109D01*
X151438179Y-98183048D01*
X151438181Y-98183049D01*
X151438184Y-98183051D01*
X151627588Y-98279557D01*
X151829757Y-98345246D01*
X152039713Y-98378500D01*
X152039714Y-98378500D01*
X152252286Y-98378500D01*
X152252287Y-98378500D01*
X152462243Y-98345246D01*
X152664412Y-98279557D01*
X152853816Y-98183051D01*
X152940138Y-98120335D01*
X153025786Y-98058109D01*
X153025788Y-98058106D01*
X153025792Y-98058104D01*
X153176104Y-97907792D01*
X153176106Y-97907788D01*
X153176109Y-97907786D01*
X153301048Y-97735820D01*
X153301050Y-97735817D01*
X153301051Y-97735816D01*
X153305514Y-97727054D01*
X153353488Y-97676259D01*
X153421308Y-97659463D01*
X153487444Y-97681999D01*
X153526486Y-97727056D01*
X153530951Y-97735820D01*
X153655890Y-97907786D01*
X153806213Y-98058109D01*
X153978179Y-98183048D01*
X153978181Y-98183049D01*
X153978184Y-98183051D01*
X154167588Y-98279557D01*
X154369757Y-98345246D01*
X154579713Y-98378500D01*
X154579714Y-98378500D01*
X154792286Y-98378500D01*
X154792287Y-98378500D01*
X155002243Y-98345246D01*
X155204412Y-98279557D01*
X155393816Y-98183051D01*
X155480138Y-98120335D01*
X155565786Y-98058109D01*
X155565788Y-98058106D01*
X155565792Y-98058104D01*
X155716104Y-97907792D01*
X155716106Y-97907788D01*
X155716109Y-97907786D01*
X155841048Y-97735820D01*
X155841050Y-97735817D01*
X155841051Y-97735816D01*
X155937557Y-97546412D01*
X156003246Y-97344243D01*
X156036500Y-97134287D01*
X156036500Y-96921713D01*
X156022156Y-96831151D01*
X156022857Y-96825728D01*
X156020945Y-96820602D01*
X156027286Y-96791451D01*
X156031110Y-96761861D01*
X156034942Y-96756255D01*
X156035797Y-96752329D01*
X156056945Y-96724078D01*
X156232205Y-96548819D01*
X156293528Y-96515334D01*
X156319886Y-96512500D01*
X157808313Y-96512500D01*
X157808314Y-96512499D01*
X157954080Y-96483505D01*
X158091390Y-96426629D01*
X158214966Y-96344059D01*
X158320059Y-96238966D01*
X158402629Y-96115390D01*
X158459505Y-95978080D01*
X158488500Y-95832312D01*
X158488500Y-95683688D01*
X158459505Y-95537920D01*
X158402629Y-95400610D01*
X158402627Y-95400607D01*
X158402139Y-95399693D01*
X158401970Y-95399021D01*
X158400298Y-95394983D01*
X158400897Y-95394734D01*
X158387500Y-95341245D01*
X158387500Y-94825499D01*
X158407185Y-94758460D01*
X158459989Y-94712705D01*
X158511496Y-94701499D01*
X159002176Y-94701499D01*
X159002184Y-94701498D01*
X159002187Y-94701498D01*
X159057530Y-94695844D01*
X159103253Y-94691174D01*
X159267016Y-94636908D01*
X159413850Y-94546340D01*
X159443370Y-94516820D01*
X159463404Y-94505880D01*
X159480828Y-94491127D01*
X159496492Y-94487812D01*
X159504693Y-94483335D01*
X159514804Y-94481570D01*
X159522892Y-94480501D01*
X159586312Y-94480501D01*
X159707894Y-94456315D01*
X159732080Y-94451505D01*
X159797638Y-94424350D01*
X159869389Y-94394630D01*
X159992966Y-94312059D01*
X160638741Y-93666283D01*
X160700061Y-93632800D01*
X160769752Y-93637784D01*
G37*
%TD.AperFunction*%
%TA.AperFunction,Conductor*%
G36*
X148817665Y-95723185D02*
G01*
X148863420Y-95775989D01*
X148873364Y-95845147D01*
X148844653Y-95908014D01*
X148844282Y-95912728D01*
X149476591Y-96545037D01*
X149413007Y-96562075D01*
X149298993Y-96627901D01*
X149205901Y-96720993D01*
X149140075Y-96835007D01*
X149123037Y-96898591D01*
X148452818Y-96228372D01*
X148419333Y-96167049D01*
X148416499Y-96140691D01*
X148416499Y-96130129D01*
X148416498Y-96130123D01*
X148416497Y-96130116D01*
X148410091Y-96070517D01*
X148375614Y-95978080D01*
X148359797Y-95935671D01*
X148359795Y-95935668D01*
X148334450Y-95901811D01*
X148310033Y-95836346D01*
X148324885Y-95768074D01*
X148374290Y-95718668D01*
X148433717Y-95703500D01*
X148750626Y-95703500D01*
X148817665Y-95723185D01*
G37*
%TD.AperFunction*%
%TA.AperFunction,Conductor*%
G36*
X151211954Y-78159744D02*
G01*
X151867730Y-78199411D01*
X151875136Y-78200084D01*
X152527324Y-78279274D01*
X152534709Y-78280398D01*
X153180924Y-78398821D01*
X153188203Y-78400384D01*
X153826112Y-78557614D01*
X153833279Y-78559613D01*
X154460509Y-78755065D01*
X154467538Y-78757491D01*
X155081823Y-78990458D01*
X155088732Y-78993320D01*
X155687814Y-79262944D01*
X155694531Y-79266214D01*
X156276261Y-79571530D01*
X156282749Y-79575189D01*
X156844963Y-79915060D01*
X156851250Y-79919125D01*
X156946588Y-79984932D01*
X157391902Y-80292310D01*
X157397935Y-80296749D01*
X157915077Y-80701905D01*
X157920831Y-80706701D01*
X158412553Y-81142328D01*
X158418007Y-81147462D01*
X158882537Y-81611992D01*
X158887671Y-81617446D01*
X159323298Y-82109168D01*
X159328094Y-82114922D01*
X159733250Y-82632064D01*
X159737689Y-82638097D01*
X160110872Y-83178746D01*
X160114939Y-83185036D01*
X160182988Y-83297603D01*
X160452139Y-83742833D01*
X160454799Y-83747232D01*
X160458475Y-83753749D01*
X160574903Y-83975583D01*
X160763780Y-84335459D01*
X160767059Y-84342194D01*
X161036677Y-84941262D01*
X161039543Y-84948182D01*
X161148152Y-85234559D01*
X161251965Y-85508293D01*
X161272499Y-85562435D01*
X161274940Y-85569510D01*
X161466774Y-86185127D01*
X161470379Y-86196696D01*
X161472391Y-86203911D01*
X161629610Y-86841774D01*
X161631182Y-86849097D01*
X161749599Y-87495280D01*
X161750726Y-87502685D01*
X161829912Y-88154836D01*
X161830590Y-88162296D01*
X161844702Y-88395605D01*
X161829101Y-88463711D01*
X161779156Y-88512571D01*
X161710724Y-88526671D01*
X161645531Y-88501537D01*
X161633247Y-88490773D01*
X161596648Y-88454174D01*
X161596646Y-88454172D01*
X161437405Y-88338476D01*
X161420744Y-88329987D01*
X161262029Y-88249117D01*
X161074826Y-88188290D01*
X160880422Y-88157500D01*
X160880417Y-88157500D01*
X160683583Y-88157500D01*
X160683578Y-88157500D01*
X160489173Y-88188290D01*
X160301970Y-88249117D01*
X160126594Y-88338476D01*
X160090443Y-88364742D01*
X159967354Y-88454172D01*
X159967352Y-88454174D01*
X159967351Y-88454174D01*
X159828174Y-88593351D01*
X159828174Y-88593352D01*
X159828172Y-88593354D01*
X159794805Y-88639280D01*
X159712474Y-88752597D01*
X159700883Y-88775346D01*
X159652908Y-88826142D01*
X159585087Y-88842936D01*
X159518952Y-88820398D01*
X159475501Y-88765682D01*
X159466399Y-88719050D01*
X159466399Y-88267929D01*
X159466398Y-88267923D01*
X159464376Y-88249116D01*
X159459991Y-88208317D01*
X159457186Y-88200797D01*
X159448818Y-88178360D01*
X159441000Y-88135027D01*
X159441000Y-84190187D01*
X159440999Y-84190183D01*
X159422115Y-84095246D01*
X159412005Y-84044420D01*
X159355129Y-83907110D01*
X159326186Y-83863794D01*
X159272560Y-83783535D01*
X159272554Y-83783528D01*
X159163147Y-83674121D01*
X159163124Y-83674100D01*
X158214969Y-82725943D01*
X158214968Y-82725942D01*
X158091392Y-82643372D01*
X158091391Y-82643371D01*
X158091389Y-82643370D01*
X158091386Y-82643368D01*
X158091381Y-82643366D01*
X157992484Y-82602402D01*
X157992477Y-82602399D01*
X157987625Y-82600390D01*
X157954080Y-82586495D01*
X157929894Y-82581684D01*
X157923099Y-82580332D01*
X157923098Y-82580332D01*
X157808314Y-82557499D01*
X157808312Y-82557499D01*
X157659688Y-82557499D01*
X157653574Y-82557499D01*
X157653554Y-82557500D01*
X157373346Y-82557500D01*
X157306307Y-82537815D01*
X157260552Y-82485011D01*
X157250608Y-82415853D01*
X157279633Y-82352297D01*
X157283276Y-82348384D01*
X157283945Y-82347537D01*
X157374448Y-82200811D01*
X157374453Y-82200800D01*
X157428680Y-82037152D01*
X157438999Y-81936154D01*
X157439000Y-81936141D01*
X157439000Y-81837000D01*
X155489001Y-81837000D01*
X155489001Y-81936154D01*
X155499319Y-82037152D01*
X155553546Y-82200800D01*
X155553551Y-82200811D01*
X155644052Y-82347534D01*
X155648533Y-82353201D01*
X155647020Y-82354397D01*
X155675821Y-82407142D01*
X155670837Y-82476834D01*
X155628965Y-82532767D01*
X155563501Y-82557184D01*
X155554655Y-82557500D01*
X154833346Y-82557500D01*
X154766307Y-82537815D01*
X154720552Y-82485011D01*
X154710608Y-82415853D01*
X154739633Y-82352297D01*
X154743276Y-82348384D01*
X154743945Y-82347537D01*
X154834448Y-82200811D01*
X154834453Y-82200800D01*
X154888680Y-82037152D01*
X154898999Y-81936154D01*
X154899000Y-81936141D01*
X154899000Y-81837000D01*
X152949001Y-81837000D01*
X152949001Y-81936154D01*
X152959319Y-82037152D01*
X153013546Y-82200800D01*
X153013551Y-82200811D01*
X153104052Y-82347534D01*
X153108533Y-82353201D01*
X153107020Y-82354397D01*
X153135821Y-82407142D01*
X153130837Y-82476834D01*
X153088965Y-82532767D01*
X153023501Y-82557184D01*
X153014655Y-82557500D01*
X152480446Y-82557500D01*
X152480426Y-82557499D01*
X152474312Y-82557499D01*
X152325688Y-82557499D01*
X152325686Y-82557499D01*
X152210900Y-82580332D01*
X152210897Y-82580332D01*
X152204105Y-82581684D01*
X152179920Y-82586495D01*
X152146375Y-82600390D01*
X152141523Y-82602399D01*
X152141519Y-82602401D01*
X152042614Y-82643368D01*
X152042607Y-82643372D01*
X151919031Y-82725942D01*
X151919030Y-82725943D01*
X151881295Y-82763680D01*
X151819973Y-82797166D01*
X151793613Y-82800000D01*
X150264000Y-82800000D01*
X150264000Y-83203149D01*
X150266899Y-83239989D01*
X150266900Y-83239995D01*
X150312716Y-83397693D01*
X150312717Y-83397696D01*
X150396314Y-83539052D01*
X150396321Y-83539061D01*
X150512438Y-83655178D01*
X150512447Y-83655185D01*
X150653803Y-83738782D01*
X150656581Y-83739984D01*
X150656765Y-83739998D01*
X150656974Y-83740155D01*
X150660965Y-83741882D01*
X150660553Y-83742833D01*
X150681179Y-83758275D01*
X150706888Y-83774683D01*
X150708882Y-83779013D01*
X150712698Y-83781870D01*
X150723354Y-83810441D01*
X150736113Y-83838147D01*
X150735449Y-83842868D01*
X150737115Y-83847334D01*
X150730632Y-83877131D01*
X150726387Y-83907336D01*
X150722996Y-83912235D01*
X150722263Y-83915607D01*
X150701112Y-83943861D01*
X150584520Y-84060453D01*
X150523197Y-84093938D01*
X150477444Y-84095246D01*
X150466419Y-84093500D01*
X150466417Y-84093500D01*
X150269583Y-84093500D01*
X150269579Y-84093500D01*
X150258552Y-84095246D01*
X150189259Y-84086288D01*
X150151478Y-84060453D01*
X149954819Y-83863794D01*
X149921334Y-83802471D01*
X149918500Y-83776113D01*
X149918500Y-83406057D01*
X149923423Y-83371464D01*
X149961598Y-83240069D01*
X149964500Y-83203194D01*
X149964500Y-82037000D01*
X149967050Y-82028314D01*
X149965762Y-82019353D01*
X149976740Y-81995312D01*
X149984185Y-81969961D01*
X149991025Y-81964033D01*
X149994787Y-81955797D01*
X150017021Y-81941507D01*
X150036989Y-81924206D01*
X150047503Y-81921918D01*
X150053565Y-81918023D01*
X150088500Y-81913000D01*
X150140000Y-81913000D01*
X150207039Y-81932685D01*
X150252794Y-81985489D01*
X150264000Y-82037000D01*
X150264000Y-82300000D01*
X150814000Y-82300000D01*
X151314000Y-82300000D01*
X151864000Y-82300000D01*
X151864000Y-81896865D01*
X151863999Y-81896850D01*
X151861100Y-81860010D01*
X151861099Y-81860004D01*
X151815283Y-81702306D01*
X151815282Y-81702303D01*
X151731685Y-81560947D01*
X151731678Y-81560938D01*
X151615561Y-81444821D01*
X151615552Y-81444814D01*
X151474196Y-81361217D01*
X151474193Y-81361216D01*
X151448571Y-81353772D01*
X151316494Y-81315400D01*
X151316497Y-81315400D01*
X151314000Y-81315203D01*
X151314000Y-82300000D01*
X150814000Y-82300000D01*
X150814000Y-81644314D01*
X150831267Y-81581194D01*
X150865744Y-81522898D01*
X150911598Y-81365069D01*
X150914500Y-81328194D01*
X150914500Y-81237845D01*
X152949000Y-81237845D01*
X152949000Y-81337000D01*
X153674000Y-81337000D01*
X154174000Y-81337000D01*
X154898999Y-81337000D01*
X154898999Y-81237861D01*
X154898998Y-81237845D01*
X155489000Y-81237845D01*
X155489000Y-81337000D01*
X156214000Y-81337000D01*
X156714000Y-81337000D01*
X157438999Y-81337000D01*
X157438999Y-81237860D01*
X157438998Y-81237845D01*
X157428680Y-81136847D01*
X157374453Y-80973199D01*
X157374448Y-80973188D01*
X157283947Y-80826465D01*
X157283944Y-80826461D01*
X157162038Y-80704555D01*
X157162034Y-80704552D01*
X157015311Y-80614051D01*
X157015300Y-80614046D01*
X156851652Y-80559819D01*
X156750654Y-80549500D01*
X156714000Y-80549500D01*
X156714000Y-81337000D01*
X156214000Y-81337000D01*
X156214000Y-80549500D01*
X156177361Y-80549500D01*
X156177343Y-80549501D01*
X156076347Y-80559819D01*
X155912699Y-80614046D01*
X155912688Y-80614051D01*
X155765965Y-80704552D01*
X155765961Y-80704555D01*
X155644055Y-80826461D01*
X155644052Y-80826465D01*
X155553551Y-80973188D01*
X155553546Y-80973199D01*
X155499319Y-81136847D01*
X155489000Y-81237845D01*
X154898998Y-81237845D01*
X154898998Y-81237844D01*
X154888680Y-81136847D01*
X154834453Y-80973199D01*
X154834448Y-80973188D01*
X154743947Y-80826465D01*
X154743944Y-80826461D01*
X154622038Y-80704555D01*
X154622034Y-80704552D01*
X154475311Y-80614051D01*
X154475300Y-80614046D01*
X154311652Y-80559819D01*
X154210654Y-80549500D01*
X154174000Y-80549500D01*
X154174000Y-81337000D01*
X153674000Y-81337000D01*
X153674000Y-80549500D01*
X153637361Y-80549500D01*
X153637343Y-80549501D01*
X153536347Y-80559819D01*
X153372699Y-80614046D01*
X153372688Y-80614051D01*
X153225965Y-80704552D01*
X153225961Y-80704555D01*
X153104055Y-80826461D01*
X153104052Y-80826465D01*
X153013551Y-80973188D01*
X153013546Y-80973199D01*
X152959319Y-81136847D01*
X152949000Y-81237845D01*
X150914500Y-81237845D01*
X150914500Y-80021806D01*
X150911598Y-79984931D01*
X150892497Y-79919187D01*
X150871819Y-79848011D01*
X150865744Y-79827102D01*
X150782081Y-79685635D01*
X150782079Y-79685633D01*
X150782076Y-79685629D01*
X150665870Y-79569423D01*
X150665862Y-79569417D01*
X150524396Y-79485755D01*
X150524393Y-79485754D01*
X150366573Y-79439902D01*
X150366567Y-79439901D01*
X150329701Y-79437000D01*
X150329694Y-79437000D01*
X149898306Y-79437000D01*
X149898298Y-79437000D01*
X149861432Y-79439901D01*
X149861426Y-79439902D01*
X149703606Y-79485754D01*
X149703603Y-79485755D01*
X149562137Y-79569417D01*
X149562129Y-79569423D01*
X149445923Y-79685629D01*
X149445917Y-79685637D01*
X149362255Y-79827102D01*
X149361095Y-79831098D01*
X149359331Y-79833858D01*
X149359156Y-79834265D01*
X149359090Y-79834236D01*
X149323487Y-79889983D01*
X149260014Y-79919187D01*
X149242019Y-79920500D01*
X145342848Y-79920500D01*
X145341152Y-79920002D01*
X145339444Y-79920453D01*
X145307751Y-79910194D01*
X145275809Y-79900815D01*
X145274652Y-79899480D01*
X145272970Y-79898936D01*
X145251848Y-79873162D01*
X145230054Y-79848011D01*
X145229802Y-79846262D01*
X145228682Y-79844895D01*
X145224849Y-79811814D01*
X145220110Y-79778853D01*
X145220844Y-79777245D01*
X145220641Y-79775490D01*
X145235296Y-79745599D01*
X145249135Y-79715297D01*
X145250870Y-79713834D01*
X145251400Y-79712755D01*
X145278698Y-79690383D01*
X145286562Y-79685629D01*
X145469264Y-79575181D01*
X145475724Y-79571538D01*
X146057481Y-79266208D01*
X146064172Y-79262950D01*
X146663279Y-78993314D01*
X146670165Y-78990463D01*
X147284471Y-78757487D01*
X147291480Y-78755069D01*
X147918728Y-78559610D01*
X147925879Y-78557616D01*
X148563803Y-78400382D01*
X148571068Y-78398823D01*
X149217295Y-78280397D01*
X149224670Y-78279275D01*
X149876866Y-78200084D01*
X149884266Y-78199411D01*
X150540046Y-78159744D01*
X150547533Y-78159518D01*
X151204467Y-78159518D01*
X151211954Y-78159744D01*
G37*
%TD.AperFunction*%
%TA.AperFunction,Conductor*%
G36*
X148423116Y-81449185D02*
G01*
X148468871Y-81501989D01*
X148478815Y-81571147D01*
X148462809Y-81616621D01*
X148412255Y-81702103D01*
X148412254Y-81702106D01*
X148366402Y-81859926D01*
X148366401Y-81859932D01*
X148363500Y-81896798D01*
X148363500Y-83203201D01*
X148366401Y-83240067D01*
X148366402Y-83240069D01*
X148404576Y-83371464D01*
X148409500Y-83406057D01*
X148409500Y-84060552D01*
X148409499Y-84060578D01*
X148409499Y-84214314D01*
X148429825Y-84316495D01*
X148429826Y-84316501D01*
X148430937Y-84322082D01*
X148438495Y-84360080D01*
X148450960Y-84390172D01*
X148453441Y-84396162D01*
X148453442Y-84396165D01*
X148495366Y-84497381D01*
X148495372Y-84497392D01*
X148577942Y-84620968D01*
X148588793Y-84631819D01*
X148622278Y-84693142D01*
X148617294Y-84762834D01*
X148575422Y-84818767D01*
X148509958Y-84843184D01*
X148501112Y-84843500D01*
X144723739Y-84843500D01*
X144656700Y-84823815D01*
X144610945Y-84771011D01*
X144601001Y-84701853D01*
X144613254Y-84663205D01*
X144668882Y-84554029D01*
X144668882Y-84554028D01*
X144668884Y-84554025D01*
X144729709Y-84366826D01*
X144733610Y-84342194D01*
X144760500Y-84172422D01*
X144760500Y-83975577D01*
X144729709Y-83781173D01*
X144668882Y-83593970D01*
X144583600Y-83426595D01*
X144579037Y-83402302D01*
X144570401Y-83379146D01*
X144572702Y-83368566D01*
X144570704Y-83357925D01*
X144579999Y-83335021D01*
X144585253Y-83310873D01*
X144595186Y-83297603D01*
X144596980Y-83293185D01*
X144606395Y-83282628D01*
X144782206Y-83106818D01*
X144843529Y-83073333D01*
X144869887Y-83070499D01*
X144928170Y-83070499D01*
X144928176Y-83070499D01*
X145029253Y-83060174D01*
X145193016Y-83005908D01*
X145339850Y-82915340D01*
X145354171Y-82901018D01*
X145415489Y-82867533D01*
X145485181Y-82872514D01*
X145529534Y-82901017D01*
X145543461Y-82914944D01*
X145543465Y-82914947D01*
X145690188Y-83005448D01*
X145690199Y-83005453D01*
X145853847Y-83059680D01*
X145954851Y-83069999D01*
X146554000Y-83069999D01*
X146653140Y-83069999D01*
X146653154Y-83069998D01*
X146754152Y-83059680D01*
X146917800Y-83005453D01*
X146917811Y-83005448D01*
X147064534Y-82914947D01*
X147064538Y-82914944D01*
X147186444Y-82793038D01*
X147186447Y-82793034D01*
X147276948Y-82646311D01*
X147276953Y-82646300D01*
X147331180Y-82482652D01*
X147341499Y-82381654D01*
X147341500Y-82381641D01*
X147341500Y-82345000D01*
X146554000Y-82345000D01*
X146554000Y-83069999D01*
X145954851Y-83069999D01*
X146054000Y-83069998D01*
X146054000Y-82219000D01*
X146073685Y-82151961D01*
X146126489Y-82106206D01*
X146178000Y-82095000D01*
X146304000Y-82095000D01*
X146304000Y-81969000D01*
X146323685Y-81901961D01*
X146376489Y-81856206D01*
X146428000Y-81845000D01*
X147341499Y-81845000D01*
X147341499Y-81808360D01*
X147341498Y-81808345D01*
X147331180Y-81707346D01*
X147293126Y-81592503D01*
X147290724Y-81522675D01*
X147326456Y-81462633D01*
X147388977Y-81431441D01*
X147410832Y-81429500D01*
X148356077Y-81429500D01*
X148423116Y-81449185D01*
G37*
%TD.AperFunction*%
%TD*%
M02*
