%TF.GenerationSoftware,KiCad,Pcbnew,9.0.6*%
%TF.CreationDate,2026-02-28T10:16:42-08:00*%
%TF.ProjectId,sensor tip,73656e73-6f72-4207-9469-702e6b696361,rev?*%
%TF.SameCoordinates,Original*%
%TF.FileFunction,Soldermask,Top*%
%TF.FilePolarity,Negative*%
%FSLAX46Y46*%
G04 Gerber Fmt 4.6, Leading zero omitted, Abs format (unit mm)*
G04 Created by KiCad (PCBNEW 9.0.6) date 2026-02-28 10:16:42*
%MOMM*%
%LPD*%
G01*
G04 APERTURE LIST*
G04 Aperture macros list*
%AMRoundRect*
0 Rectangle with rounded corners*
0 $1 Rounding radius*
0 $2 $3 $4 $5 $6 $7 $8 $9 X,Y pos of 4 corners*
0 Add a 4 corners polygon primitive as box body*
4,1,4,$2,$3,$4,$5,$6,$7,$8,$9,$2,$3,0*
0 Add four circle primitives for the rounded corners*
1,1,$1+$1,$2,$3*
1,1,$1+$1,$4,$5*
1,1,$1+$1,$6,$7*
1,1,$1+$1,$8,$9*
0 Add four rect primitives between the rounded corners*
20,1,$1+$1,$2,$3,$4,$5,0*
20,1,$1+$1,$4,$5,$6,$7,0*
20,1,$1+$1,$6,$7,$8,$9,0*
20,1,$1+$1,$8,$9,$2,$3,0*%
G04 Aperture macros list end*
%ADD10C,0.010000*%
%ADD11R,0.635000X0.533400*%
%ADD12RoundRect,0.102000X-0.800000X-1.200000X0.800000X-1.200000X0.800000X1.200000X-0.800000X1.200000X0*%
%ADD13R,1.700000X1.700000*%
%ADD14C,1.700000*%
%ADD15RoundRect,0.102000X0.800000X1.200000X-0.800000X1.200000X-0.800000X-1.200000X0.800000X-1.200000X0*%
G04 APERTURE END LIST*
D10*
%TO.C,D2*%
X145180000Y-88550000D02*
X145480000Y-88550000D01*
X145480000Y-89250000D01*
X145180000Y-89250000D01*
X145180000Y-90200000D01*
X144380000Y-90200000D01*
X144380000Y-87600000D01*
X145180000Y-87600000D01*
X145180000Y-88550000D01*
G36*
X145180000Y-88550000D02*
G01*
X145480000Y-88550000D01*
X145480000Y-89250000D01*
X145180000Y-89250000D01*
X145180000Y-90200000D01*
X144380000Y-90200000D01*
X144380000Y-87600000D01*
X145180000Y-87600000D01*
X145180000Y-88550000D01*
G37*
%TO.C,D1*%
X157350000Y-90200000D02*
X156550000Y-90200000D01*
X156550000Y-89250000D01*
X156250000Y-89250000D01*
X156250000Y-88550000D01*
X156550000Y-88550000D01*
X156550000Y-87600000D01*
X157350000Y-87600000D01*
X157350000Y-90200000D01*
G36*
X157350000Y-90200000D02*
G01*
X156550000Y-90200000D01*
X156550000Y-89250000D01*
X156250000Y-89250000D01*
X156250000Y-88550000D01*
X156550000Y-88550000D01*
X156550000Y-87600000D01*
X157350000Y-87600000D01*
X157350000Y-90200000D01*
G37*
%TD*%
D11*
%TO.C,U1*%
X150423002Y-88024000D03*
X150423002Y-88824001D03*
X150423002Y-89623999D03*
X150423002Y-90424000D03*
X151638000Y-90424000D03*
X151638000Y-89623999D03*
X151638000Y-88824001D03*
X151638000Y-88024000D03*
%TD*%
D12*
%TO.C,D2*%
X142980000Y-88900000D03*
%TD*%
D13*
%TO.C,J1*%
X147066000Y-97028000D03*
D14*
X149606000Y-97028000D03*
X152146000Y-97028000D03*
X154686000Y-97028000D03*
%TD*%
D15*
%TO.C,D1*%
X158750000Y-88900000D03*
%TD*%
M02*
