%TF.GenerationSoftware,KiCad,Pcbnew,9.0.6*%
%TF.CreationDate,2026-02-23T14:31:15-08:00*%
%TF.ProjectId,Sensing,53656e73-696e-4672-9e6b-696361645f70,rev?*%
%TF.SameCoordinates,Original*%
%TF.FileFunction,Copper,L1,Top*%
%TF.FilePolarity,Positive*%
%FSLAX46Y46*%
G04 Gerber Fmt 4.6, Leading zero omitted, Abs format (unit mm)*
G04 Created by KiCad (PCBNEW 9.0.6) date 2026-02-23 14:31:15*
%MOMM*%
%LPD*%
G01*
G04 APERTURE LIST*
G04 Aperture macros list*
%AMRoundRect*
0 Rectangle with rounded corners*
0 $1 Rounding radius*
0 $2 $3 $4 $5 $6 $7 $8 $9 X,Y pos of 4 corners*
0 Add a 4 corners polygon primitive as box body*
4,1,4,$2,$3,$4,$5,$6,$7,$8,$9,$2,$3,0*
0 Add four circle primitives for the rounded corners*
1,1,$1+$1,$2,$3*
1,1,$1+$1,$4,$5*
1,1,$1+$1,$6,$7*
1,1,$1+$1,$8,$9*
0 Add four rect primitives between the rounded corners*
20,1,$1+$1,$2,$3,$4,$5,0*
20,1,$1+$1,$4,$5,$6,$7,0*
20,1,$1+$1,$6,$7,$8,$9,0*
20,1,$1+$1,$8,$9,$2,$3,0*%
%AMFreePoly0*
4,1,21,0.303536,1.203536,0.305000,1.200000,0.305000,0.255000,0.600000,0.255000,0.603536,0.253536,0.605000,0.250000,0.605000,-0.250000,0.603536,-0.253536,0.600000,-0.255000,0.305000,-0.255000,0.305000,-1.200000,0.303536,-1.203536,0.300000,-1.205000,-0.300000,-1.205000,-0.303536,-1.203536,-0.305000,-1.200000,-0.305000,1.200000,-0.303536,1.203536,-0.300000,1.205000,0.300000,1.205000,
0.303536,1.203536,0.303536,1.203536,$1*%
G04 Aperture macros list end*
%TA.AperFunction,SMDPad,CuDef*%
%ADD10RoundRect,0.237500X0.237500X-0.250000X0.237500X0.250000X-0.237500X0.250000X-0.237500X-0.250000X0*%
%TD*%
%TA.AperFunction,SMDPad,CuDef*%
%ADD11FreePoly0,180.000000*%
%TD*%
%TA.AperFunction,SMDPad,CuDef*%
%ADD12R,1.600000X2.400000*%
%TD*%
%TA.AperFunction,SMDPad,CuDef*%
%ADD13R,0.558800X1.270000*%
%TD*%
%TA.AperFunction,ComponentPad*%
%ADD14R,1.700000X1.700000*%
%TD*%
%TA.AperFunction,ComponentPad*%
%ADD15C,1.700000*%
%TD*%
%TA.AperFunction,SMDPad,CuDef*%
%ADD16FreePoly0,0.000000*%
%TD*%
%TA.AperFunction,SMDPad,CuDef*%
%ADD17RoundRect,0.150000X0.587500X0.150000X-0.587500X0.150000X-0.587500X-0.150000X0.587500X-0.150000X0*%
%TD*%
%TA.AperFunction,SMDPad,CuDef*%
%ADD18RoundRect,0.237500X-0.250000X-0.237500X0.250000X-0.237500X0.250000X0.237500X-0.250000X0.237500X0*%
%TD*%
%TA.AperFunction,SMDPad,CuDef*%
%ADD19RoundRect,0.237500X0.237500X-0.300000X0.237500X0.300000X-0.237500X0.300000X-0.237500X-0.300000X0*%
%TD*%
%TA.AperFunction,SMDPad,CuDef*%
%ADD20RoundRect,0.237500X-0.237500X0.300000X-0.237500X-0.300000X0.237500X-0.300000X0.237500X0.300000X0*%
%TD*%
%TA.AperFunction,SMDPad,CuDef*%
%ADD21R,0.635000X0.533400*%
%TD*%
%TA.AperFunction,SMDPad,CuDef*%
%ADD22RoundRect,0.237500X0.250000X0.237500X-0.250000X0.237500X-0.250000X-0.237500X0.250000X-0.237500X0*%
%TD*%
%TA.AperFunction,ViaPad*%
%ADD23C,1.500000*%
%TD*%
%TA.AperFunction,ViaPad*%
%ADD24C,1.000000*%
%TD*%
%TA.AperFunction,Conductor*%
%ADD25C,0.200000*%
%TD*%
G04 APERTURE END LIST*
D10*
%TO.P,R7,1*%
%TO.N,Net-(Q2-Pad2)*%
X143510000Y-95758000D03*
%TO.P,R7,2*%
%TO.N,/SCL*%
X143510000Y-93933000D03*
%TD*%
D11*
%TO.P,D1,A*%
%TO.N,+3.3V*%
X146304000Y-94742000D03*
D12*
%TO.P,D1,C*%
%TO.N,Net-(D1-PadC)*%
X148104000Y-94742000D03*
%TD*%
D10*
%TO.P,R5,1*%
%TO.N,Net-(Q1-Pad2)*%
X134874000Y-95758000D03*
%TO.P,R5,2*%
%TO.N,/SDA*%
X134874000Y-93933000D03*
%TD*%
D13*
%TO.P,Q2,1*%
%TO.N,+1V8*%
X142303500Y-101142800D03*
%TO.P,Q2,2*%
%TO.N,Net-(Q2-Pad2)*%
X144208500Y-101142800D03*
%TO.P,Q2,3*%
%TO.N,Net-(Q2-Pad3)*%
X143256000Y-99060000D03*
%TD*%
D10*
%TO.P,R8,1*%
%TO.N,/SCL_3V3*%
X146812000Y-100885000D03*
%TO.P,R8,2*%
%TO.N,Net-(Q2-Pad3)*%
X146812000Y-99060000D03*
%TD*%
D14*
%TO.P,J1,1,Pin_1*%
%TO.N,+3.3V*%
X143002000Y-104394000D03*
D15*
%TO.P,J1,2,Pin_2*%
%TO.N,GND*%
X140462000Y-104394000D03*
%TO.P,J1,3,Pin_3*%
%TO.N,/SCL_3V3*%
X137922000Y-104394000D03*
%TO.P,J1,4,Pin_4*%
%TO.N,/SDA_3V3*%
X135382000Y-104394000D03*
%TD*%
D13*
%TO.P,Q1,1*%
%TO.N,+1V8*%
X136271000Y-99314000D03*
%TO.P,Q1,2*%
%TO.N,Net-(Q1-Pad2)*%
X134366000Y-99314000D03*
%TO.P,Q1,3*%
%TO.N,Net-(Q1-Pad3)*%
X135318500Y-101396800D03*
%TD*%
D16*
%TO.P,D2,A*%
%TO.N,+3.3V*%
X132048000Y-94742000D03*
D12*
%TO.P,D2,C*%
%TO.N,Net-(D2-PadC)*%
X130248000Y-94742000D03*
%TD*%
D17*
%TO.P,U3,1,GND*%
%TO.N,GND*%
X139875500Y-90104000D03*
%TO.P,U3,2,VO*%
%TO.N,+1V8*%
X139875500Y-88204000D03*
%TO.P,U3,3,VI*%
%TO.N,+3.3V*%
X138000500Y-89154000D03*
%TD*%
D18*
%TO.P,R1,1*%
%TO.N,/LDR*%
X145495000Y-90170000D03*
%TO.P,R1,2*%
%TO.N,Net-(D1-PadC)*%
X147320000Y-90170000D03*
%TD*%
D19*
%TO.P,C1,1*%
%TO.N,+1V8*%
X139192000Y-100838000D03*
%TO.P,C1,2*%
%TO.N,GND*%
X139192000Y-99113000D03*
%TD*%
D20*
%TO.P,C2,1*%
%TO.N,+1V8*%
X143510000Y-88392000D03*
%TO.P,C2,2*%
%TO.N,GND*%
X143510000Y-90117000D03*
%TD*%
D10*
%TO.P,R6,1*%
%TO.N,/SDA_3V3*%
X131572000Y-100885000D03*
%TO.P,R6,2*%
%TO.N,Net-(Q1-Pad3)*%
X131572000Y-99060000D03*
%TD*%
D20*
%TO.P,C3,1*%
%TO.N,+3.3V*%
X135636000Y-88392000D03*
%TO.P,C3,2*%
%TO.N,GND*%
X135636000Y-90117000D03*
%TD*%
D21*
%TO.P,U1,1,VDD*%
%TO.N,+1V8*%
X139192000Y-96050001D03*
%TO.P,U1,2,SCL*%
%TO.N,/SCL*%
X139192000Y-95250000D03*
%TO.P,U1,3,GND*%
%TO.N,GND*%
X139192000Y-94450002D03*
%TO.P,U1,4,LDR*%
%TO.N,/LDR*%
X139192000Y-93650001D03*
%TO.P,U1,5,PGND*%
%TO.N,GND*%
X137977002Y-93650001D03*
%TO.P,U1,6,GPIO*%
%TO.N,unconnected-(U1-GPIO-Pad6)*%
X137977002Y-94450002D03*
%TO.P,U1,7,INT*%
%TO.N,unconnected-(U1-INT-Pad7)*%
X137977002Y-95250000D03*
%TO.P,U1,8,SDA*%
%TO.N,/SDA*%
X137977002Y-96050001D03*
%TD*%
D22*
%TO.P,R2,1*%
%TO.N,/LDR*%
X132889000Y-90170000D03*
%TO.P,R2,2*%
%TO.N,Net-(D2-PadC)*%
X131064000Y-90170000D03*
%TD*%
D23*
%TO.N,GND*%
X137922000Y-91948000D03*
X140716000Y-99113000D03*
X141190000Y-93726000D03*
%TO.N,+1V8*%
X140716000Y-97028000D03*
D24*
X141732000Y-88204000D03*
%TD*%
D25*
%TO.N,/LDR*%
X145495000Y-92202000D02*
X139700000Y-92202000D01*
X145495000Y-88345000D02*
X145495000Y-92202000D01*
X139136998Y-92765002D02*
X139136998Y-93650001D01*
X144272000Y-87122000D02*
X145495000Y-88345000D01*
X139700000Y-92202000D02*
X139136998Y-92765002D01*
X134493000Y-87122000D02*
X144272000Y-87122000D01*
X133096000Y-90170000D02*
X133096000Y-88519000D01*
X133096000Y-88519000D02*
X134493000Y-87122000D01*
%TO.N,GND*%
X137668000Y-91694000D02*
X136906000Y-91694000D01*
X137922000Y-91948000D02*
X137922000Y-93650001D01*
X137922000Y-91948000D02*
X137668000Y-91694000D01*
X136906000Y-91694000D02*
X135890000Y-90678000D01*
X135890000Y-90678000D02*
X135890000Y-90117000D01*
X140465998Y-94450002D02*
X139136998Y-94450002D01*
X141190000Y-93726000D02*
X140465998Y-94450002D01*
%TO.N,+1V8*%
X140716000Y-97028000D02*
X139700000Y-97028000D01*
X139700000Y-97028000D02*
X139192000Y-97536000D01*
%TO.N,+3.3V*%
X132048000Y-94742000D02*
X132048000Y-93504000D01*
X134366000Y-91948000D02*
X134366000Y-89154000D01*
X148336000Y-97536000D02*
X148336000Y-101608159D01*
X132048000Y-96552000D02*
X132048000Y-94742000D01*
X148082000Y-97282000D02*
X148336000Y-97536000D01*
X133604000Y-91948000D02*
X134366000Y-91948000D01*
X148336000Y-101608159D02*
X145550159Y-104394000D01*
X146304000Y-94742000D02*
X146304000Y-96520000D01*
X135128000Y-88392000D02*
X137238500Y-88392000D01*
X134366000Y-89154000D02*
X135128000Y-88392000D01*
X132048000Y-93504000D02*
X133604000Y-91948000D01*
X129794000Y-101600000D02*
X129794000Y-97536000D01*
X129794000Y-97536000D02*
X130048000Y-97282000D01*
X137238500Y-88392000D02*
X138000500Y-89154000D01*
X143002000Y-104394000D02*
X141732000Y-105664000D01*
X141732000Y-105664000D02*
X133858000Y-105664000D01*
X147066000Y-97282000D02*
X148082000Y-97282000D01*
X133858000Y-105664000D02*
X129794000Y-101600000D01*
X131318000Y-97282000D02*
X132048000Y-96552000D01*
X145550159Y-104394000D02*
X143002000Y-104394000D01*
X146304000Y-96520000D02*
X147066000Y-97282000D01*
X130048000Y-97282000D02*
X131318000Y-97282000D01*
%TO.N,GND*%
X140305000Y-90104000D02*
X143243000Y-90104000D01*
X143243000Y-90104000D02*
X143256000Y-90117000D01*
X140716000Y-99113000D02*
X139446000Y-99113000D01*
%TO.N,/SDA*%
X137922000Y-96050001D02*
X136991001Y-96050001D01*
X134874000Y-93933000D02*
X136991001Y-96050001D01*
%TO.N,/SCL*%
X143510000Y-94234000D02*
X142494000Y-95250000D01*
X143510000Y-93933000D02*
X143510000Y-94234000D01*
X142494000Y-95250000D02*
X139136998Y-95250000D01*
%TO.N,+1V8*%
X140305000Y-88204000D02*
X141732000Y-88204000D01*
X138938000Y-97790000D02*
X137414000Y-99314000D01*
X139192000Y-96050001D02*
X139192000Y-97536000D01*
X137414000Y-99314000D02*
X137467000Y-99314000D01*
X143444000Y-88204000D02*
X143510000Y-88138000D01*
X136271000Y-99314000D02*
X137414000Y-99314000D01*
X141732000Y-88204000D02*
X143444000Y-88204000D01*
X139192000Y-97536000D02*
X138938000Y-97790000D01*
X137467000Y-99314000D02*
X139446000Y-101293000D01*
%TO.N,/SCL_3V3*%
X139954000Y-102362000D02*
X137922000Y-104394000D01*
X144780000Y-102362000D02*
X139954000Y-102362000D01*
X147066000Y-100885000D02*
X146257000Y-100885000D01*
X146257000Y-100885000D02*
X144780000Y-102362000D01*
%TO.N,/SDA_3V3*%
X135382000Y-104394000D02*
X134620000Y-104394000D01*
X131318000Y-101092000D02*
X131318000Y-100885000D01*
X134620000Y-104394000D02*
X131318000Y-101092000D01*
%TO.N,Net-(D1-PadC)*%
X148104000Y-92202000D02*
X148104000Y-94742000D01*
X147320000Y-90170000D02*
X147320000Y-91418000D01*
X147320000Y-91418000D02*
X148104000Y-92202000D01*
X148104000Y-92177000D02*
X148104000Y-92202000D01*
%TO.N,Net-(D2-PadC)*%
X130248000Y-94742000D02*
X130248000Y-92456000D01*
X131064000Y-91440000D02*
X131064000Y-90170000D01*
X130248000Y-92256000D02*
X131064000Y-91440000D01*
X130248000Y-92456000D02*
X130248000Y-92256000D01*
X130248000Y-92456000D02*
X130248000Y-92209000D01*
%TO.N,Net-(Q1-Pad2)*%
X134366000Y-96266000D02*
X134874000Y-95758000D01*
X134366000Y-99314000D02*
X134366000Y-96266000D01*
%TO.N,Net-(Q1-Pad3)*%
X133654800Y-101396800D02*
X135318500Y-101396800D01*
X131318000Y-99060000D02*
X133654800Y-101396800D01*
%TO.N,Net-(Q2-Pad2)*%
X143819900Y-101142800D02*
X144208500Y-101142800D01*
X142240000Y-99562900D02*
X143819900Y-101142800D01*
X142240000Y-97028000D02*
X142240000Y-99562900D01*
X143510000Y-95758000D02*
X142240000Y-97028000D01*
%TO.N,Net-(Q2-Pad3)*%
X147066000Y-99060000D02*
X143510000Y-99060000D01*
%TD*%
%TA.AperFunction,Conductor*%
%TO.N,GND*%
G36*
X141788101Y-102982185D02*
G01*
X141833856Y-103034989D01*
X141843800Y-103104147D01*
X141814775Y-103167703D01*
X141795373Y-103185765D01*
X141794926Y-103186100D01*
X141794452Y-103186455D01*
X141708206Y-103301664D01*
X141708202Y-103301671D01*
X141657908Y-103436517D01*
X141652702Y-103484946D01*
X141651501Y-103496123D01*
X141651500Y-103496135D01*
X141651500Y-103506690D01*
X141631815Y-103573729D01*
X141615181Y-103594371D01*
X140944962Y-104264589D01*
X140927925Y-104201007D01*
X140862099Y-104086993D01*
X140769007Y-103993901D01*
X140654993Y-103928075D01*
X140591407Y-103911036D01*
X141223716Y-103278728D01*
X141169550Y-103239375D01*
X141086355Y-103196985D01*
X141035559Y-103149010D01*
X141018764Y-103081189D01*
X141041301Y-103015054D01*
X141096017Y-102971603D01*
X141142650Y-102962500D01*
X141721062Y-102962500D01*
X141788101Y-102982185D01*
G37*
%TD.AperFunction*%
%TA.AperFunction,Conductor*%
G36*
X141576474Y-98038132D02*
G01*
X141625169Y-98088238D01*
X141639500Y-98146105D01*
X141639500Y-99476230D01*
X141639499Y-99476248D01*
X141639499Y-99641954D01*
X141639498Y-99641954D01*
X141644899Y-99662110D01*
X141680423Y-99794685D01*
X141709360Y-99844804D01*
X141759480Y-99931616D01*
X141760131Y-99932267D01*
X141764610Y-99939983D01*
X141771104Y-99966482D01*
X141780940Y-99991935D01*
X141779300Y-99999924D01*
X141781241Y-100007844D01*
X141772377Y-100033649D01*
X141766891Y-100060378D01*
X141760722Y-100067582D01*
X141758544Y-100073924D01*
X141748488Y-100081870D01*
X141731680Y-100101500D01*
X141666552Y-100150255D01*
X141580306Y-100265464D01*
X141580302Y-100265471D01*
X141530008Y-100400317D01*
X141525410Y-100443089D01*
X141523600Y-100459927D01*
X141523600Y-101092684D01*
X141523601Y-101637500D01*
X141503916Y-101704539D01*
X141451113Y-101750294D01*
X141399601Y-101761500D01*
X140134191Y-101761500D01*
X140067152Y-101741815D01*
X140021397Y-101689011D01*
X140011453Y-101619853D01*
X140028651Y-101572405D01*
X140102908Y-101452016D01*
X140157174Y-101288253D01*
X140167500Y-101187177D01*
X140167499Y-100488824D01*
X140164547Y-100459929D01*
X140157174Y-100387747D01*
X140145691Y-100353093D01*
X140102908Y-100223984D01*
X140012340Y-100077150D01*
X139998017Y-100062827D01*
X139964532Y-100001504D01*
X139969516Y-99931812D01*
X139998021Y-99887460D01*
X140011947Y-99873535D01*
X140102448Y-99726811D01*
X140102453Y-99726800D01*
X140156680Y-99563152D01*
X140166999Y-99462154D01*
X140167000Y-99462141D01*
X140167000Y-99363000D01*
X139316000Y-99363000D01*
X139248961Y-99343315D01*
X139203206Y-99290511D01*
X139192000Y-99239000D01*
X139192000Y-98987000D01*
X139211685Y-98919961D01*
X139264489Y-98874206D01*
X139316000Y-98863000D01*
X140166999Y-98863000D01*
X140166999Y-98763860D01*
X140166998Y-98763845D01*
X140156680Y-98662847D01*
X140102453Y-98499199D01*
X140102448Y-98499188D01*
X140011947Y-98352465D01*
X140011944Y-98352461D01*
X139995223Y-98335740D01*
X139961738Y-98274417D01*
X139966722Y-98204725D01*
X140008594Y-98148792D01*
X140074058Y-98124375D01*
X140139197Y-98137573D01*
X140161215Y-98148792D01*
X140235970Y-98186882D01*
X140235972Y-98186882D01*
X140235975Y-98186884D01*
X140290884Y-98204725D01*
X140423173Y-98247709D01*
X140617578Y-98278500D01*
X140617583Y-98278500D01*
X140814422Y-98278500D01*
X141008826Y-98247709D01*
X141052107Y-98233646D01*
X141196025Y-98186884D01*
X141371405Y-98097524D01*
X141442614Y-98045786D01*
X141508420Y-98022307D01*
X141576474Y-98038132D01*
G37*
%TD.AperFunction*%
%TA.AperFunction,Conductor*%
G36*
X140952392Y-88868185D02*
G01*
X140980213Y-88874238D01*
X140988064Y-88880115D01*
X140991651Y-88881315D01*
X141008467Y-88895389D01*
X141094214Y-88981136D01*
X141094218Y-88981139D01*
X141258079Y-89090628D01*
X141258092Y-89090635D01*
X141440160Y-89166049D01*
X141440165Y-89166051D01*
X141440169Y-89166051D01*
X141440170Y-89166052D01*
X141633456Y-89204500D01*
X141633459Y-89204500D01*
X141830543Y-89204500D01*
X141983506Y-89174073D01*
X142023835Y-89166051D01*
X142205914Y-89090632D01*
X142369782Y-88981139D01*
X142393674Y-88957246D01*
X142454995Y-88923762D01*
X142524686Y-88928745D01*
X142580621Y-88970616D01*
X142585662Y-88977876D01*
X142594134Y-88991056D01*
X142599092Y-89006016D01*
X142689660Y-89152850D01*
X142713403Y-89176593D01*
X142720608Y-89187801D01*
X142726851Y-89209053D01*
X142737467Y-89228495D01*
X142736506Y-89241922D01*
X142740301Y-89254838D01*
X142734063Y-89276091D01*
X142732483Y-89298187D01*
X142723454Y-89312235D01*
X142720624Y-89321880D01*
X142713023Y-89328467D01*
X142703985Y-89342532D01*
X142690052Y-89356465D01*
X142599551Y-89503188D01*
X142599546Y-89503199D01*
X142545319Y-89666847D01*
X142535000Y-89767845D01*
X142535000Y-89867000D01*
X143386000Y-89867000D01*
X143453039Y-89886685D01*
X143498794Y-89939489D01*
X143510000Y-89991000D01*
X143510000Y-90117000D01*
X143636000Y-90117000D01*
X143703039Y-90136685D01*
X143748794Y-90189489D01*
X143760000Y-90241000D01*
X143760000Y-91154499D01*
X143796640Y-91154499D01*
X143796654Y-91154498D01*
X143897652Y-91144180D01*
X144061300Y-91089953D01*
X144061311Y-91089948D01*
X144208034Y-90999447D01*
X144208038Y-90999444D01*
X144329943Y-90877539D01*
X144393347Y-90774746D01*
X144445295Y-90728022D01*
X144514258Y-90716799D01*
X144578340Y-90744643D01*
X144604423Y-90774744D01*
X144662160Y-90868350D01*
X144784150Y-90990340D01*
X144835597Y-91022072D01*
X144882321Y-91074017D01*
X144894500Y-91127610D01*
X144894500Y-91477500D01*
X144874815Y-91544539D01*
X144822011Y-91590294D01*
X144770500Y-91601500D01*
X139779057Y-91601500D01*
X139620943Y-91601500D01*
X139468215Y-91642423D01*
X139468214Y-91642423D01*
X139468212Y-91642424D01*
X139468209Y-91642425D01*
X139418096Y-91671359D01*
X139418095Y-91671360D01*
X139374689Y-91696420D01*
X139331285Y-91721479D01*
X139331282Y-91721481D01*
X138656479Y-92396284D01*
X138656477Y-92396287D01*
X138606359Y-92483096D01*
X138606357Y-92483098D01*
X138577423Y-92533211D01*
X138577422Y-92533212D01*
X138577421Y-92533217D01*
X138536497Y-92685945D01*
X138536497Y-92685947D01*
X138536497Y-92766130D01*
X138516812Y-92833169D01*
X138464008Y-92878924D01*
X138399241Y-92889419D01*
X138342346Y-92883301D01*
X138227002Y-92883301D01*
X138227002Y-93526001D01*
X138207317Y-93593040D01*
X138154513Y-93638795D01*
X138122124Y-93648518D01*
X137911960Y-93681319D01*
X137909565Y-93681004D01*
X137892838Y-93682802D01*
X137611632Y-93682802D01*
X137611625Y-93682803D01*
X137552018Y-93689210D01*
X137417173Y-93739504D01*
X137417166Y-93739508D01*
X137301959Y-93825753D01*
X137301952Y-93825759D01*
X137283572Y-93850313D01*
X137227638Y-93892183D01*
X137184306Y-93900001D01*
X137159502Y-93900001D01*
X137159502Y-93964545D01*
X137166733Y-94031788D01*
X137165033Y-94031970D01*
X137165034Y-94067977D01*
X137166240Y-94068107D01*
X137159003Y-94135419D01*
X137159002Y-94135438D01*
X137159002Y-94764572D01*
X137159003Y-94764576D01*
X137166240Y-94831896D01*
X137165773Y-94831946D01*
X137167990Y-94855136D01*
X137167348Y-94870623D01*
X137165411Y-94875817D01*
X137159002Y-94935427D01*
X137159002Y-95071981D01*
X137158896Y-95074539D01*
X137148460Y-95105302D01*
X137139317Y-95136443D01*
X137137307Y-95138184D01*
X137136452Y-95140706D01*
X137111038Y-95160946D01*
X137086513Y-95182198D01*
X137083880Y-95182576D01*
X137081798Y-95184235D01*
X137049487Y-95187521D01*
X137017355Y-95192142D01*
X137014934Y-95191036D01*
X137012287Y-95191306D01*
X136983331Y-95176604D01*
X136953799Y-95163117D01*
X136950237Y-95159800D01*
X136949988Y-95159674D01*
X136949851Y-95159441D01*
X136947321Y-95157085D01*
X135885818Y-94095582D01*
X135852333Y-94034259D01*
X135849499Y-94007901D01*
X135849499Y-93633830D01*
X135849498Y-93633813D01*
X135839174Y-93532747D01*
X135835632Y-93522057D01*
X135784908Y-93368984D01*
X135764228Y-93335456D01*
X137159502Y-93335456D01*
X137159502Y-93400001D01*
X137727002Y-93400001D01*
X137727002Y-92883301D01*
X137611657Y-92883301D01*
X137552129Y-92889702D01*
X137552122Y-92889704D01*
X137417415Y-92939946D01*
X137417408Y-92939950D01*
X137302314Y-93026110D01*
X137302311Y-93026113D01*
X137216151Y-93141207D01*
X137216147Y-93141214D01*
X137165905Y-93275921D01*
X137165903Y-93275928D01*
X137159502Y-93335456D01*
X135764228Y-93335456D01*
X135694340Y-93222150D01*
X135572350Y-93100160D01*
X135452296Y-93026110D01*
X135425518Y-93009593D01*
X135425513Y-93009591D01*
X135349911Y-92984539D01*
X135261753Y-92955326D01*
X135261751Y-92955325D01*
X135160678Y-92945000D01*
X134587330Y-92945000D01*
X134587312Y-92945001D01*
X134486247Y-92955325D01*
X134322484Y-93009592D01*
X134322481Y-93009593D01*
X134175648Y-93100161D01*
X134053661Y-93222148D01*
X133963093Y-93368981D01*
X133963091Y-93368986D01*
X133962372Y-93371157D01*
X133908826Y-93532747D01*
X133908826Y-93532748D01*
X133908825Y-93532748D01*
X133898500Y-93633815D01*
X133898500Y-94232169D01*
X133898501Y-94232187D01*
X133908825Y-94333252D01*
X133934520Y-94410792D01*
X133963092Y-94497016D01*
X134042498Y-94625754D01*
X134053661Y-94643851D01*
X134167629Y-94757819D01*
X134201114Y-94819142D01*
X134196130Y-94888834D01*
X134167629Y-94933181D01*
X134053661Y-95047148D01*
X133963093Y-95193981D01*
X133963092Y-95193984D01*
X133908826Y-95357747D01*
X133908826Y-95357748D01*
X133908825Y-95357748D01*
X133898500Y-95458815D01*
X133898500Y-95841507D01*
X133894350Y-95856994D01*
X133895005Y-95870741D01*
X133881887Y-95903506D01*
X133850151Y-95958475D01*
X133850151Y-95958476D01*
X133806423Y-96034215D01*
X133765499Y-96186943D01*
X133765499Y-96186945D01*
X133765499Y-96355046D01*
X133765500Y-96355059D01*
X133765500Y-98233646D01*
X133745815Y-98300685D01*
X133729181Y-98321327D01*
X133729052Y-98321455D01*
X133642806Y-98436664D01*
X133642802Y-98436671D01*
X133592508Y-98571517D01*
X133586562Y-98626827D01*
X133586101Y-98631123D01*
X133586100Y-98631135D01*
X133586100Y-99996870D01*
X133586101Y-99996876D01*
X133592508Y-100056483D01*
X133642802Y-100191328D01*
X133643545Y-100192688D01*
X133643874Y-100194201D01*
X133645903Y-100199641D01*
X133645120Y-100199932D01*
X133658397Y-100260961D01*
X133633981Y-100326426D01*
X133578047Y-100368297D01*
X133508356Y-100373282D01*
X133447034Y-100339799D01*
X132581649Y-99474414D01*
X132548164Y-99413091D01*
X132545972Y-99374130D01*
X132547500Y-99359177D01*
X132547499Y-98760824D01*
X132537174Y-98659747D01*
X132482908Y-98495984D01*
X132392340Y-98349150D01*
X132270350Y-98227160D01*
X132159385Y-98158716D01*
X132123518Y-98136593D01*
X132123513Y-98136591D01*
X132122069Y-98136112D01*
X131959753Y-98082326D01*
X131959751Y-98082325D01*
X131858684Y-98072000D01*
X131613454Y-98072000D01*
X131610524Y-98071139D01*
X131607557Y-98071860D01*
X131577209Y-98061357D01*
X131546415Y-98052315D01*
X131544416Y-98050008D01*
X131541529Y-98049009D01*
X131521671Y-98023759D01*
X131500660Y-97999511D01*
X131500225Y-97996490D01*
X131498337Y-97994089D01*
X131495283Y-97962119D01*
X131490716Y-97930353D01*
X131491984Y-97927575D01*
X131491694Y-97924536D01*
X131506404Y-97896000D01*
X131519741Y-97866797D01*
X131522731Y-97864327D01*
X131523709Y-97862432D01*
X131551445Y-97840618D01*
X131599904Y-97812639D01*
X131686716Y-97762520D01*
X131798520Y-97650716D01*
X131798520Y-97650714D01*
X131808728Y-97640507D01*
X131808730Y-97640504D01*
X132406506Y-97042728D01*
X132406511Y-97042724D01*
X132416714Y-97032520D01*
X132416716Y-97032520D01*
X132528520Y-96920716D01*
X132588284Y-96817201D01*
X132607577Y-96783785D01*
X132648501Y-96631057D01*
X132648501Y-96472943D01*
X132648501Y-96465348D01*
X132648500Y-96465330D01*
X132648500Y-96413497D01*
X132668185Y-96346458D01*
X132688003Y-96322742D01*
X132748671Y-96266261D01*
X132748671Y-96266260D01*
X132748673Y-96266259D01*
X132822089Y-96142525D01*
X132822091Y-96142521D01*
X132825019Y-96135452D01*
X132843024Y-96084416D01*
X132863500Y-95942000D01*
X132863500Y-95531484D01*
X132883185Y-95464445D01*
X132928075Y-95422651D01*
X132943364Y-95414303D01*
X133048671Y-95316261D01*
X133048672Y-95316259D01*
X133048673Y-95316259D01*
X133122089Y-95192525D01*
X133122706Y-95191036D01*
X133125019Y-95185452D01*
X133143024Y-95134416D01*
X133163500Y-94992000D01*
X133163500Y-94492000D01*
X133160603Y-94437959D01*
X133125019Y-94298548D01*
X133122090Y-94291477D01*
X133089717Y-94232190D01*
X133070304Y-94196637D01*
X132972264Y-94091332D01*
X132972263Y-94091331D01*
X132972261Y-94091329D01*
X132972258Y-94091327D01*
X132924224Y-94062826D01*
X132876615Y-94011688D01*
X132863500Y-93956186D01*
X132863500Y-93589096D01*
X132883185Y-93522057D01*
X132899819Y-93501415D01*
X133816416Y-92584819D01*
X133877739Y-92551334D01*
X133904097Y-92548500D01*
X134445055Y-92548500D01*
X134445057Y-92548500D01*
X134597784Y-92507577D01*
X134734716Y-92428520D01*
X134846520Y-92316716D01*
X134925577Y-92179784D01*
X134966500Y-92027057D01*
X134966500Y-91222506D01*
X134986185Y-91155467D01*
X135038989Y-91109712D01*
X135108147Y-91099768D01*
X135129504Y-91104800D01*
X135248347Y-91144180D01*
X135349352Y-91154499D01*
X135386000Y-91154499D01*
X135886000Y-91154499D01*
X135922640Y-91154499D01*
X135922654Y-91154498D01*
X136023652Y-91144180D01*
X136187300Y-91089953D01*
X136187311Y-91089948D01*
X136334034Y-90999447D01*
X136334038Y-90999444D01*
X136455944Y-90877538D01*
X136455947Y-90877534D01*
X136546448Y-90730811D01*
X136546453Y-90730800D01*
X136600680Y-90567152D01*
X136610999Y-90466154D01*
X136611000Y-90466141D01*
X136611000Y-90367000D01*
X135886000Y-90367000D01*
X135886000Y-91154499D01*
X135386000Y-91154499D01*
X135386000Y-90354001D01*
X138640704Y-90354001D01*
X138640899Y-90356486D01*
X138686718Y-90514198D01*
X138770314Y-90655552D01*
X138770321Y-90655561D01*
X138886438Y-90771678D01*
X138886447Y-90771685D01*
X139027803Y-90855282D01*
X139027806Y-90855283D01*
X139185504Y-90901099D01*
X139185510Y-90901100D01*
X139222350Y-90903999D01*
X139222366Y-90904000D01*
X139625500Y-90904000D01*
X140125500Y-90904000D01*
X140528634Y-90904000D01*
X140528649Y-90903999D01*
X140565489Y-90901100D01*
X140565495Y-90901099D01*
X140723193Y-90855283D01*
X140723196Y-90855282D01*
X140864552Y-90771685D01*
X140864561Y-90771678D01*
X140980678Y-90655561D01*
X140980685Y-90655552D01*
X141064281Y-90514198D01*
X141078239Y-90466154D01*
X142535001Y-90466154D01*
X142545319Y-90567152D01*
X142599546Y-90730800D01*
X142599551Y-90730811D01*
X142690052Y-90877534D01*
X142690055Y-90877538D01*
X142811961Y-90999444D01*
X142811965Y-90999447D01*
X142958688Y-91089948D01*
X142958699Y-91089953D01*
X143122347Y-91144180D01*
X143223352Y-91154499D01*
X143260000Y-91154499D01*
X143260000Y-90367000D01*
X142535001Y-90367000D01*
X142535001Y-90466154D01*
X141078239Y-90466154D01*
X141110100Y-90356486D01*
X141110295Y-90354001D01*
X141110295Y-90354000D01*
X140125500Y-90354000D01*
X140125500Y-90904000D01*
X139625500Y-90904000D01*
X139625500Y-90354000D01*
X138640705Y-90354000D01*
X138640704Y-90354001D01*
X135386000Y-90354001D01*
X135386000Y-90241000D01*
X135405685Y-90173961D01*
X135458489Y-90128206D01*
X135510000Y-90117000D01*
X135636000Y-90117000D01*
X135636000Y-89991000D01*
X135655685Y-89923961D01*
X135708489Y-89878206D01*
X135760000Y-89867000D01*
X136610999Y-89867000D01*
X136610999Y-89767860D01*
X136610998Y-89767845D01*
X136601455Y-89674428D01*
X136614225Y-89605735D01*
X136662105Y-89554851D01*
X136729895Y-89537930D01*
X136796071Y-89560346D01*
X136831545Y-89598705D01*
X136894917Y-89705862D01*
X136894923Y-89705870D01*
X137011129Y-89822076D01*
X137011133Y-89822079D01*
X137011135Y-89822081D01*
X137152602Y-89905744D01*
X137194224Y-89917836D01*
X137310426Y-89951597D01*
X137310429Y-89951597D01*
X137310431Y-89951598D01*
X137347306Y-89954500D01*
X137347314Y-89954500D01*
X138653686Y-89954500D01*
X138653694Y-89954500D01*
X138690569Y-89951598D01*
X138690571Y-89951597D01*
X138690573Y-89951597D01*
X138785695Y-89923961D01*
X138848398Y-89905744D01*
X138906694Y-89871268D01*
X138969815Y-89854000D01*
X139625500Y-89854000D01*
X140125500Y-89854000D01*
X141110295Y-89854000D01*
X141110295Y-89853998D01*
X141110100Y-89851513D01*
X141064281Y-89693801D01*
X140980685Y-89552447D01*
X140980678Y-89552438D01*
X140864561Y-89436321D01*
X140864552Y-89436314D01*
X140723196Y-89352717D01*
X140723193Y-89352716D01*
X140565495Y-89306900D01*
X140565489Y-89306899D01*
X140528649Y-89304000D01*
X140125500Y-89304000D01*
X140125500Y-89854000D01*
X139625500Y-89854000D01*
X139625500Y-89304000D01*
X139362500Y-89304000D01*
X139353814Y-89301449D01*
X139344853Y-89302738D01*
X139320812Y-89291759D01*
X139295461Y-89284315D01*
X139289533Y-89277474D01*
X139281297Y-89273713D01*
X139267007Y-89251478D01*
X139249706Y-89231511D01*
X139247418Y-89220996D01*
X139243523Y-89214935D01*
X139238500Y-89180000D01*
X139238500Y-89128500D01*
X139258185Y-89061461D01*
X139310989Y-89015706D01*
X139362500Y-89004500D01*
X140528686Y-89004500D01*
X140528694Y-89004500D01*
X140565569Y-89001598D01*
X140565571Y-89001597D01*
X140565573Y-89001597D01*
X140607909Y-88989297D01*
X140723398Y-88955744D01*
X140857668Y-88876337D01*
X140885266Y-88869334D01*
X140911940Y-88859386D01*
X140918690Y-88860854D01*
X140925388Y-88859155D01*
X140952392Y-88868185D01*
G37*
%TD.AperFunction*%
%TA.AperFunction,Conductor*%
G36*
X142924034Y-92822185D02*
G01*
X142969789Y-92874989D01*
X142979733Y-92944147D01*
X142950708Y-93007703D01*
X142922092Y-93032038D01*
X142897875Y-93046976D01*
X142811648Y-93100161D01*
X142689661Y-93222148D01*
X142599093Y-93368981D01*
X142599091Y-93368986D01*
X142598372Y-93371157D01*
X142544826Y-93532747D01*
X142544826Y-93532748D01*
X142544825Y-93532748D01*
X142534500Y-93633815D01*
X142534500Y-94232169D01*
X142534502Y-94232190D01*
X142540384Y-94289775D01*
X142527614Y-94358467D01*
X142504707Y-94390056D01*
X142281582Y-94613182D01*
X142220262Y-94646666D01*
X142193903Y-94649500D01*
X139940039Y-94649500D01*
X139918793Y-94643261D01*
X139896705Y-94641682D01*
X139877267Y-94631068D01*
X139873000Y-94629815D01*
X139865728Y-94624767D01*
X139764873Y-94549267D01*
X139723002Y-94493333D01*
X139718018Y-94423641D01*
X139751503Y-94362318D01*
X139764866Y-94350738D01*
X139867046Y-94274247D01*
X139867049Y-94274243D01*
X139885430Y-94249690D01*
X139941364Y-94207820D01*
X139984696Y-94200002D01*
X140009500Y-94200002D01*
X140009500Y-94135474D01*
X140009499Y-94135457D01*
X140002269Y-94068215D01*
X140003973Y-94068031D01*
X140003973Y-94032027D01*
X140002761Y-94031897D01*
X140003589Y-94024187D01*
X140003591Y-94024184D01*
X140010000Y-93964574D01*
X140009999Y-93335429D01*
X140003591Y-93275818D01*
X139983573Y-93222148D01*
X139953297Y-93140972D01*
X139953295Y-93140969D01*
X139950296Y-93136963D01*
X139870830Y-93030810D01*
X139870830Y-93030809D01*
X139870829Y-93030809D01*
X139860073Y-93001971D01*
X139846413Y-92965347D01*
X139846413Y-92965344D01*
X139854534Y-92928013D01*
X139861264Y-92897074D01*
X139865446Y-92891488D01*
X139882415Y-92868819D01*
X139912418Y-92838817D01*
X139973742Y-92805333D01*
X140000098Y-92802500D01*
X142856995Y-92802500D01*
X142924034Y-92822185D01*
G37*
%TD.AperFunction*%
%TD*%
M02*
