%TF.GenerationSoftware,KiCad,Pcbnew,9.0.6*%
%TF.CreationDate,2026-02-23T14:31:15-08:00*%
%TF.ProjectId,Sensing,53656e73-696e-4672-9e6b-696361645f70,rev?*%
%TF.SameCoordinates,Original*%
%TF.FileFunction,Soldermask,Top*%
%TF.FilePolarity,Negative*%
%FSLAX46Y46*%
G04 Gerber Fmt 4.6, Leading zero omitted, Abs format (unit mm)*
G04 Created by KiCad (PCBNEW 9.0.6) date 2026-02-23 14:31:15*
%MOMM*%
%LPD*%
G01*
G04 APERTURE LIST*
G04 Aperture macros list*
%AMRoundRect*
0 Rectangle with rounded corners*
0 $1 Rounding radius*
0 $2 $3 $4 $5 $6 $7 $8 $9 X,Y pos of 4 corners*
0 Add a 4 corners polygon primitive as box body*
4,1,4,$2,$3,$4,$5,$6,$7,$8,$9,$2,$3,0*
0 Add four circle primitives for the rounded corners*
1,1,$1+$1,$2,$3*
1,1,$1+$1,$4,$5*
1,1,$1+$1,$6,$7*
1,1,$1+$1,$8,$9*
0 Add four rect primitives between the rounded corners*
20,1,$1+$1,$2,$3,$4,$5,0*
20,1,$1+$1,$4,$5,$6,$7,0*
20,1,$1+$1,$6,$7,$8,$9,0*
20,1,$1+$1,$8,$9,$2,$3,0*%
G04 Aperture macros list end*
%ADD10C,0.010000*%
%ADD11RoundRect,0.237500X0.237500X-0.250000X0.237500X0.250000X-0.237500X0.250000X-0.237500X-0.250000X0*%
%ADD12RoundRect,0.102000X0.800000X1.200000X-0.800000X1.200000X-0.800000X-1.200000X0.800000X-1.200000X0*%
%ADD13R,0.558800X1.270000*%
%ADD14R,1.700000X1.700000*%
%ADD15C,1.700000*%
%ADD16RoundRect,0.102000X-0.800000X-1.200000X0.800000X-1.200000X0.800000X1.200000X-0.800000X1.200000X0*%
%ADD17RoundRect,0.150000X0.587500X0.150000X-0.587500X0.150000X-0.587500X-0.150000X0.587500X-0.150000X0*%
%ADD18RoundRect,0.237500X-0.250000X-0.237500X0.250000X-0.237500X0.250000X0.237500X-0.250000X0.237500X0*%
%ADD19RoundRect,0.237500X0.237500X-0.300000X0.237500X0.300000X-0.237500X0.300000X-0.237500X-0.300000X0*%
%ADD20RoundRect,0.237500X-0.237500X0.300000X-0.237500X-0.300000X0.237500X-0.300000X0.237500X0.300000X0*%
%ADD21R,0.635000X0.533400*%
%ADD22RoundRect,0.237500X0.250000X0.237500X-0.250000X0.237500X-0.250000X-0.237500X0.250000X-0.237500X0*%
G04 APERTURE END LIST*
D10*
%TO.C,D1*%
X146704000Y-96042000D02*
X145904000Y-96042000D01*
X145904000Y-95092000D01*
X145604000Y-95092000D01*
X145604000Y-94392000D01*
X145904000Y-94392000D01*
X145904000Y-93442000D01*
X146704000Y-93442000D01*
X146704000Y-96042000D01*
G36*
X146704000Y-96042000D02*
G01*
X145904000Y-96042000D01*
X145904000Y-95092000D01*
X145604000Y-95092000D01*
X145604000Y-94392000D01*
X145904000Y-94392000D01*
X145904000Y-93442000D01*
X146704000Y-93442000D01*
X146704000Y-96042000D01*
G37*
%TO.C,D2*%
X132448000Y-94392000D02*
X132748000Y-94392000D01*
X132748000Y-95092000D01*
X132448000Y-95092000D01*
X132448000Y-96042000D01*
X131648000Y-96042000D01*
X131648000Y-93442000D01*
X132448000Y-93442000D01*
X132448000Y-94392000D01*
G36*
X132448000Y-94392000D02*
G01*
X132748000Y-94392000D01*
X132748000Y-95092000D01*
X132448000Y-95092000D01*
X132448000Y-96042000D01*
X131648000Y-96042000D01*
X131648000Y-93442000D01*
X132448000Y-93442000D01*
X132448000Y-94392000D01*
G37*
%TD*%
D11*
%TO.C,R7*%
X143510000Y-95758000D03*
X143510000Y-93933000D03*
%TD*%
D12*
%TO.C,D1*%
X148104000Y-94742000D03*
%TD*%
D11*
%TO.C,R5*%
X134874000Y-95758000D03*
X134874000Y-93933000D03*
%TD*%
D13*
%TO.C,Q2*%
X142303500Y-101142800D03*
X144208500Y-101142800D03*
X143256000Y-99060000D03*
%TD*%
D11*
%TO.C,R8*%
X146812000Y-100885000D03*
X146812000Y-99060000D03*
%TD*%
D14*
%TO.C,J1*%
X143002000Y-104394000D03*
D15*
X140462000Y-104394000D03*
X137922000Y-104394000D03*
X135382000Y-104394000D03*
%TD*%
D13*
%TO.C,Q1*%
X136271000Y-99314000D03*
X134366000Y-99314000D03*
X135318500Y-101396800D03*
%TD*%
D16*
%TO.C,D2*%
X130248000Y-94742000D03*
%TD*%
D17*
%TO.C,U3*%
X139875500Y-90104000D03*
X139875500Y-88204000D03*
X138000500Y-89154000D03*
%TD*%
D18*
%TO.C,R1*%
X145495000Y-90170000D03*
X147320000Y-90170000D03*
%TD*%
D19*
%TO.C,C1*%
X139192000Y-100838000D03*
X139192000Y-99113000D03*
%TD*%
D20*
%TO.C,C2*%
X143510000Y-88392000D03*
X143510000Y-90117000D03*
%TD*%
D11*
%TO.C,R6*%
X131572000Y-100885000D03*
X131572000Y-99060000D03*
%TD*%
D20*
%TO.C,C3*%
X135636000Y-88392000D03*
X135636000Y-90117000D03*
%TD*%
D21*
%TO.C,U1*%
X139192000Y-96050001D03*
X139192000Y-95250000D03*
X139192000Y-94450002D03*
X139192000Y-93650001D03*
X137977002Y-93650001D03*
X137977002Y-94450002D03*
X137977002Y-95250000D03*
X137977002Y-96050001D03*
%TD*%
D22*
%TO.C,R2*%
X132889000Y-90170000D03*
X131064000Y-90170000D03*
%TD*%
M02*
