%TF.GenerationSoftware,KiCad,Pcbnew,9.0.6*%
%TF.CreationDate,2026-02-23T14:31:15-08:00*%
%TF.ProjectId,Sensing,53656e73-696e-4672-9e6b-696361645f70,rev?*%
%TF.SameCoordinates,Original*%
%TF.FileFunction,Legend,Top*%
%TF.FilePolarity,Positive*%
%FSLAX46Y46*%
G04 Gerber Fmt 4.6, Leading zero omitted, Abs format (unit mm)*
G04 Created by KiCad (PCBNEW 9.0.6) date 2026-02-23 14:31:15*
%MOMM*%
%LPD*%
G01*
G04 APERTURE LIST*
%ADD10C,0.150000*%
%ADD11C,0.120000*%
%ADD12C,0.127000*%
%ADD13C,0.200000*%
%ADD14C,0.152400*%
G04 APERTURE END LIST*
D10*
X142534819Y-95012166D02*
X142058628Y-95345499D01*
X142534819Y-95583594D02*
X141534819Y-95583594D01*
X141534819Y-95583594D02*
X141534819Y-95202642D01*
X141534819Y-95202642D02*
X141582438Y-95107404D01*
X141582438Y-95107404D02*
X141630057Y-95059785D01*
X141630057Y-95059785D02*
X141725295Y-95012166D01*
X141725295Y-95012166D02*
X141868152Y-95012166D01*
X141868152Y-95012166D02*
X141963390Y-95059785D01*
X141963390Y-95059785D02*
X142011009Y-95107404D01*
X142011009Y-95107404D02*
X142058628Y-95202642D01*
X142058628Y-95202642D02*
X142058628Y-95583594D01*
X141534819Y-94678832D02*
X141534819Y-94012166D01*
X141534819Y-94012166D02*
X142534819Y-94440737D01*
X146649618Y-97386676D02*
X146649618Y-96746676D01*
X146649618Y-96746676D02*
X146801999Y-96746676D01*
X146801999Y-96746676D02*
X146893428Y-96777152D01*
X146893428Y-96777152D02*
X146954380Y-96838104D01*
X146954380Y-96838104D02*
X146984857Y-96899057D01*
X146984857Y-96899057D02*
X147015333Y-97020961D01*
X147015333Y-97020961D02*
X147015333Y-97112390D01*
X147015333Y-97112390D02*
X146984857Y-97234295D01*
X146984857Y-97234295D02*
X146954380Y-97295247D01*
X146954380Y-97295247D02*
X146893428Y-97356200D01*
X146893428Y-97356200D02*
X146801999Y-97386676D01*
X146801999Y-97386676D02*
X146649618Y-97386676D01*
X147624857Y-97386676D02*
X147259142Y-97386676D01*
X147441999Y-97386676D02*
X147441999Y-96746676D01*
X147441999Y-96746676D02*
X147381047Y-96838104D01*
X147381047Y-96838104D02*
X147320095Y-96899057D01*
X147320095Y-96899057D02*
X147259142Y-96929533D01*
X133898819Y-95012166D02*
X133422628Y-95345499D01*
X133898819Y-95583594D02*
X132898819Y-95583594D01*
X132898819Y-95583594D02*
X132898819Y-95202642D01*
X132898819Y-95202642D02*
X132946438Y-95107404D01*
X132946438Y-95107404D02*
X132994057Y-95059785D01*
X132994057Y-95059785D02*
X133089295Y-95012166D01*
X133089295Y-95012166D02*
X133232152Y-95012166D01*
X133232152Y-95012166D02*
X133327390Y-95059785D01*
X133327390Y-95059785D02*
X133375009Y-95107404D01*
X133375009Y-95107404D02*
X133422628Y-95202642D01*
X133422628Y-95202642D02*
X133422628Y-95583594D01*
X132898819Y-94107404D02*
X132898819Y-94583594D01*
X132898819Y-94583594D02*
X133375009Y-94631213D01*
X133375009Y-94631213D02*
X133327390Y-94583594D01*
X133327390Y-94583594D02*
X133279771Y-94488356D01*
X133279771Y-94488356D02*
X133279771Y-94250261D01*
X133279771Y-94250261D02*
X133327390Y-94155023D01*
X133327390Y-94155023D02*
X133375009Y-94107404D01*
X133375009Y-94107404D02*
X133470247Y-94059785D01*
X133470247Y-94059785D02*
X133708342Y-94059785D01*
X133708342Y-94059785D02*
X133803580Y-94107404D01*
X133803580Y-94107404D02*
X133851200Y-94155023D01*
X133851200Y-94155023D02*
X133898819Y-94250261D01*
X133898819Y-94250261D02*
X133898819Y-94488356D01*
X133898819Y-94488356D02*
X133851200Y-94583594D01*
X133851200Y-94583594D02*
X133803580Y-94631213D01*
X143160761Y-100651457D02*
X143065523Y-100603838D01*
X143065523Y-100603838D02*
X142970285Y-100508600D01*
X142970285Y-100508600D02*
X142827428Y-100365742D01*
X142827428Y-100365742D02*
X142732190Y-100318123D01*
X142732190Y-100318123D02*
X142636952Y-100318123D01*
X142684571Y-100556219D02*
X142589333Y-100508600D01*
X142589333Y-100508600D02*
X142494095Y-100413361D01*
X142494095Y-100413361D02*
X142446476Y-100222885D01*
X142446476Y-100222885D02*
X142446476Y-99889552D01*
X142446476Y-99889552D02*
X142494095Y-99699076D01*
X142494095Y-99699076D02*
X142589333Y-99603838D01*
X142589333Y-99603838D02*
X142684571Y-99556219D01*
X142684571Y-99556219D02*
X142875047Y-99556219D01*
X142875047Y-99556219D02*
X142970285Y-99603838D01*
X142970285Y-99603838D02*
X143065523Y-99699076D01*
X143065523Y-99699076D02*
X143113142Y-99889552D01*
X143113142Y-99889552D02*
X143113142Y-100222885D01*
X143113142Y-100222885D02*
X143065523Y-100413361D01*
X143065523Y-100413361D02*
X142970285Y-100508600D01*
X142970285Y-100508600D02*
X142875047Y-100556219D01*
X142875047Y-100556219D02*
X142684571Y-100556219D01*
X143494095Y-99651457D02*
X143541714Y-99603838D01*
X143541714Y-99603838D02*
X143636952Y-99556219D01*
X143636952Y-99556219D02*
X143875047Y-99556219D01*
X143875047Y-99556219D02*
X143970285Y-99603838D01*
X143970285Y-99603838D02*
X144017904Y-99651457D01*
X144017904Y-99651457D02*
X144065523Y-99746695D01*
X144065523Y-99746695D02*
X144065523Y-99841933D01*
X144065523Y-99841933D02*
X144017904Y-99984790D01*
X144017904Y-99984790D02*
X143446476Y-100556219D01*
X143446476Y-100556219D02*
X144065523Y-100556219D01*
X145836819Y-100139166D02*
X145360628Y-100472499D01*
X145836819Y-100710594D02*
X144836819Y-100710594D01*
X144836819Y-100710594D02*
X144836819Y-100329642D01*
X144836819Y-100329642D02*
X144884438Y-100234404D01*
X144884438Y-100234404D02*
X144932057Y-100186785D01*
X144932057Y-100186785D02*
X145027295Y-100139166D01*
X145027295Y-100139166D02*
X145170152Y-100139166D01*
X145170152Y-100139166D02*
X145265390Y-100186785D01*
X145265390Y-100186785D02*
X145313009Y-100234404D01*
X145313009Y-100234404D02*
X145360628Y-100329642D01*
X145360628Y-100329642D02*
X145360628Y-100710594D01*
X145265390Y-99567737D02*
X145217771Y-99662975D01*
X145217771Y-99662975D02*
X145170152Y-99710594D01*
X145170152Y-99710594D02*
X145074914Y-99758213D01*
X145074914Y-99758213D02*
X145027295Y-99758213D01*
X145027295Y-99758213D02*
X144932057Y-99710594D01*
X144932057Y-99710594D02*
X144884438Y-99662975D01*
X144884438Y-99662975D02*
X144836819Y-99567737D01*
X144836819Y-99567737D02*
X144836819Y-99377261D01*
X144836819Y-99377261D02*
X144884438Y-99282023D01*
X144884438Y-99282023D02*
X144932057Y-99234404D01*
X144932057Y-99234404D02*
X145027295Y-99186785D01*
X145027295Y-99186785D02*
X145074914Y-99186785D01*
X145074914Y-99186785D02*
X145170152Y-99234404D01*
X145170152Y-99234404D02*
X145217771Y-99282023D01*
X145217771Y-99282023D02*
X145265390Y-99377261D01*
X145265390Y-99377261D02*
X145265390Y-99567737D01*
X145265390Y-99567737D02*
X145313009Y-99662975D01*
X145313009Y-99662975D02*
X145360628Y-99710594D01*
X145360628Y-99710594D02*
X145455866Y-99758213D01*
X145455866Y-99758213D02*
X145646342Y-99758213D01*
X145646342Y-99758213D02*
X145741580Y-99710594D01*
X145741580Y-99710594D02*
X145789200Y-99662975D01*
X145789200Y-99662975D02*
X145836819Y-99567737D01*
X145836819Y-99567737D02*
X145836819Y-99377261D01*
X145836819Y-99377261D02*
X145789200Y-99282023D01*
X145789200Y-99282023D02*
X145741580Y-99234404D01*
X145741580Y-99234404D02*
X145646342Y-99186785D01*
X145646342Y-99186785D02*
X145455866Y-99186785D01*
X145455866Y-99186785D02*
X145360628Y-99234404D01*
X145360628Y-99234404D02*
X145313009Y-99282023D01*
X145313009Y-99282023D02*
X145265390Y-99377261D01*
X145226819Y-104727333D02*
X145941104Y-104727333D01*
X145941104Y-104727333D02*
X146083961Y-104774952D01*
X146083961Y-104774952D02*
X146179200Y-104870190D01*
X146179200Y-104870190D02*
X146226819Y-105013047D01*
X146226819Y-105013047D02*
X146226819Y-105108285D01*
X146226819Y-103727333D02*
X146226819Y-104298761D01*
X146226819Y-104013047D02*
X145226819Y-104013047D01*
X145226819Y-104013047D02*
X145369676Y-104108285D01*
X145369676Y-104108285D02*
X145464914Y-104203523D01*
X145464914Y-104203523D02*
X145512533Y-104298761D01*
X135413738Y-99805342D02*
X135508976Y-99852961D01*
X135508976Y-99852961D02*
X135604214Y-99948200D01*
X135604214Y-99948200D02*
X135747071Y-100091057D01*
X135747071Y-100091057D02*
X135842309Y-100138676D01*
X135842309Y-100138676D02*
X135937547Y-100138676D01*
X135889928Y-99900580D02*
X135985166Y-99948200D01*
X135985166Y-99948200D02*
X136080404Y-100043438D01*
X136080404Y-100043438D02*
X136128023Y-100233914D01*
X136128023Y-100233914D02*
X136128023Y-100567247D01*
X136128023Y-100567247D02*
X136080404Y-100757723D01*
X136080404Y-100757723D02*
X135985166Y-100852961D01*
X135985166Y-100852961D02*
X135889928Y-100900580D01*
X135889928Y-100900580D02*
X135699452Y-100900580D01*
X135699452Y-100900580D02*
X135604214Y-100852961D01*
X135604214Y-100852961D02*
X135508976Y-100757723D01*
X135508976Y-100757723D02*
X135461357Y-100567247D01*
X135461357Y-100567247D02*
X135461357Y-100233914D01*
X135461357Y-100233914D02*
X135508976Y-100043438D01*
X135508976Y-100043438D02*
X135604214Y-99948200D01*
X135604214Y-99948200D02*
X135699452Y-99900580D01*
X135699452Y-99900580D02*
X135889928Y-99900580D01*
X134508976Y-99900580D02*
X135080404Y-99900580D01*
X134794690Y-99900580D02*
X134794690Y-100900580D01*
X134794690Y-100900580D02*
X134889928Y-100757723D01*
X134889928Y-100757723D02*
X134985166Y-100662485D01*
X134985166Y-100662485D02*
X135080404Y-100614866D01*
X130757618Y-92673876D02*
X130757618Y-92033876D01*
X130757618Y-92033876D02*
X130909999Y-92033876D01*
X130909999Y-92033876D02*
X131001428Y-92064352D01*
X131001428Y-92064352D02*
X131062380Y-92125304D01*
X131062380Y-92125304D02*
X131092857Y-92186257D01*
X131092857Y-92186257D02*
X131123333Y-92308161D01*
X131123333Y-92308161D02*
X131123333Y-92399590D01*
X131123333Y-92399590D02*
X131092857Y-92521495D01*
X131092857Y-92521495D02*
X131062380Y-92582447D01*
X131062380Y-92582447D02*
X131001428Y-92643400D01*
X131001428Y-92643400D02*
X130909999Y-92673876D01*
X130909999Y-92673876D02*
X130757618Y-92673876D01*
X131367142Y-92094828D02*
X131397618Y-92064352D01*
X131397618Y-92064352D02*
X131458571Y-92033876D01*
X131458571Y-92033876D02*
X131610952Y-92033876D01*
X131610952Y-92033876D02*
X131671904Y-92064352D01*
X131671904Y-92064352D02*
X131702380Y-92094828D01*
X131702380Y-92094828D02*
X131732857Y-92155780D01*
X131732857Y-92155780D02*
X131732857Y-92216733D01*
X131732857Y-92216733D02*
X131702380Y-92308161D01*
X131702380Y-92308161D02*
X131336666Y-92673876D01*
X131336666Y-92673876D02*
X131732857Y-92673876D01*
X138176095Y-91008819D02*
X138176095Y-91818342D01*
X138176095Y-91818342D02*
X138223714Y-91913580D01*
X138223714Y-91913580D02*
X138271333Y-91961200D01*
X138271333Y-91961200D02*
X138366571Y-92008819D01*
X138366571Y-92008819D02*
X138557047Y-92008819D01*
X138557047Y-92008819D02*
X138652285Y-91961200D01*
X138652285Y-91961200D02*
X138699904Y-91913580D01*
X138699904Y-91913580D02*
X138747523Y-91818342D01*
X138747523Y-91818342D02*
X138747523Y-91008819D01*
X139128476Y-91008819D02*
X139747523Y-91008819D01*
X139747523Y-91008819D02*
X139414190Y-91389771D01*
X139414190Y-91389771D02*
X139557047Y-91389771D01*
X139557047Y-91389771D02*
X139652285Y-91437390D01*
X139652285Y-91437390D02*
X139699904Y-91485009D01*
X139699904Y-91485009D02*
X139747523Y-91580247D01*
X139747523Y-91580247D02*
X139747523Y-91818342D01*
X139747523Y-91818342D02*
X139699904Y-91913580D01*
X139699904Y-91913580D02*
X139652285Y-91961200D01*
X139652285Y-91961200D02*
X139557047Y-92008819D01*
X139557047Y-92008819D02*
X139271333Y-92008819D01*
X139271333Y-92008819D02*
X139176095Y-91961200D01*
X139176095Y-91961200D02*
X139128476Y-91913580D01*
X146240833Y-89194819D02*
X145907500Y-88718628D01*
X145669405Y-89194819D02*
X145669405Y-88194819D01*
X145669405Y-88194819D02*
X146050357Y-88194819D01*
X146050357Y-88194819D02*
X146145595Y-88242438D01*
X146145595Y-88242438D02*
X146193214Y-88290057D01*
X146193214Y-88290057D02*
X146240833Y-88385295D01*
X146240833Y-88385295D02*
X146240833Y-88528152D01*
X146240833Y-88528152D02*
X146193214Y-88623390D01*
X146193214Y-88623390D02*
X146145595Y-88671009D01*
X146145595Y-88671009D02*
X146050357Y-88718628D01*
X146050357Y-88718628D02*
X145669405Y-88718628D01*
X147193214Y-89194819D02*
X146621786Y-89194819D01*
X146907500Y-89194819D02*
X146907500Y-88194819D01*
X146907500Y-88194819D02*
X146812262Y-88337676D01*
X146812262Y-88337676D02*
X146717024Y-88432914D01*
X146717024Y-88432914D02*
X146621786Y-88480533D01*
X138121580Y-100142166D02*
X138169200Y-100189785D01*
X138169200Y-100189785D02*
X138216819Y-100332642D01*
X138216819Y-100332642D02*
X138216819Y-100427880D01*
X138216819Y-100427880D02*
X138169200Y-100570737D01*
X138169200Y-100570737D02*
X138073961Y-100665975D01*
X138073961Y-100665975D02*
X137978723Y-100713594D01*
X137978723Y-100713594D02*
X137788247Y-100761213D01*
X137788247Y-100761213D02*
X137645390Y-100761213D01*
X137645390Y-100761213D02*
X137454914Y-100713594D01*
X137454914Y-100713594D02*
X137359676Y-100665975D01*
X137359676Y-100665975D02*
X137264438Y-100570737D01*
X137264438Y-100570737D02*
X137216819Y-100427880D01*
X137216819Y-100427880D02*
X137216819Y-100332642D01*
X137216819Y-100332642D02*
X137264438Y-100189785D01*
X137264438Y-100189785D02*
X137312057Y-100142166D01*
X138216819Y-99189785D02*
X138216819Y-99761213D01*
X138216819Y-99475499D02*
X137216819Y-99475499D01*
X137216819Y-99475499D02*
X137359676Y-99570737D01*
X137359676Y-99570737D02*
X137454914Y-99665975D01*
X137454914Y-99665975D02*
X137502533Y-99761213D01*
X145299580Y-89421166D02*
X145347200Y-89468785D01*
X145347200Y-89468785D02*
X145394819Y-89611642D01*
X145394819Y-89611642D02*
X145394819Y-89706880D01*
X145394819Y-89706880D02*
X145347200Y-89849737D01*
X145347200Y-89849737D02*
X145251961Y-89944975D01*
X145251961Y-89944975D02*
X145156723Y-89992594D01*
X145156723Y-89992594D02*
X144966247Y-90040213D01*
X144966247Y-90040213D02*
X144823390Y-90040213D01*
X144823390Y-90040213D02*
X144632914Y-89992594D01*
X144632914Y-89992594D02*
X144537676Y-89944975D01*
X144537676Y-89944975D02*
X144442438Y-89849737D01*
X144442438Y-89849737D02*
X144394819Y-89706880D01*
X144394819Y-89706880D02*
X144394819Y-89611642D01*
X144394819Y-89611642D02*
X144442438Y-89468785D01*
X144442438Y-89468785D02*
X144490057Y-89421166D01*
X144490057Y-89040213D02*
X144442438Y-88992594D01*
X144442438Y-88992594D02*
X144394819Y-88897356D01*
X144394819Y-88897356D02*
X144394819Y-88659261D01*
X144394819Y-88659261D02*
X144442438Y-88564023D01*
X144442438Y-88564023D02*
X144490057Y-88516404D01*
X144490057Y-88516404D02*
X144585295Y-88468785D01*
X144585295Y-88468785D02*
X144680533Y-88468785D01*
X144680533Y-88468785D02*
X144823390Y-88516404D01*
X144823390Y-88516404D02*
X145394819Y-89087832D01*
X145394819Y-89087832D02*
X145394819Y-88468785D01*
X130596819Y-100139166D02*
X130120628Y-100472499D01*
X130596819Y-100710594D02*
X129596819Y-100710594D01*
X129596819Y-100710594D02*
X129596819Y-100329642D01*
X129596819Y-100329642D02*
X129644438Y-100234404D01*
X129644438Y-100234404D02*
X129692057Y-100186785D01*
X129692057Y-100186785D02*
X129787295Y-100139166D01*
X129787295Y-100139166D02*
X129930152Y-100139166D01*
X129930152Y-100139166D02*
X130025390Y-100186785D01*
X130025390Y-100186785D02*
X130073009Y-100234404D01*
X130073009Y-100234404D02*
X130120628Y-100329642D01*
X130120628Y-100329642D02*
X130120628Y-100710594D01*
X129596819Y-99282023D02*
X129596819Y-99472499D01*
X129596819Y-99472499D02*
X129644438Y-99567737D01*
X129644438Y-99567737D02*
X129692057Y-99615356D01*
X129692057Y-99615356D02*
X129834914Y-99710594D01*
X129834914Y-99710594D02*
X130025390Y-99758213D01*
X130025390Y-99758213D02*
X130406342Y-99758213D01*
X130406342Y-99758213D02*
X130501580Y-99710594D01*
X130501580Y-99710594D02*
X130549200Y-99662975D01*
X130549200Y-99662975D02*
X130596819Y-99567737D01*
X130596819Y-99567737D02*
X130596819Y-99377261D01*
X130596819Y-99377261D02*
X130549200Y-99282023D01*
X130549200Y-99282023D02*
X130501580Y-99234404D01*
X130501580Y-99234404D02*
X130406342Y-99186785D01*
X130406342Y-99186785D02*
X130168247Y-99186785D01*
X130168247Y-99186785D02*
X130073009Y-99234404D01*
X130073009Y-99234404D02*
X130025390Y-99282023D01*
X130025390Y-99282023D02*
X129977771Y-99377261D01*
X129977771Y-99377261D02*
X129977771Y-99567737D01*
X129977771Y-99567737D02*
X130025390Y-99662975D01*
X130025390Y-99662975D02*
X130073009Y-99710594D01*
X130073009Y-99710594D02*
X130168247Y-99758213D01*
X137425580Y-89421166D02*
X137473200Y-89468785D01*
X137473200Y-89468785D02*
X137520819Y-89611642D01*
X137520819Y-89611642D02*
X137520819Y-89706880D01*
X137520819Y-89706880D02*
X137473200Y-89849737D01*
X137473200Y-89849737D02*
X137377961Y-89944975D01*
X137377961Y-89944975D02*
X137282723Y-89992594D01*
X137282723Y-89992594D02*
X137092247Y-90040213D01*
X137092247Y-90040213D02*
X136949390Y-90040213D01*
X136949390Y-90040213D02*
X136758914Y-89992594D01*
X136758914Y-89992594D02*
X136663676Y-89944975D01*
X136663676Y-89944975D02*
X136568438Y-89849737D01*
X136568438Y-89849737D02*
X136520819Y-89706880D01*
X136520819Y-89706880D02*
X136520819Y-89611642D01*
X136520819Y-89611642D02*
X136568438Y-89468785D01*
X136568438Y-89468785D02*
X136616057Y-89421166D01*
X136520819Y-89087832D02*
X136520819Y-88468785D01*
X136520819Y-88468785D02*
X136901771Y-88802118D01*
X136901771Y-88802118D02*
X136901771Y-88659261D01*
X136901771Y-88659261D02*
X136949390Y-88564023D01*
X136949390Y-88564023D02*
X136997009Y-88516404D01*
X136997009Y-88516404D02*
X137092247Y-88468785D01*
X137092247Y-88468785D02*
X137330342Y-88468785D01*
X137330342Y-88468785D02*
X137425580Y-88516404D01*
X137425580Y-88516404D02*
X137473200Y-88564023D01*
X137473200Y-88564023D02*
X137520819Y-88659261D01*
X137520819Y-88659261D02*
X137520819Y-88944975D01*
X137520819Y-88944975D02*
X137473200Y-89040213D01*
X137473200Y-89040213D02*
X137425580Y-89087832D01*
X139346405Y-95395181D02*
X139346405Y-94585658D01*
X139346405Y-94585658D02*
X139298786Y-94490420D01*
X139298786Y-94490420D02*
X139251167Y-94442801D01*
X139251167Y-94442801D02*
X139155929Y-94395181D01*
X139155929Y-94395181D02*
X138965453Y-94395181D01*
X138965453Y-94395181D02*
X138870215Y-94442801D01*
X138870215Y-94442801D02*
X138822596Y-94490420D01*
X138822596Y-94490420D02*
X138774977Y-94585658D01*
X138774977Y-94585658D02*
X138774977Y-95395181D01*
X137774977Y-94395181D02*
X138346405Y-94395181D01*
X138060691Y-94395181D02*
X138060691Y-95395181D01*
X138060691Y-95395181D02*
X138155929Y-95252324D01*
X138155929Y-95252324D02*
X138251167Y-95157086D01*
X138251167Y-95157086D02*
X138346405Y-95109467D01*
X131809833Y-92054819D02*
X131476500Y-91578628D01*
X131238405Y-92054819D02*
X131238405Y-91054819D01*
X131238405Y-91054819D02*
X131619357Y-91054819D01*
X131619357Y-91054819D02*
X131714595Y-91102438D01*
X131714595Y-91102438D02*
X131762214Y-91150057D01*
X131762214Y-91150057D02*
X131809833Y-91245295D01*
X131809833Y-91245295D02*
X131809833Y-91388152D01*
X131809833Y-91388152D02*
X131762214Y-91483390D01*
X131762214Y-91483390D02*
X131714595Y-91531009D01*
X131714595Y-91531009D02*
X131619357Y-91578628D01*
X131619357Y-91578628D02*
X131238405Y-91578628D01*
X132190786Y-91150057D02*
X132238405Y-91102438D01*
X132238405Y-91102438D02*
X132333643Y-91054819D01*
X132333643Y-91054819D02*
X132571738Y-91054819D01*
X132571738Y-91054819D02*
X132666976Y-91102438D01*
X132666976Y-91102438D02*
X132714595Y-91150057D01*
X132714595Y-91150057D02*
X132762214Y-91245295D01*
X132762214Y-91245295D02*
X132762214Y-91340533D01*
X132762214Y-91340533D02*
X132714595Y-91483390D01*
X132714595Y-91483390D02*
X132143167Y-92054819D01*
X132143167Y-92054819D02*
X132762214Y-92054819D01*
D11*
%TO.C,R7*%
X142987500Y-95100224D02*
X142987500Y-94590776D01*
X144032500Y-95100224D02*
X144032500Y-94590776D01*
D12*
%TO.C,D1*%
X145804000Y-93222000D02*
X148804000Y-93222000D01*
X148804000Y-96262000D02*
X145804000Y-96262000D01*
D13*
X149639000Y-94742000D02*
G75*
G02*
X149439000Y-94742000I-100000J0D01*
G01*
X149439000Y-94742000D02*
G75*
G02*
X149639000Y-94742000I100000J0D01*
G01*
D11*
%TO.C,R5*%
X134351500Y-95100224D02*
X134351500Y-94590776D01*
X135396500Y-95100224D02*
X135396500Y-94590776D01*
D14*
%TO.C,Q2*%
X141605000Y-99275900D02*
X141605000Y-100926900D01*
X142643860Y-99275900D02*
X141605000Y-99275900D01*
X142915640Y-100926900D02*
X143596360Y-100926900D01*
X144907000Y-99275900D02*
X143868140Y-99275900D01*
X144907000Y-100926900D02*
X144907000Y-99275900D01*
D11*
%TO.C,R8*%
X146289500Y-100227224D02*
X146289500Y-99717776D01*
X147334500Y-100227224D02*
X147334500Y-99717776D01*
%TO.C,J1*%
X134052000Y-103064000D02*
X134052000Y-105724000D01*
X141732000Y-103064000D02*
X134052000Y-103064000D01*
X141732000Y-103064000D02*
X141732000Y-105724000D01*
X141732000Y-105724000D02*
X134052000Y-105724000D01*
X144332000Y-104394000D02*
X144332000Y-105724000D01*
X144332000Y-105724000D02*
X143002000Y-105724000D01*
D14*
%TO.C,Q1*%
X133667500Y-99529900D02*
X133667500Y-101180900D01*
X133667500Y-101180900D02*
X134706360Y-101180900D01*
X135658860Y-99529900D02*
X134978140Y-99529900D01*
X135930640Y-101180900D02*
X136969500Y-101180900D01*
X136969500Y-101180900D02*
X136969500Y-99529900D01*
D12*
%TO.C,D2*%
X129548000Y-93222000D02*
X132548000Y-93222000D01*
X132548000Y-96262000D02*
X129548000Y-96262000D01*
D13*
X128913000Y-94742000D02*
G75*
G02*
X128713000Y-94742000I-100000J0D01*
G01*
X128713000Y-94742000D02*
G75*
G02*
X128913000Y-94742000I100000J0D01*
G01*
D11*
%TO.C,U3*%
X138178000Y-87594000D02*
X139698000Y-87594000D01*
X138178000Y-88594000D02*
X138178000Y-87594000D01*
X138178000Y-90714000D02*
X138178000Y-89714000D01*
X139698000Y-87594000D02*
X139698000Y-87644000D01*
X139698000Y-88764000D02*
X139698000Y-89544000D01*
X139698000Y-90664000D02*
X139698000Y-90714000D01*
X139698000Y-90714000D02*
X138178000Y-90714000D01*
X140238000Y-89534000D02*
X139998000Y-89204000D01*
X140478000Y-89204000D01*
X140238000Y-89534000D01*
G36*
X140238000Y-89534000D02*
G01*
X139998000Y-89204000D01*
X140478000Y-89204000D01*
X140238000Y-89534000D01*
G37*
%TO.C,R1*%
X146152776Y-89647500D02*
X146662224Y-89647500D01*
X146152776Y-90692500D02*
X146662224Y-90692500D01*
%TO.C,C1*%
X138682000Y-100121767D02*
X138682000Y-99829233D01*
X139702000Y-100121767D02*
X139702000Y-99829233D01*
%TO.C,C2*%
X143000000Y-89108233D02*
X143000000Y-89400767D01*
X144020000Y-89108233D02*
X144020000Y-89400767D01*
%TO.C,R6*%
X131049500Y-100227224D02*
X131049500Y-99717776D01*
X132094500Y-100227224D02*
X132094500Y-99717776D01*
%TO.C,C3*%
X135126000Y-89108233D02*
X135126000Y-89400767D01*
X136146000Y-89108233D02*
X136146000Y-89400767D01*
D14*
%TO.C,U1*%
X140461901Y-96050001D02*
G75*
G02*
X140258701Y-96050001I-101600J0D01*
G01*
X140258701Y-96050001D02*
G75*
G02*
X140461901Y-96050001I101600J0D01*
G01*
D11*
%TO.C,R2*%
X132231224Y-89647500D02*
X131721776Y-89647500D01*
X132231224Y-90692500D02*
X131721776Y-90692500D01*
%TD*%
M02*
