%TF.GenerationSoftware,KiCad,Pcbnew,9.0.6*%
%TF.CreationDate,2026-02-28T19:09:57-08:00*%
%TF.ProjectId,Display_v2,44697370-6c61-4795-9f76-322e6b696361,rev?*%
%TF.SameCoordinates,Original*%
%TF.FileFunction,Profile,NP*%
%FSLAX46Y46*%
G04 Gerber Fmt 4.6, Leading zero omitted, Abs format (unit mm)*
G04 Created by KiCad (PCBNEW 9.0.6) date 2026-02-28 19:09:57*
%MOMM*%
%LPD*%
G01*
G04 APERTURE LIST*
%TA.AperFunction,Profile*%
%ADD10C,0.050000*%
%TD*%
G04 APERTURE END LIST*
D10*
X238972000Y-92964000D02*
G75*
G02*
X234972000Y-92964000I-2000000J0D01*
G01*
X234972000Y-92964000D02*
G75*
G02*
X238972000Y-92964000I2000000J0D01*
G01*
X238972000Y-52324000D02*
G75*
G02*
X234972000Y-52324000I-2000000J0D01*
G01*
X234972000Y-52324000D02*
G75*
G02*
X238972000Y-52324000I2000000J0D01*
G01*
X158168000Y-92964000D02*
G75*
G02*
X154168000Y-92964000I-2000000J0D01*
G01*
X154168000Y-92964000D02*
G75*
G02*
X158168000Y-92964000I2000000J0D01*
G01*
X158168000Y-52324000D02*
G75*
G02*
X154168000Y-52324000I-2000000J0D01*
G01*
X154168000Y-52324000D02*
G75*
G02*
X158168000Y-52324000I2000000J0D01*
G01*
X151596000Y-48752000D02*
G75*
G02*
X152596000Y-47752000I1000000J0D01*
G01*
X240596000Y-47752000D02*
G75*
G02*
X241596000Y-48752000I0J-1000000D01*
G01*
X152596000Y-97752000D02*
G75*
G02*
X151596000Y-96752000I0J1000000D01*
G01*
X241596000Y-96752000D02*
G75*
G02*
X240596000Y-97752000I-1000000J0D01*
G01*
X151596000Y-96752000D02*
X151596000Y-48752000D01*
X241596000Y-48752000D02*
X241596000Y-96752000D01*
X152596000Y-47752000D02*
X240596000Y-47752000D01*
X240596000Y-97752000D02*
X152596000Y-97752000D01*
%TO.C,M1*%
X187170000Y-73152000D02*
G75*
G02*
X185270000Y-73152000I-950000J0D01*
G01*
X185270000Y-73152000D02*
G75*
G02*
X187170000Y-73152000I950000J0D01*
G01*
X183020000Y-64152000D02*
G75*
G02*
X180420000Y-64152000I-1300000J0D01*
G01*
X180420000Y-64152000D02*
G75*
G02*
X183020000Y-64152000I1300000J0D01*
G01*
X174670000Y-83152000D02*
G75*
G02*
X170770000Y-83152000I-1950000J0D01*
G01*
X170770000Y-83152000D02*
G75*
G02*
X174670000Y-83152000I1950000J0D01*
G01*
X165020000Y-64152000D02*
G75*
G02*
X162420000Y-64152000I-1300000J0D01*
G01*
X162420000Y-64152000D02*
G75*
G02*
X165020000Y-64152000I1300000J0D01*
G01*
X160170000Y-73152000D02*
G75*
G02*
X158270000Y-73152000I-950000J0D01*
G01*
X158270000Y-73152000D02*
G75*
G02*
X160170000Y-73152000I950000J0D01*
G01*
%TD*%
M02*
