%TF.GenerationSoftware,KiCad,Pcbnew,9.0.6*%
%TF.CreationDate,2026-02-28T19:09:56-08:00*%
%TF.ProjectId,Display_v2,44697370-6c61-4795-9f76-322e6b696361,rev?*%
%TF.SameCoordinates,Original*%
%TF.FileFunction,Legend,Top*%
%TF.FilePolarity,Positive*%
%FSLAX46Y46*%
G04 Gerber Fmt 4.6, Leading zero omitted, Abs format (unit mm)*
G04 Created by KiCad (PCBNEW 9.0.6) date 2026-02-28 19:09:56*
%MOMM*%
%LPD*%
G01*
G04 APERTURE LIST*
%ADD10C,0.150000*%
%ADD11C,0.100000*%
%ADD12C,0.120000*%
G04 APERTURE END LIST*
D10*
X16638333Y1743990D02*
X16781190Y1696371D01*
X16781190Y1696371D02*
X16828809Y1648752D01*
X16828809Y1648752D02*
X16876428Y1553514D01*
X16876428Y1553514D02*
X16876428Y1410657D01*
X16876428Y1410657D02*
X16828809Y1315419D01*
X16828809Y1315419D02*
X16781190Y1267800D01*
X16781190Y1267800D02*
X16685952Y1220180D01*
X16685952Y1220180D02*
X16305000Y1220180D01*
X16305000Y1220180D02*
X16305000Y2220180D01*
X16305000Y2220180D02*
X16638333Y2220180D01*
X16638333Y2220180D02*
X16733571Y2172561D01*
X16733571Y2172561D02*
X16781190Y2124942D01*
X16781190Y2124942D02*
X16828809Y2029704D01*
X16828809Y2029704D02*
X16828809Y1934466D01*
X16828809Y1934466D02*
X16781190Y1839228D01*
X16781190Y1839228D02*
X16733571Y1791609D01*
X16733571Y1791609D02*
X16638333Y1743990D01*
X16638333Y1743990D02*
X16305000Y1743990D01*
X17305000Y1220180D02*
X17305000Y1886847D01*
X17305000Y1696371D02*
X17352619Y1791609D01*
X17352619Y1791609D02*
X17400238Y1839228D01*
X17400238Y1839228D02*
X17495476Y1886847D01*
X17495476Y1886847D02*
X17590714Y1886847D01*
X18352619Y1220180D02*
X18352619Y2220180D01*
X18352619Y1267800D02*
X18257381Y1220180D01*
X18257381Y1220180D02*
X18066905Y1220180D01*
X18066905Y1220180D02*
X17971667Y1267800D01*
X17971667Y1267800D02*
X17924048Y1315419D01*
X17924048Y1315419D02*
X17876429Y1410657D01*
X17876429Y1410657D02*
X17876429Y1696371D01*
X17876429Y1696371D02*
X17924048Y1791609D01*
X17924048Y1791609D02*
X17971667Y1839228D01*
X17971667Y1839228D02*
X18066905Y1886847D01*
X18066905Y1886847D02*
X18257381Y1886847D01*
X18257381Y1886847D02*
X18352619Y1839228D01*
X19352619Y1220180D02*
X18781191Y1220180D01*
X19066905Y1220180D02*
X19066905Y2220180D01*
X19066905Y2220180D02*
X18971667Y2077323D01*
X18971667Y2077323D02*
X18876429Y1982085D01*
X18876429Y1982085D02*
X18781191Y1934466D01*
X197381905Y-84838819D02*
X197381905Y-83838819D01*
X197381905Y-83838819D02*
X197620000Y-83838819D01*
X197620000Y-83838819D02*
X197762857Y-83886438D01*
X197762857Y-83886438D02*
X197858095Y-83981676D01*
X197858095Y-83981676D02*
X197905714Y-84076914D01*
X197905714Y-84076914D02*
X197953333Y-84267390D01*
X197953333Y-84267390D02*
X197953333Y-84410247D01*
X197953333Y-84410247D02*
X197905714Y-84600723D01*
X197905714Y-84600723D02*
X197858095Y-84695961D01*
X197858095Y-84695961D02*
X197762857Y-84791200D01*
X197762857Y-84791200D02*
X197620000Y-84838819D01*
X197620000Y-84838819D02*
X197381905Y-84838819D01*
X198334286Y-83934057D02*
X198381905Y-83886438D01*
X198381905Y-83886438D02*
X198477143Y-83838819D01*
X198477143Y-83838819D02*
X198715238Y-83838819D01*
X198715238Y-83838819D02*
X198810476Y-83886438D01*
X198810476Y-83886438D02*
X198858095Y-83934057D01*
X198858095Y-83934057D02*
X198905714Y-84029295D01*
X198905714Y-84029295D02*
X198905714Y-84124533D01*
X198905714Y-84124533D02*
X198858095Y-84267390D01*
X198858095Y-84267390D02*
X198286667Y-84838819D01*
X198286667Y-84838819D02*
X198905714Y-84838819D01*
X194348571Y-86646295D02*
X193891428Y-86646295D01*
X194120000Y-86646295D02*
X194120000Y-85846295D01*
X194120000Y-85846295D02*
X194043809Y-85960580D01*
X194043809Y-85960580D02*
X193967619Y-86036771D01*
X193967619Y-86036771D02*
X193891428Y-86074866D01*
X200392819Y-80597333D02*
X201107104Y-80597333D01*
X201107104Y-80597333D02*
X201249961Y-80644952D01*
X201249961Y-80644952D02*
X201345200Y-80740190D01*
X201345200Y-80740190D02*
X201392819Y-80883047D01*
X201392819Y-80883047D02*
X201392819Y-80978285D01*
X200488057Y-80168761D02*
X200440438Y-80121142D01*
X200440438Y-80121142D02*
X200392819Y-80025904D01*
X200392819Y-80025904D02*
X200392819Y-79787809D01*
X200392819Y-79787809D02*
X200440438Y-79692571D01*
X200440438Y-79692571D02*
X200488057Y-79644952D01*
X200488057Y-79644952D02*
X200583295Y-79597333D01*
X200583295Y-79597333D02*
X200678533Y-79597333D01*
X200678533Y-79597333D02*
X200821390Y-79644952D01*
X200821390Y-79644952D02*
X201392819Y-80216380D01*
X201392819Y-80216380D02*
X201392819Y-79597333D01*
D11*
X207264095Y-49773419D02*
X207264095Y-50582942D01*
X207264095Y-50582942D02*
X207311714Y-50678180D01*
X207311714Y-50678180D02*
X207359333Y-50725800D01*
X207359333Y-50725800D02*
X207454571Y-50773419D01*
X207454571Y-50773419D02*
X207645047Y-50773419D01*
X207645047Y-50773419D02*
X207740285Y-50725800D01*
X207740285Y-50725800D02*
X207787904Y-50678180D01*
X207787904Y-50678180D02*
X207835523Y-50582942D01*
X207835523Y-50582942D02*
X207835523Y-49773419D01*
X208835523Y-50773419D02*
X208264095Y-50773419D01*
X208549809Y-50773419D02*
X208549809Y-49773419D01*
X208549809Y-49773419D02*
X208454571Y-49916276D01*
X208454571Y-49916276D02*
X208359333Y-50011514D01*
X208359333Y-50011514D02*
X208264095Y-50059133D01*
D10*
X234657200Y-60452332D02*
X234704819Y-60309475D01*
X234704819Y-60309475D02*
X234704819Y-60071380D01*
X234704819Y-60071380D02*
X234657200Y-59976142D01*
X234657200Y-59976142D02*
X234609580Y-59928523D01*
X234609580Y-59928523D02*
X234514342Y-59880904D01*
X234514342Y-59880904D02*
X234419104Y-59880904D01*
X234419104Y-59880904D02*
X234323866Y-59928523D01*
X234323866Y-59928523D02*
X234276247Y-59976142D01*
X234276247Y-59976142D02*
X234228628Y-60071380D01*
X234228628Y-60071380D02*
X234181009Y-60261856D01*
X234181009Y-60261856D02*
X234133390Y-60357094D01*
X234133390Y-60357094D02*
X234085771Y-60404713D01*
X234085771Y-60404713D02*
X233990533Y-60452332D01*
X233990533Y-60452332D02*
X233895295Y-60452332D01*
X233895295Y-60452332D02*
X233800057Y-60404713D01*
X233800057Y-60404713D02*
X233752438Y-60357094D01*
X233752438Y-60357094D02*
X233704819Y-60261856D01*
X233704819Y-60261856D02*
X233704819Y-60023761D01*
X233704819Y-60023761D02*
X233752438Y-59880904D01*
X233704819Y-59547570D02*
X234704819Y-59309475D01*
X234704819Y-59309475D02*
X233990533Y-59118999D01*
X233990533Y-59118999D02*
X234704819Y-58928523D01*
X234704819Y-58928523D02*
X233704819Y-58690428D01*
X233800057Y-58357094D02*
X233752438Y-58309475D01*
X233752438Y-58309475D02*
X233704819Y-58214237D01*
X233704819Y-58214237D02*
X233704819Y-57976142D01*
X233704819Y-57976142D02*
X233752438Y-57880904D01*
X233752438Y-57880904D02*
X233800057Y-57833285D01*
X233800057Y-57833285D02*
X233895295Y-57785666D01*
X233895295Y-57785666D02*
X233990533Y-57785666D01*
X233990533Y-57785666D02*
X234133390Y-57833285D01*
X234133390Y-57833285D02*
X234704819Y-58404713D01*
X234704819Y-58404713D02*
X234704819Y-57785666D01*
D11*
X173180476Y-93675419D02*
X173180476Y-92675419D01*
X173180476Y-92675419D02*
X173513809Y-93389704D01*
X173513809Y-93389704D02*
X173847142Y-92675419D01*
X173847142Y-92675419D02*
X173847142Y-93675419D01*
X174847142Y-93675419D02*
X174275714Y-93675419D01*
X174561428Y-93675419D02*
X174561428Y-92675419D01*
X174561428Y-92675419D02*
X174466190Y-92818276D01*
X174466190Y-92818276D02*
X174370952Y-92913514D01*
X174370952Y-92913514D02*
X174275714Y-92961133D01*
D10*
X230806666Y-83044819D02*
X230806666Y-83759104D01*
X230806666Y-83759104D02*
X230759047Y-83901961D01*
X230759047Y-83901961D02*
X230663809Y-83997200D01*
X230663809Y-83997200D02*
X230520952Y-84044819D01*
X230520952Y-84044819D02*
X230425714Y-84044819D01*
X231806666Y-84044819D02*
X231235238Y-84044819D01*
X231520952Y-84044819D02*
X231520952Y-83044819D01*
X231520952Y-83044819D02*
X231425714Y-83187676D01*
X231425714Y-83187676D02*
X231330476Y-83282914D01*
X231330476Y-83282914D02*
X231235238Y-83330533D01*
X215669905Y-84838819D02*
X215669905Y-83838819D01*
X215669905Y-83838819D02*
X215908000Y-83838819D01*
X215908000Y-83838819D02*
X216050857Y-83886438D01*
X216050857Y-83886438D02*
X216146095Y-83981676D01*
X216146095Y-83981676D02*
X216193714Y-84076914D01*
X216193714Y-84076914D02*
X216241333Y-84267390D01*
X216241333Y-84267390D02*
X216241333Y-84410247D01*
X216241333Y-84410247D02*
X216193714Y-84600723D01*
X216193714Y-84600723D02*
X216146095Y-84695961D01*
X216146095Y-84695961D02*
X216050857Y-84791200D01*
X216050857Y-84791200D02*
X215908000Y-84838819D01*
X215908000Y-84838819D02*
X215669905Y-84838819D01*
X217193714Y-84838819D02*
X216622286Y-84838819D01*
X216908000Y-84838819D02*
X216908000Y-83838819D01*
X216908000Y-83838819D02*
X216812762Y-83981676D01*
X216812762Y-83981676D02*
X216717524Y-84076914D01*
X216717524Y-84076914D02*
X216622286Y-84124533D01*
X212636571Y-86646295D02*
X212179428Y-86646295D01*
X212408000Y-86646295D02*
X212408000Y-85846295D01*
X212408000Y-85846295D02*
X212331809Y-85960580D01*
X212331809Y-85960580D02*
X212255619Y-86036771D01*
X212255619Y-86036771D02*
X212179428Y-86074866D01*
X232929580Y-72964166D02*
X232977200Y-73011785D01*
X232977200Y-73011785D02*
X233024819Y-73154642D01*
X233024819Y-73154642D02*
X233024819Y-73249880D01*
X233024819Y-73249880D02*
X232977200Y-73392737D01*
X232977200Y-73392737D02*
X232881961Y-73487975D01*
X232881961Y-73487975D02*
X232786723Y-73535594D01*
X232786723Y-73535594D02*
X232596247Y-73583213D01*
X232596247Y-73583213D02*
X232453390Y-73583213D01*
X232453390Y-73583213D02*
X232262914Y-73535594D01*
X232262914Y-73535594D02*
X232167676Y-73487975D01*
X232167676Y-73487975D02*
X232072438Y-73392737D01*
X232072438Y-73392737D02*
X232024819Y-73249880D01*
X232024819Y-73249880D02*
X232024819Y-73154642D01*
X232024819Y-73154642D02*
X232072438Y-73011785D01*
X232072438Y-73011785D02*
X232120057Y-72964166D01*
X232024819Y-72630832D02*
X232024819Y-72011785D01*
X232024819Y-72011785D02*
X232405771Y-72345118D01*
X232405771Y-72345118D02*
X232405771Y-72202261D01*
X232405771Y-72202261D02*
X232453390Y-72107023D01*
X232453390Y-72107023D02*
X232501009Y-72059404D01*
X232501009Y-72059404D02*
X232596247Y-72011785D01*
X232596247Y-72011785D02*
X232834342Y-72011785D01*
X232834342Y-72011785D02*
X232929580Y-72059404D01*
X232929580Y-72059404D02*
X232977200Y-72107023D01*
X232977200Y-72107023D02*
X233024819Y-72202261D01*
X233024819Y-72202261D02*
X233024819Y-72487975D01*
X233024819Y-72487975D02*
X232977200Y-72583213D01*
X232977200Y-72583213D02*
X232929580Y-72630832D01*
D12*
%TO.C,Brd1*%
X35441000Y-32789000D02*
G75*
G02*
X32283000Y-35947000I-3158000J0D01*
G01*
X32283000Y-167000D02*
G75*
G02*
X35441000Y-3325000I0J-3158000D01*
G01*
X30931000Y-35947000D02*
G75*
G02*
X29125000Y-34137000I2000J1808000D01*
G01*
X6485000Y-34137000D02*
G75*
G02*
X4679000Y-35947000I-1808000J-2000D01*
G01*
X3327000Y-35947000D02*
G75*
G02*
X169000Y-32789000I1J3158001D01*
G01*
X169000Y-3325000D02*
G75*
G02*
X3327000Y-167000I3158001J-1D01*
G01*
X35441000Y-3325000D02*
X35441000Y-32789000D01*
X32393000Y-8803000D02*
X32393000Y-23501000D01*
X32283000Y-167000D02*
X3327000Y-167000D01*
X30933000Y-35947000D02*
X32285000Y-35947000D01*
X29125000Y-29851000D02*
X29125000Y-34139000D01*
X6485000Y-29851000D02*
X29125000Y-29851000D01*
X6485000Y-29851000D02*
X6485000Y-34139000D01*
X4677000Y-35947000D02*
X3325000Y-35947000D01*
X3217000Y-23501000D02*
X32393000Y-23501000D01*
X3217000Y-8803000D02*
X32393000Y-8803000D01*
X3217000Y-8803000D02*
X3217000Y-23501000D01*
X169000Y-3325000D02*
X169000Y-32789000D01*
%TO.C,D2*%
X201620000Y-90184000D02*
X201620000Y-85134000D01*
X201170000Y-90634000D02*
X201620000Y-90184000D01*
X200820000Y-88784000D02*
X200820000Y-86984000D01*
X195420000Y-88784000D02*
X195420000Y-86984000D01*
X194620000Y-90634000D02*
X201170000Y-90634000D01*
X194620000Y-85134000D02*
X201620000Y-85134000D01*
X194620000Y-85134000D02*
X194620000Y-90634000D01*
%TO.C,J2*%
X204978000Y-81594000D02*
X212658000Y-81594000D01*
X204978000Y-81594000D02*
X204978000Y-78934000D01*
X212658000Y-81594000D02*
X212658000Y-78934000D01*
X202378000Y-80264000D02*
X202378000Y-78934000D01*
X202378000Y-78934000D02*
X203708000Y-78934000D01*
X204978000Y-78934000D02*
X212658000Y-78934000D01*
D11*
%TO.C,U1*%
X201232000Y-60492000D02*
X204280000Y-60492000D01*
X201232000Y-63540000D02*
X201232000Y-60492000D01*
X201740000Y-64048000D02*
X203772000Y-64048000D01*
X202248000Y-64556000D02*
X203264000Y-64556000D01*
X202946000Y-54356000D02*
X202946000Y-58166000D01*
X202946000Y-58166000D02*
X210566000Y-58166000D01*
X204280000Y-60492000D02*
X204280000Y-63540000D01*
X204280000Y-63540000D02*
X201232000Y-63540000D01*
X210566000Y-58166000D02*
X210566000Y-54356000D01*
D12*
%TO.C,SW2*%
X233490000Y-55469000D02*
X232107000Y-55469000D01*
X233490000Y-55469000D02*
X233490000Y-56852000D01*
X233250000Y-55709000D02*
X231940000Y-55709000D01*
X233250000Y-55709000D02*
X233250000Y-62529000D01*
X230340000Y-55709000D02*
X229030000Y-55709000D01*
X229030000Y-55709000D02*
X229030000Y-62529000D01*
X231775000Y-58515667D02*
X230505000Y-58515667D01*
X233250000Y-62529000D02*
X231940000Y-62529000D01*
X230340000Y-62529000D02*
X229030000Y-62529000D01*
X231775000Y-57309000D02*
X230505000Y-57309000D01*
X230505000Y-58515667D01*
X231775000Y-58515667D01*
X231775000Y-57309000D01*
G36*
X231775000Y-57309000D02*
G01*
X230505000Y-57309000D01*
X230505000Y-58515667D01*
X231775000Y-58515667D01*
X231775000Y-57309000D01*
G37*
X231775000Y-57309000D02*
X230505000Y-57309000D01*
X230505000Y-60929000D01*
X231775000Y-60929000D01*
X231775000Y-57309000D01*
%TO.C,J1*%
X229810000Y-87630000D02*
X229810000Y-90230000D01*
X229810000Y-87630000D02*
X232470000Y-87630000D01*
X229810000Y-90230000D02*
X232470000Y-90230000D01*
X231140000Y-85030000D02*
X232470000Y-85030000D01*
X232470000Y-85030000D02*
X232470000Y-86360000D01*
X232470000Y-87630000D02*
X232470000Y-90230000D01*
%TO.C,D1*%
X212908000Y-85134000D02*
X212908000Y-90634000D01*
X212908000Y-85134000D02*
X219908000Y-85134000D01*
X212908000Y-90634000D02*
X219458000Y-90634000D01*
X213708000Y-88784000D02*
X213708000Y-86984000D01*
X219108000Y-88784000D02*
X219108000Y-86984000D01*
X219458000Y-90634000D02*
X219908000Y-90184000D01*
X219908000Y-90184000D02*
X219908000Y-85134000D01*
%TO.C,C3*%
X231650000Y-72651233D02*
X231650000Y-72943767D01*
X230630000Y-72651233D02*
X230630000Y-72943767D01*
%TD*%
M02*
