%TF.GenerationSoftware,KiCad,Pcbnew,9.0.6*%
%TF.CreationDate,2026-02-28T19:09:56-08:00*%
%TF.ProjectId,Display_v2,44697370-6c61-4795-9f76-322e6b696361,rev?*%
%TF.SameCoordinates,Original*%
%TF.FileFunction,Copper,L1,Top*%
%TF.FilePolarity,Positive*%
%FSLAX46Y46*%
G04 Gerber Fmt 4.6, Leading zero omitted, Abs format (unit mm)*
G04 Created by KiCad (PCBNEW 9.0.6) date 2026-02-28 19:09:56*
%MOMM*%
%LPD*%
G01*
G04 APERTURE LIST*
G04 Aperture macros list*
%AMRoundRect*
0 Rectangle with rounded corners*
0 $1 Rounding radius*
0 $2 $3 $4 $5 $6 $7 $8 $9 X,Y pos of 4 corners*
0 Add a 4 corners polygon primitive as box body*
4,1,4,$2,$3,$4,$5,$6,$7,$8,$9,$2,$3,0*
0 Add four circle primitives for the rounded corners*
1,1,$1+$1,$2,$3*
1,1,$1+$1,$4,$5*
1,1,$1+$1,$6,$7*
1,1,$1+$1,$8,$9*
0 Add four rect primitives between the rounded corners*
20,1,$1+$1,$2,$3,$4,$5,0*
20,1,$1+$1,$4,$5,$6,$7,0*
20,1,$1+$1,$6,$7,$8,$9,0*
20,1,$1+$1,$8,$9,$2,$3,0*%
G04 Aperture macros list end*
%TA.AperFunction,ComponentPad*%
%ADD10C,1.700000*%
%TD*%
%TA.AperFunction,ComponentPad*%
%ADD11R,1.700000X1.700000*%
%TD*%
%TA.AperFunction,SMDPad,CuDef*%
%ADD12RoundRect,0.090000X-0.660000X-0.360000X0.660000X-0.360000X0.660000X0.360000X-0.660000X0.360000X0*%
%TD*%
%TA.AperFunction,ComponentPad*%
%ADD13O,3.556000X1.778000*%
%TD*%
%TA.AperFunction,ComponentPad*%
%ADD14C,1.905000*%
%TD*%
%TA.AperFunction,SMDPad,CuDef*%
%ADD15RoundRect,0.250000X-0.310000X0.830000X-0.310000X-0.830000X0.310000X-0.830000X0.310000X0.830000X0*%
%TD*%
%TA.AperFunction,SMDPad,CuDef*%
%ADD16RoundRect,0.237500X-0.237500X0.300000X-0.237500X-0.300000X0.237500X-0.300000X0.237500X0.300000X0*%
%TD*%
%TA.AperFunction,Conductor*%
%ADD17C,0.508000*%
%TD*%
G04 APERTURE END LIST*
D10*
%TO.P,Brd1,8*%
%TO.N,N/C*%
X26695000Y-3325000D03*
%TO.P,Brd1,7*%
X24155000Y-3325000D03*
%TO.P,Brd1,6*%
X21615000Y-3325000D03*
%TO.P,Brd1,5*%
X19075000Y-3325000D03*
%TO.P,Brd1,4,SDA*%
%TO.N,unconnected-(Brd1-SDA-Pad4)*%
X16535000Y-3325000D03*
%TO.P,Brd1,3,SCL*%
%TO.N,unconnected-(Brd1-SCL-Pad3)*%
X13995000Y-3325000D03*
%TO.P,Brd1,2,VCC*%
%TO.N,unconnected-(Brd1-VCC-Pad2)*%
X11455000Y-3325000D03*
D11*
%TO.P,Brd1,1,GND*%
%TO.N,unconnected-(Brd1-GND-Pad1)*%
X8915000Y-3325000D03*
%TD*%
D12*
%TO.P,D2,4,DIN*%
%TO.N,Net-(D1-DOUT)*%
X200570000Y-86234000D03*
%TO.P,D2,3,VSS*%
%TO.N,GND*%
X200570000Y-89534000D03*
%TO.P,D2,2,DOUT*%
%TO.N,unconnected-(D2-DOUT-Pad2)*%
X195670000Y-89534000D03*
%TO.P,D2,1,VDD*%
%TO.N,+3.3V*%
X195670000Y-86234000D03*
%TD*%
D11*
%TO.P,J2,1,Pin_1*%
%TO.N,/SDA*%
X203708000Y-80264000D03*
D10*
%TO.P,J2,2,Pin_2*%
%TO.N,/SCL*%
X206248000Y-80264000D03*
%TO.P,J2,3,Pin_3*%
%TO.N,+3.3V*%
X208788000Y-80264000D03*
%TO.P,J2,4,Pin_4*%
%TO.N,GND*%
X211328000Y-80264000D03*
%TD*%
D13*
%TO.P,U1,1,GPIO1_A0_D0*%
%TO.N,/IN1*%
X198374000Y-56896000D03*
%TO.P,U1,2,GPIO2_A1_D1*%
%TO.N,/IN2*%
X198374000Y-59436000D03*
%TO.P,U1,3,GPIO3_A2_D2*%
%TO.N,/IN3*%
X198374000Y-61976000D03*
%TO.P,U1,4,GPIO4_A3_D3*%
%TO.N,/IN4*%
X198374000Y-64516000D03*
%TO.P,U1,5,GPIO4_A3_D3_SDA*%
%TO.N,/SDA*%
X198374000Y-67056000D03*
%TO.P,U1,6,GPIO6_A5_D5_SCL*%
%TO.N,/SCL*%
X198374000Y-69596000D03*
%TO.P,U1,7,GPIO43_TX_D6*%
%TO.N,unconnected-(U1-GPIO43_TX_D6-Pad7)*%
X198374000Y-72136000D03*
%TO.P,U1,8,GPIO44_D7_RX*%
%TO.N,unconnected-(U1-GPIO44_D7_RX-Pad8)*%
X215138000Y-72136000D03*
%TO.P,U1,9,GPIO7_A8_D8_SCK*%
%TO.N,unconnected-(U1-GPIO7_A8_D8_SCK-Pad9)*%
X215138000Y-69596000D03*
%TO.P,U1,10,GPIO8_A9_D9_CIPO*%
%TO.N,Net-(D1-DIN)*%
X215138000Y-67056000D03*
%TO.P,U1,11,GPIO9_A10_D10_COPI*%
%TO.N,unconnected-(U1-GPIO9_A10_D10_COPI-Pad11)*%
X215138000Y-64516000D03*
%TO.P,U1,12,3V3*%
%TO.N,+3.3V*%
X215138000Y-61976000D03*
%TO.P,U1,13,GND*%
%TO.N,GND*%
X215138000Y-59436000D03*
%TO.P,U1,14,5V*%
%TO.N,unconnected-(U1-5V-Pad14)*%
X215138000Y-56896000D03*
D14*
%TO.P,U1,15,+BATT*%
%TO.N,Net-(J1-Pin_2)*%
X202756000Y-64516000D03*
%TO.P,U1,16,-BATT*%
%TO.N,GND*%
X202756000Y-62016000D03*
%TD*%
D15*
%TO.P,SW2,1,A*%
%TO.N,Net-(J1-Pin_2)*%
X231140000Y-55754000D03*
%TO.P,SW2,2,B*%
%TO.N,Net-(SW2-B)*%
X231140000Y-62484000D03*
%TD*%
D10*
%TO.P,M1,1*%
%TO.N,/IN2*%
X161290000Y-76962000D03*
%TO.P,M1,2,-*%
%TO.N,/IN1*%
X161290000Y-69342000D03*
%TO.P,M1,3*%
%TO.N,/IN4*%
X184150000Y-76962000D03*
%TO.P,M1,4*%
%TO.N,/IN3*%
X184150000Y-69342000D03*
%TD*%
D11*
%TO.P,J1,1,Pin_1*%
%TO.N,GND*%
X231140000Y-86360000D03*
D10*
%TO.P,J1,2,Pin_2*%
%TO.N,Net-(J1-Pin_2)*%
X231140000Y-88900000D03*
%TD*%
D12*
%TO.P,D1,1,VDD*%
%TO.N,+3.3V*%
X213958000Y-86234000D03*
%TO.P,D1,2,DOUT*%
%TO.N,Net-(D1-DOUT)*%
X213958000Y-89534000D03*
%TO.P,D1,3,VSS*%
%TO.N,GND*%
X218858000Y-89534000D03*
%TO.P,D1,4,DIN*%
%TO.N,Net-(D1-DIN)*%
X218858000Y-86234000D03*
%TD*%
D16*
%TO.P,C3,1*%
%TO.N,Net-(SW2-B)*%
X231140000Y-71935000D03*
%TO.P,C3,2*%
%TO.N,GND*%
X231140000Y-73660000D03*
%TD*%
D17*
%TO.N,/IN4*%
X192532000Y-64516000D02*
X199136000Y-64516000D01*
X192024000Y-65024000D02*
X192532000Y-64516000D01*
X192024000Y-73152000D02*
X192024000Y-65024000D01*
X188214000Y-76962000D02*
X192024000Y-73152000D01*
X184150000Y-76962000D02*
X188214000Y-76962000D01*
%TO.N,/IN3*%
X191516000Y-61976000D02*
X199136000Y-61976000D01*
X184150000Y-69342000D02*
X191516000Y-61976000D01*
%TO.N,/IN2*%
X178816000Y-59436000D02*
X199136000Y-59436000D01*
X161290000Y-76962000D02*
X178816000Y-59436000D01*
%TO.N,/IN1*%
X173736000Y-56896000D02*
X199136000Y-56896000D01*
X161290000Y-69342000D02*
X173736000Y-56896000D01*
%TO.N,/SCL*%
X206248000Y-72644000D02*
X206248000Y-80264000D01*
X203200000Y-69596000D02*
X206248000Y-72644000D01*
X199136000Y-69596000D02*
X203200000Y-69596000D01*
%TO.N,/SDA*%
X195072000Y-67056000D02*
X199136000Y-67056000D01*
X195072000Y-73660000D02*
X195072000Y-67056000D01*
X201676000Y-80264000D02*
X195072000Y-73660000D01*
X203708000Y-80264000D02*
X201676000Y-80264000D01*
%TO.N,GND*%
X202476000Y-91440000D02*
X216952000Y-91440000D01*
X200570000Y-89534000D02*
X202476000Y-91440000D01*
X216952000Y-91440000D02*
X218858000Y-89534000D01*
X214376000Y-83312000D02*
X216408000Y-83312000D01*
X216408000Y-83312000D02*
X216408000Y-87084000D01*
X211328000Y-80264000D02*
X214376000Y-83312000D01*
X216408000Y-87084000D02*
X218858000Y-89534000D01*
X211328000Y-80264000D02*
X211328000Y-80772000D01*
%TO.N,+3.3V*%
X198084000Y-83820000D02*
X195670000Y-86234000D01*
X205232000Y-83820000D02*
X198084000Y-83820000D01*
X208788000Y-80264000D02*
X205232000Y-83820000D01*
%TO.N,Net-(J1-Pin_2)*%
X228218000Y-52832000D02*
X231140000Y-55754000D01*
X201168000Y-62928000D02*
X201168000Y-53848000D01*
X201168000Y-53848000D02*
X202184000Y-52832000D01*
X202756000Y-64516000D02*
X201168000Y-62928000D01*
X202184000Y-52832000D02*
X228218000Y-52832000D01*
%TO.N,GND*%
X227076000Y-73660000D02*
X231140000Y-73660000D01*
X226568000Y-73152000D02*
X227076000Y-73660000D01*
X226568000Y-66040000D02*
X226568000Y-73152000D01*
X219964000Y-59436000D02*
X226568000Y-66040000D01*
X214376000Y-59436000D02*
X219964000Y-59436000D01*
%TO.N,Net-(J1-Pin_2)*%
X234188000Y-85852000D02*
X231140000Y-88900000D01*
X234188000Y-58802000D02*
X234188000Y-85852000D01*
X231140000Y-55754000D02*
X234188000Y-58802000D01*
%TO.N,Net-(SW2-B)*%
X231140000Y-62484000D02*
X231140000Y-71935000D01*
%TO.N,GND*%
X231140000Y-73660000D02*
X231140000Y-86360000D01*
%TO.N,+3.3V*%
X208788000Y-67564000D02*
X208788000Y-80264000D01*
X214376000Y-61976000D02*
X208788000Y-67564000D01*
%TO.N,GND*%
X222032000Y-86360000D02*
X218858000Y-89534000D01*
X231140000Y-86360000D02*
X222032000Y-86360000D01*
X214884000Y-59944000D02*
X214376000Y-59436000D01*
X211796000Y-62016000D02*
X214376000Y-59436000D01*
X202756000Y-62016000D02*
X211796000Y-62016000D01*
%TO.N,Net-(D1-DIN)*%
X215169914Y-67056000D02*
X214376000Y-67056000D01*
X218858000Y-70744086D02*
X215169914Y-67056000D01*
X218858000Y-86234000D02*
X218858000Y-70744086D01*
%TO.N,Net-(D1-DOUT)*%
X210658000Y-86234000D02*
X213958000Y-89534000D01*
X200570000Y-86234000D02*
X210658000Y-86234000D01*
%TO.N,+3.3V*%
X208788000Y-81064000D02*
X208788000Y-80264000D01*
X213958000Y-86234000D02*
X208788000Y-81064000D01*
%TO.N,/SDA*%
X199136000Y-67056000D02*
X198342086Y-67056000D01*
%TD*%
%TA.AperFunction,Conductor*%
%TO.N,GND*%
G36*
X240602922Y-48253280D02*
G01*
X240693266Y-48263459D01*
X240720331Y-48269636D01*
X240799540Y-48297352D01*
X240824553Y-48309398D01*
X240895606Y-48354043D01*
X240917313Y-48371355D01*
X240976644Y-48430686D01*
X240993957Y-48452395D01*
X241038600Y-48523444D01*
X241050648Y-48548462D01*
X241078362Y-48627666D01*
X241084540Y-48654735D01*
X241094720Y-48745076D01*
X241095500Y-48758961D01*
X241095500Y-96745038D01*
X241094720Y-96758922D01*
X241094720Y-96758923D01*
X241084540Y-96849264D01*
X241078362Y-96876333D01*
X241050648Y-96955537D01*
X241038600Y-96980555D01*
X240993957Y-97051604D01*
X240976644Y-97073313D01*
X240917313Y-97132644D01*
X240895604Y-97149957D01*
X240824555Y-97194600D01*
X240799537Y-97206648D01*
X240720333Y-97234362D01*
X240693264Y-97240540D01*
X240613075Y-97249576D01*
X240602921Y-97250720D01*
X240589038Y-97251500D01*
X152602962Y-97251500D01*
X152589078Y-97250720D01*
X152576553Y-97249308D01*
X152498735Y-97240540D01*
X152471666Y-97234362D01*
X152392462Y-97206648D01*
X152367444Y-97194600D01*
X152296395Y-97149957D01*
X152274686Y-97132644D01*
X152215355Y-97073313D01*
X152198042Y-97051604D01*
X152153399Y-96980555D01*
X152141351Y-96955537D01*
X152113637Y-96876333D01*
X152107459Y-96849263D01*
X152097280Y-96758922D01*
X152096500Y-96745038D01*
X152096500Y-92823568D01*
X153667500Y-92823568D01*
X153667500Y-93104431D01*
X153698942Y-93383494D01*
X153698945Y-93383512D01*
X153761439Y-93657317D01*
X153761443Y-93657329D01*
X153854200Y-93922411D01*
X153976053Y-94175442D01*
X153976055Y-94175445D01*
X154125477Y-94413248D01*
X154300584Y-94632825D01*
X154499175Y-94831416D01*
X154718752Y-95006523D01*
X154956555Y-95155945D01*
X155209592Y-95277801D01*
X155408680Y-95347465D01*
X155474670Y-95370556D01*
X155474682Y-95370560D01*
X155748491Y-95433055D01*
X155748497Y-95433055D01*
X155748505Y-95433057D01*
X155934547Y-95454018D01*
X156027569Y-95464499D01*
X156027572Y-95464500D01*
X156027575Y-95464500D01*
X156308428Y-95464500D01*
X156308429Y-95464499D01*
X156451055Y-95448429D01*
X156587494Y-95433057D01*
X156587499Y-95433056D01*
X156587509Y-95433055D01*
X156861318Y-95370560D01*
X157126408Y-95277801D01*
X157379445Y-95155945D01*
X157617248Y-95006523D01*
X157836825Y-94831416D01*
X158035416Y-94632825D01*
X158210523Y-94413248D01*
X158359945Y-94175445D01*
X158481801Y-93922408D01*
X158574560Y-93657318D01*
X158637055Y-93383509D01*
X158668500Y-93104425D01*
X158668500Y-92823575D01*
X158668499Y-92823568D01*
X234471500Y-92823568D01*
X234471500Y-93104431D01*
X234502942Y-93383494D01*
X234502945Y-93383512D01*
X234565439Y-93657317D01*
X234565443Y-93657329D01*
X234658200Y-93922411D01*
X234780053Y-94175442D01*
X234780055Y-94175445D01*
X234929477Y-94413248D01*
X235104584Y-94632825D01*
X235303175Y-94831416D01*
X235522752Y-95006523D01*
X235760555Y-95155945D01*
X236013592Y-95277801D01*
X236212680Y-95347465D01*
X236278670Y-95370556D01*
X236278682Y-95370560D01*
X236552491Y-95433055D01*
X236552497Y-95433055D01*
X236552505Y-95433057D01*
X236738547Y-95454018D01*
X236831569Y-95464499D01*
X236831572Y-95464500D01*
X236831575Y-95464500D01*
X237112428Y-95464500D01*
X237112429Y-95464499D01*
X237255055Y-95448429D01*
X237391494Y-95433057D01*
X237391499Y-95433056D01*
X237391509Y-95433055D01*
X237665318Y-95370560D01*
X237930408Y-95277801D01*
X238183445Y-95155945D01*
X238421248Y-95006523D01*
X238640825Y-94831416D01*
X238839416Y-94632825D01*
X239014523Y-94413248D01*
X239163945Y-94175445D01*
X239285801Y-93922408D01*
X239378560Y-93657318D01*
X239441055Y-93383509D01*
X239472500Y-93104425D01*
X239472500Y-92823575D01*
X239441055Y-92544491D01*
X239378560Y-92270682D01*
X239285801Y-92005592D01*
X239163945Y-91752555D01*
X239014523Y-91514752D01*
X238839416Y-91295175D01*
X238640825Y-91096584D01*
X238421248Y-90921477D01*
X238183445Y-90772055D01*
X238183442Y-90772053D01*
X237930411Y-90650200D01*
X237665329Y-90557443D01*
X237665317Y-90557439D01*
X237391512Y-90494945D01*
X237391494Y-90494942D01*
X237112431Y-90463500D01*
X237112425Y-90463500D01*
X236831575Y-90463500D01*
X236831568Y-90463500D01*
X236552505Y-90494942D01*
X236552487Y-90494945D01*
X236278682Y-90557439D01*
X236278670Y-90557443D01*
X236013588Y-90650200D01*
X235760557Y-90772053D01*
X235522753Y-90921476D01*
X235303175Y-91096583D01*
X235104583Y-91295175D01*
X234929476Y-91514753D01*
X234780053Y-91752557D01*
X234658200Y-92005588D01*
X234565443Y-92270670D01*
X234565439Y-92270682D01*
X234502945Y-92544487D01*
X234502942Y-92544505D01*
X234471500Y-92823568D01*
X158668499Y-92823568D01*
X158637055Y-92544491D01*
X158574560Y-92270682D01*
X158481801Y-92005592D01*
X158359945Y-91752555D01*
X158210523Y-91514752D01*
X158035416Y-91295175D01*
X157836825Y-91096584D01*
X157617248Y-90921477D01*
X157379445Y-90772055D01*
X157379442Y-90772053D01*
X157126411Y-90650200D01*
X156861329Y-90557443D01*
X156861317Y-90557439D01*
X156587512Y-90494945D01*
X156587494Y-90494942D01*
X156308431Y-90463500D01*
X156308425Y-90463500D01*
X156027575Y-90463500D01*
X156027568Y-90463500D01*
X155748505Y-90494942D01*
X155748487Y-90494945D01*
X155474682Y-90557439D01*
X155474670Y-90557443D01*
X155209588Y-90650200D01*
X154956557Y-90772053D01*
X154718753Y-90921476D01*
X154499175Y-91096583D01*
X154300583Y-91295175D01*
X154125476Y-91514753D01*
X153976053Y-91752557D01*
X153854200Y-92005588D01*
X153761443Y-92270670D01*
X153761439Y-92270682D01*
X153698945Y-92544487D01*
X153698942Y-92544505D01*
X153667500Y-92823568D01*
X152096500Y-92823568D01*
X152096500Y-89135298D01*
X194419500Y-89135298D01*
X194419500Y-89932703D01*
X194434696Y-90048142D01*
X194434699Y-90048151D01*
X194494093Y-90191541D01*
X194494200Y-90191798D01*
X194588851Y-90315149D01*
X194712202Y-90409800D01*
X194855849Y-90469301D01*
X194971299Y-90484500D01*
X196368700Y-90484499D01*
X196368703Y-90484499D01*
X196484142Y-90469303D01*
X196484146Y-90469301D01*
X196484151Y-90469301D01*
X196627798Y-90409800D01*
X196751149Y-90315149D01*
X196845800Y-90191798D01*
X196905301Y-90048151D01*
X196920500Y-89932701D01*
X196920500Y-89932670D01*
X199320000Y-89932670D01*
X199335185Y-90048019D01*
X199335187Y-90048024D01*
X199394633Y-90191541D01*
X199394633Y-90191542D01*
X199489207Y-90314792D01*
X199612458Y-90409366D01*
X199755975Y-90468812D01*
X199755980Y-90468814D01*
X199871329Y-90484000D01*
X200320000Y-90484000D01*
X200820000Y-90484000D01*
X201268671Y-90484000D01*
X201384019Y-90468814D01*
X201384024Y-90468812D01*
X201527541Y-90409366D01*
X201527542Y-90409366D01*
X201650792Y-90314792D01*
X201745366Y-90191542D01*
X201745366Y-90191541D01*
X201804812Y-90048024D01*
X201804814Y-90048019D01*
X201820000Y-89932670D01*
X201820000Y-89784000D01*
X200820000Y-89784000D01*
X200820000Y-90484000D01*
X200320000Y-90484000D01*
X200320000Y-89784000D01*
X199320000Y-89784000D01*
X199320000Y-89932670D01*
X196920500Y-89932670D01*
X196920499Y-89135329D01*
X199320000Y-89135329D01*
X199320000Y-89284000D01*
X200320000Y-89284000D01*
X200820000Y-89284000D01*
X201820000Y-89284000D01*
X201820000Y-89135329D01*
X201804814Y-89019980D01*
X201804812Y-89019975D01*
X201745366Y-88876458D01*
X201745366Y-88876457D01*
X201650792Y-88753207D01*
X201527541Y-88658633D01*
X201384024Y-88599187D01*
X201384019Y-88599185D01*
X201268671Y-88584000D01*
X200820000Y-88584000D01*
X200820000Y-89284000D01*
X200320000Y-89284000D01*
X200320000Y-88584000D01*
X199871329Y-88584000D01*
X199755980Y-88599185D01*
X199755975Y-88599187D01*
X199612458Y-88658633D01*
X199612457Y-88658633D01*
X199489207Y-88753207D01*
X199394633Y-88876457D01*
X199394633Y-88876458D01*
X199335187Y-89019975D01*
X199335185Y-89019980D01*
X199320000Y-89135329D01*
X196920499Y-89135329D01*
X196920499Y-89135300D01*
X196920499Y-89135298D01*
X196920499Y-89135296D01*
X196905303Y-89019857D01*
X196905301Y-89019850D01*
X196905301Y-89019849D01*
X196845800Y-88876202D01*
X196751149Y-88752851D01*
X196627798Y-88658200D01*
X196627794Y-88658198D01*
X196484151Y-88598699D01*
X196484149Y-88598698D01*
X196368701Y-88583500D01*
X194971296Y-88583500D01*
X194855857Y-88598696D01*
X194855848Y-88598699D01*
X194712205Y-88658198D01*
X194588851Y-88752851D01*
X194494198Y-88876205D01*
X194434699Y-89019848D01*
X194434698Y-89019850D01*
X194419500Y-89135298D01*
X152096500Y-89135298D01*
X152096500Y-83014378D01*
X170269500Y-83014378D01*
X170269500Y-83289621D01*
X170300315Y-83563108D01*
X170300317Y-83563124D01*
X170361561Y-83831453D01*
X170361565Y-83831465D01*
X170452467Y-84091246D01*
X170571884Y-84339218D01*
X170571886Y-84339221D01*
X170718319Y-84572268D01*
X170889925Y-84787455D01*
X171084545Y-84982075D01*
X171299732Y-85153681D01*
X171532779Y-85300114D01*
X171780757Y-85419534D01*
X171952130Y-85479500D01*
X172040534Y-85510434D01*
X172040546Y-85510438D01*
X172308879Y-85571683D01*
X172582378Y-85602499D01*
X172582379Y-85602500D01*
X172582383Y-85602500D01*
X172857621Y-85602500D01*
X172857621Y-85602499D01*
X173131121Y-85571683D01*
X173399454Y-85510438D01*
X173659243Y-85419534D01*
X173907221Y-85300114D01*
X174140268Y-85153681D01*
X174355455Y-84982075D01*
X174550075Y-84787455D01*
X174721681Y-84572268D01*
X174868114Y-84339221D01*
X174987534Y-84091243D01*
X175078438Y-83831454D01*
X175139683Y-83563121D01*
X175170500Y-83289617D01*
X175170500Y-83014383D01*
X175139683Y-82740879D01*
X175078438Y-82472546D01*
X174987534Y-82212757D01*
X174868114Y-81964779D01*
X174721681Y-81731732D01*
X174550075Y-81516545D01*
X174355455Y-81321925D01*
X174140268Y-81150319D01*
X173941963Y-81025716D01*
X173907218Y-81003884D01*
X173659246Y-80884467D01*
X173399465Y-80793565D01*
X173399453Y-80793561D01*
X173131124Y-80732317D01*
X173131108Y-80732315D01*
X172857621Y-80701500D01*
X172857617Y-80701500D01*
X172582383Y-80701500D01*
X172582379Y-80701500D01*
X172308891Y-80732315D01*
X172308875Y-80732317D01*
X172040546Y-80793561D01*
X172040534Y-80793565D01*
X171780753Y-80884467D01*
X171532781Y-81003884D01*
X171299733Y-81150318D01*
X171084545Y-81321924D01*
X170889924Y-81516545D01*
X170718318Y-81731733D01*
X170571884Y-81964781D01*
X170452467Y-82212753D01*
X170361565Y-82472534D01*
X170361561Y-82472546D01*
X170300317Y-82740875D01*
X170300315Y-82740891D01*
X170269500Y-83014378D01*
X152096500Y-83014378D01*
X152096500Y-73037837D01*
X157769500Y-73037837D01*
X157769500Y-73266162D01*
X157805215Y-73491660D01*
X157875770Y-73708803D01*
X157963037Y-73880073D01*
X157979421Y-73912228D01*
X158113621Y-74096937D01*
X158275063Y-74258379D01*
X158459772Y-74392579D01*
X158514637Y-74420534D01*
X158663196Y-74496229D01*
X158663198Y-74496229D01*
X158663201Y-74496231D01*
X158779592Y-74534049D01*
X158880339Y-74566784D01*
X159105838Y-74602500D01*
X159105843Y-74602500D01*
X159334162Y-74602500D01*
X159559660Y-74566784D01*
X159634561Y-74542447D01*
X159776799Y-74496231D01*
X159980228Y-74392579D01*
X160164937Y-74258379D01*
X160326379Y-74096937D01*
X160460579Y-73912228D01*
X160564231Y-73708799D01*
X160634784Y-73491660D01*
X160645241Y-73425638D01*
X160670500Y-73266162D01*
X160670500Y-73037837D01*
X160634784Y-72812339D01*
X160564229Y-72595196D01*
X160476960Y-72423922D01*
X160460579Y-72391772D01*
X160326379Y-72207063D01*
X160164937Y-72045621D01*
X159980228Y-71911421D01*
X159776803Y-71807770D01*
X159559660Y-71737215D01*
X159334162Y-71701500D01*
X159334157Y-71701500D01*
X159105843Y-71701500D01*
X159105838Y-71701500D01*
X158880339Y-71737215D01*
X158663196Y-71807770D01*
X158459771Y-71911421D01*
X158275061Y-72045622D01*
X158113622Y-72207061D01*
X157979421Y-72391771D01*
X157875770Y-72595196D01*
X157805215Y-72812339D01*
X157769500Y-73037837D01*
X152096500Y-73037837D01*
X152096500Y-69235713D01*
X159939500Y-69235713D01*
X159939500Y-69448286D01*
X159972753Y-69658239D01*
X160038444Y-69860414D01*
X160134951Y-70049820D01*
X160259890Y-70221786D01*
X160410213Y-70372109D01*
X160582179Y-70497048D01*
X160582181Y-70497049D01*
X160582184Y-70497051D01*
X160771588Y-70593557D01*
X160973757Y-70659246D01*
X161183713Y-70692500D01*
X161183714Y-70692500D01*
X161396286Y-70692500D01*
X161396287Y-70692500D01*
X161606243Y-70659246D01*
X161808412Y-70593557D01*
X161997816Y-70497051D01*
X162019789Y-70481086D01*
X162169786Y-70372109D01*
X162169788Y-70372106D01*
X162169792Y-70372104D01*
X162320104Y-70221792D01*
X162320106Y-70221788D01*
X162320109Y-70221786D01*
X162445048Y-70049820D01*
X162445047Y-70049820D01*
X162445051Y-70049816D01*
X162541557Y-69860412D01*
X162607246Y-69658243D01*
X162640500Y-69448287D01*
X162640500Y-69235713D01*
X162626156Y-69145151D01*
X162635110Y-69075861D01*
X162660945Y-69038078D01*
X174012206Y-57686819D01*
X174073529Y-57653334D01*
X174099887Y-57650500D01*
X196252479Y-57650500D01*
X196319518Y-57670185D01*
X196352794Y-57701611D01*
X196425148Y-57801199D01*
X196425150Y-57801201D01*
X196579806Y-57955857D01*
X196730969Y-58065682D01*
X196773635Y-58121011D01*
X196779614Y-58190625D01*
X196747009Y-58252420D01*
X196730969Y-58266318D01*
X196579806Y-58376142D01*
X196425150Y-58530798D01*
X196425148Y-58530801D01*
X196352795Y-58630387D01*
X196297468Y-58673051D01*
X196252479Y-58681500D01*
X178896446Y-58681500D01*
X178896426Y-58681499D01*
X178890312Y-58681499D01*
X178741688Y-58681499D01*
X178741686Y-58681499D01*
X178627380Y-58704236D01*
X178627373Y-58704238D01*
X178620105Y-58705684D01*
X178595920Y-58710495D01*
X178554413Y-58727688D01*
X178550005Y-58729513D01*
X178549992Y-58729518D01*
X178458613Y-58767368D01*
X178458611Y-58767370D01*
X178335031Y-58849942D01*
X178335028Y-58849945D01*
X178234278Y-58950696D01*
X178234258Y-58950714D01*
X161593923Y-75591050D01*
X161532600Y-75624535D01*
X161486844Y-75625842D01*
X161396292Y-75611500D01*
X161396287Y-75611500D01*
X161183713Y-75611500D01*
X161135042Y-75619208D01*
X160973760Y-75644753D01*
X160771585Y-75710444D01*
X160582179Y-75806951D01*
X160410213Y-75931890D01*
X160259890Y-76082213D01*
X160134951Y-76254179D01*
X160038444Y-76443585D01*
X159972753Y-76645760D01*
X159939500Y-76855713D01*
X159939500Y-77068286D01*
X159972753Y-77278239D01*
X160038444Y-77480414D01*
X160134951Y-77669820D01*
X160259890Y-77841786D01*
X160410213Y-77992109D01*
X160582179Y-78117048D01*
X160582181Y-78117049D01*
X160582184Y-78117051D01*
X160771588Y-78213557D01*
X160973757Y-78279246D01*
X161183713Y-78312500D01*
X161183714Y-78312500D01*
X161396286Y-78312500D01*
X161396287Y-78312500D01*
X161606243Y-78279246D01*
X161808412Y-78213557D01*
X161997816Y-78117051D01*
X162019789Y-78101086D01*
X162169786Y-77992109D01*
X162169788Y-77992106D01*
X162169792Y-77992104D01*
X162320104Y-77841792D01*
X162320106Y-77841788D01*
X162320109Y-77841786D01*
X162445048Y-77669820D01*
X162445047Y-77669820D01*
X162445051Y-77669816D01*
X162541557Y-77480412D01*
X162607246Y-77278243D01*
X162640500Y-77068287D01*
X162640500Y-76855713D01*
X162626156Y-76765151D01*
X162635110Y-76695861D01*
X162660945Y-76658078D01*
X166281186Y-73037837D01*
X184769500Y-73037837D01*
X184769500Y-73266162D01*
X184805215Y-73491660D01*
X184875770Y-73708803D01*
X184963037Y-73880073D01*
X184979421Y-73912228D01*
X185113621Y-74096937D01*
X185275063Y-74258379D01*
X185459772Y-74392579D01*
X185514637Y-74420534D01*
X185663196Y-74496229D01*
X185663198Y-74496229D01*
X185663201Y-74496231D01*
X185779592Y-74534049D01*
X185880339Y-74566784D01*
X186105838Y-74602500D01*
X186105843Y-74602500D01*
X186334162Y-74602500D01*
X186559660Y-74566784D01*
X186634561Y-74542447D01*
X186776799Y-74496231D01*
X186980228Y-74392579D01*
X187164937Y-74258379D01*
X187326379Y-74096937D01*
X187460579Y-73912228D01*
X187564231Y-73708799D01*
X187634784Y-73491660D01*
X187645241Y-73425638D01*
X187670500Y-73266162D01*
X187670500Y-73037837D01*
X187634784Y-72812339D01*
X187564229Y-72595196D01*
X187476960Y-72423922D01*
X187460579Y-72391772D01*
X187326379Y-72207063D01*
X187164937Y-72045621D01*
X186980228Y-71911421D01*
X186776803Y-71807770D01*
X186559660Y-71737215D01*
X186334162Y-71701500D01*
X186334157Y-71701500D01*
X186105843Y-71701500D01*
X186105838Y-71701500D01*
X185880339Y-71737215D01*
X185663196Y-71807770D01*
X185459771Y-71911421D01*
X185275061Y-72045622D01*
X185113622Y-72207061D01*
X184979421Y-72391771D01*
X184875770Y-72595196D01*
X184805215Y-72812339D01*
X184769500Y-73037837D01*
X166281186Y-73037837D01*
X175285029Y-64033995D01*
X179919500Y-64033995D01*
X179919500Y-64270004D01*
X179919501Y-64270020D01*
X179950306Y-64504010D01*
X180011394Y-64731993D01*
X180101714Y-64950045D01*
X180101719Y-64950056D01*
X180172677Y-65072957D01*
X180219727Y-65154450D01*
X180219729Y-65154453D01*
X180219730Y-65154454D01*
X180363406Y-65341697D01*
X180363412Y-65341704D01*
X180530295Y-65508587D01*
X180530301Y-65508592D01*
X180717550Y-65652273D01*
X180807849Y-65704407D01*
X180921943Y-65770280D01*
X180921948Y-65770282D01*
X180921951Y-65770284D01*
X181140007Y-65860606D01*
X181367986Y-65921693D01*
X181601989Y-65952500D01*
X181601996Y-65952500D01*
X181838004Y-65952500D01*
X181838011Y-65952500D01*
X182072014Y-65921693D01*
X182299993Y-65860606D01*
X182518049Y-65770284D01*
X182722450Y-65652273D01*
X182909699Y-65508592D01*
X183076592Y-65341699D01*
X183220273Y-65154450D01*
X183338284Y-64950049D01*
X183428606Y-64731993D01*
X183489693Y-64504014D01*
X183520500Y-64270011D01*
X183520500Y-64033989D01*
X183489693Y-63799986D01*
X183428606Y-63572007D01*
X183338284Y-63353951D01*
X183338282Y-63353948D01*
X183338280Y-63353943D01*
X183288555Y-63267818D01*
X183220273Y-63149550D01*
X183133029Y-63035851D01*
X183076593Y-62962302D01*
X183076587Y-62962295D01*
X182909704Y-62795412D01*
X182909697Y-62795406D01*
X182722454Y-62651730D01*
X182722453Y-62651729D01*
X182722450Y-62651727D01*
X182587075Y-62573568D01*
X182518056Y-62533719D01*
X182518045Y-62533714D01*
X182299993Y-62443394D01*
X182072010Y-62382306D01*
X181838020Y-62351501D01*
X181838017Y-62351500D01*
X181838011Y-62351500D01*
X181601989Y-62351500D01*
X181601983Y-62351500D01*
X181601979Y-62351501D01*
X181367989Y-62382306D01*
X181140006Y-62443394D01*
X180921954Y-62533714D01*
X180921943Y-62533719D01*
X180717545Y-62651730D01*
X180530302Y-62795406D01*
X180530295Y-62795412D01*
X180363412Y-62962295D01*
X180363406Y-62962302D01*
X180219730Y-63149545D01*
X180101719Y-63353943D01*
X180101714Y-63353954D01*
X180011394Y-63572006D01*
X179950306Y-63799989D01*
X179919501Y-64033979D01*
X179919500Y-64033995D01*
X175285029Y-64033995D01*
X179092205Y-60226819D01*
X179153528Y-60193334D01*
X179179886Y-60190500D01*
X196252479Y-60190500D01*
X196319518Y-60210185D01*
X196352794Y-60241611D01*
X196425148Y-60341199D01*
X196425150Y-60341201D01*
X196579806Y-60495857D01*
X196730969Y-60605682D01*
X196773635Y-60661011D01*
X196779614Y-60730625D01*
X196747009Y-60792420D01*
X196730969Y-60806318D01*
X196579806Y-60916142D01*
X196425150Y-61070798D01*
X196425148Y-61070801D01*
X196352795Y-61170387D01*
X196297468Y-61213051D01*
X196252479Y-61221500D01*
X191596446Y-61221500D01*
X191596426Y-61221499D01*
X191590312Y-61221499D01*
X191441688Y-61221499D01*
X191441686Y-61221499D01*
X191320105Y-61245684D01*
X191295920Y-61250495D01*
X191158608Y-61307371D01*
X191035035Y-61389939D01*
X191035028Y-61389945D01*
X184453923Y-67971050D01*
X184392600Y-68004535D01*
X184346844Y-68005842D01*
X184256292Y-67991500D01*
X184256287Y-67991500D01*
X184043713Y-67991500D01*
X183995042Y-67999208D01*
X183833760Y-68024753D01*
X183631585Y-68090444D01*
X183442179Y-68186951D01*
X183270213Y-68311890D01*
X183119890Y-68462213D01*
X182994951Y-68634179D01*
X182898444Y-68823585D01*
X182832753Y-69025760D01*
X182799500Y-69235713D01*
X182799500Y-69448286D01*
X182832753Y-69658239D01*
X182898444Y-69860414D01*
X182994951Y-70049820D01*
X183119890Y-70221786D01*
X183270213Y-70372109D01*
X183442179Y-70497048D01*
X183442181Y-70497049D01*
X183442184Y-70497051D01*
X183631588Y-70593557D01*
X183833757Y-70659246D01*
X184043713Y-70692500D01*
X184043714Y-70692500D01*
X184256286Y-70692500D01*
X184256287Y-70692500D01*
X184466243Y-70659246D01*
X184668412Y-70593557D01*
X184857816Y-70497051D01*
X184879789Y-70481086D01*
X185029786Y-70372109D01*
X185029788Y-70372106D01*
X185029792Y-70372104D01*
X185180104Y-70221792D01*
X185180106Y-70221788D01*
X185180109Y-70221786D01*
X185305048Y-70049820D01*
X185305047Y-70049820D01*
X185305051Y-70049816D01*
X185401557Y-69860412D01*
X185467246Y-69658243D01*
X185500500Y-69448287D01*
X185500500Y-69235713D01*
X185486156Y-69145151D01*
X185495110Y-69075861D01*
X185520945Y-69038078D01*
X191792206Y-62766819D01*
X191853529Y-62733334D01*
X191879887Y-62730500D01*
X196252479Y-62730500D01*
X196319518Y-62750185D01*
X196352794Y-62781611D01*
X196425148Y-62881199D01*
X196425150Y-62881201D01*
X196579806Y-63035857D01*
X196730969Y-63145682D01*
X196773635Y-63201011D01*
X196779614Y-63270625D01*
X196747009Y-63332420D01*
X196730969Y-63346318D01*
X196579806Y-63456142D01*
X196425150Y-63610798D01*
X196425148Y-63610801D01*
X196352795Y-63710387D01*
X196297468Y-63753051D01*
X196252479Y-63761500D01*
X192457683Y-63761500D01*
X192311927Y-63790493D01*
X192311919Y-63790495D01*
X192174608Y-63847371D01*
X192051035Y-63929939D01*
X192051034Y-63929940D01*
X192022733Y-63958242D01*
X191945941Y-64035034D01*
X191945939Y-64035036D01*
X191437943Y-64543030D01*
X191437942Y-64543031D01*
X191355372Y-64666607D01*
X191355366Y-64666618D01*
X191298496Y-64803916D01*
X191298493Y-64803926D01*
X191269499Y-64949685D01*
X191269499Y-65104425D01*
X191269500Y-65104446D01*
X191269500Y-72788113D01*
X191249815Y-72855152D01*
X191233181Y-72875794D01*
X187937794Y-76171181D01*
X187876471Y-76204666D01*
X187850113Y-76207500D01*
X185334315Y-76207500D01*
X185267276Y-76187815D01*
X185233996Y-76156385D01*
X185180104Y-76082208D01*
X185029792Y-75931896D01*
X185029786Y-75931890D01*
X184857820Y-75806951D01*
X184668414Y-75710444D01*
X184668413Y-75710443D01*
X184668412Y-75710443D01*
X184466243Y-75644754D01*
X184466241Y-75644753D01*
X184466240Y-75644753D01*
X184304957Y-75619208D01*
X184256287Y-75611500D01*
X184043713Y-75611500D01*
X183995042Y-75619208D01*
X183833760Y-75644753D01*
X183631585Y-75710444D01*
X183442179Y-75806951D01*
X183270213Y-75931890D01*
X183119890Y-76082213D01*
X182994951Y-76254179D01*
X182898444Y-76443585D01*
X182832753Y-76645760D01*
X182799500Y-76855713D01*
X182799500Y-77068286D01*
X182832753Y-77278239D01*
X182898444Y-77480414D01*
X182994951Y-77669820D01*
X183119890Y-77841786D01*
X183270213Y-77992109D01*
X183442179Y-78117048D01*
X183442181Y-78117049D01*
X183442184Y-78117051D01*
X183631588Y-78213557D01*
X183833757Y-78279246D01*
X184043713Y-78312500D01*
X184043714Y-78312500D01*
X184256286Y-78312500D01*
X184256287Y-78312500D01*
X184466243Y-78279246D01*
X184668412Y-78213557D01*
X184857816Y-78117051D01*
X184879789Y-78101086D01*
X185029786Y-77992109D01*
X185029788Y-77992106D01*
X185029792Y-77992104D01*
X185180104Y-77841792D01*
X185233996Y-77767614D01*
X185289326Y-77724949D01*
X185334315Y-77716500D01*
X188133554Y-77716500D01*
X188133574Y-77716501D01*
X188139688Y-77716501D01*
X188288314Y-77716501D01*
X188325009Y-77709200D01*
X188409894Y-77692315D01*
X188434080Y-77687505D01*
X188490955Y-77663946D01*
X188571389Y-77630630D01*
X188694966Y-77548059D01*
X192504963Y-73738060D01*
X192504966Y-73738059D01*
X192610059Y-73632966D01*
X192692629Y-73509390D01*
X192692630Y-73509389D01*
X192692633Y-73509385D01*
X192737930Y-73400023D01*
X192749505Y-73372079D01*
X192778501Y-73226312D01*
X192778501Y-73077688D01*
X192778501Y-73072578D01*
X192778500Y-73072552D01*
X192778500Y-65394500D01*
X192798185Y-65327461D01*
X192850989Y-65281706D01*
X192902500Y-65270500D01*
X196252479Y-65270500D01*
X196319518Y-65290185D01*
X196352794Y-65321611D01*
X196425148Y-65421199D01*
X196425150Y-65421201D01*
X196579806Y-65575857D01*
X196730969Y-65685682D01*
X196773635Y-65741011D01*
X196779614Y-65810625D01*
X196747009Y-65872420D01*
X196730969Y-65886318D01*
X196579806Y-65996142D01*
X196425150Y-66150798D01*
X196425148Y-66150801D01*
X196352795Y-66250387D01*
X196297468Y-66293051D01*
X196252479Y-66301500D01*
X194997683Y-66301500D01*
X194851927Y-66330493D01*
X194851919Y-66330495D01*
X194714608Y-66387371D01*
X194591035Y-66469939D01*
X194591028Y-66469945D01*
X194485945Y-66575028D01*
X194485939Y-66575035D01*
X194403371Y-66698608D01*
X194346495Y-66835919D01*
X194346493Y-66835927D01*
X194317500Y-66981683D01*
X194317500Y-73580552D01*
X194317499Y-73580578D01*
X194317499Y-73585688D01*
X194317499Y-73734312D01*
X194317499Y-73734314D01*
X194317498Y-73734314D01*
X194346493Y-73880073D01*
X194346496Y-73880083D01*
X194403366Y-74017381D01*
X194403372Y-74017392D01*
X194485942Y-74140968D01*
X194485943Y-74140969D01*
X201085600Y-80740624D01*
X201085621Y-80740647D01*
X201195028Y-80850054D01*
X201195035Y-80850060D01*
X201318608Y-80932628D01*
X201318609Y-80932628D01*
X201318610Y-80932629D01*
X201455920Y-80989505D01*
X201601683Y-81018499D01*
X201601687Y-81018500D01*
X201601688Y-81018500D01*
X202233501Y-81018500D01*
X202300540Y-81038185D01*
X202346295Y-81090989D01*
X202357501Y-81142500D01*
X202357501Y-81161876D01*
X202363908Y-81221483D01*
X202414202Y-81356328D01*
X202414206Y-81356335D01*
X202500452Y-81471544D01*
X202500455Y-81471547D01*
X202615664Y-81557793D01*
X202615671Y-81557797D01*
X202750517Y-81608091D01*
X202750516Y-81608091D01*
X202757444Y-81608835D01*
X202810127Y-81614500D01*
X204605872Y-81614499D01*
X204665483Y-81608091D01*
X204800331Y-81557796D01*
X204915546Y-81471546D01*
X205001796Y-81356331D01*
X205050810Y-81224916D01*
X205092681Y-81168984D01*
X205158145Y-81144566D01*
X205226418Y-81159417D01*
X205254673Y-81180569D01*
X205368213Y-81294109D01*
X205540179Y-81419048D01*
X205540181Y-81419049D01*
X205540184Y-81419051D01*
X205729588Y-81515557D01*
X205931757Y-81581246D01*
X205931760Y-81581246D01*
X205931761Y-81581247D01*
X205984547Y-81589607D01*
X206098831Y-81607708D01*
X206161964Y-81637636D01*
X206198896Y-81696947D01*
X206197898Y-81766810D01*
X206167113Y-81817861D01*
X204955794Y-83029181D01*
X204894471Y-83062666D01*
X204868113Y-83065500D01*
X198164446Y-83065500D01*
X198164426Y-83065499D01*
X198158312Y-83065499D01*
X198009688Y-83065499D01*
X198009686Y-83065499D01*
X197888105Y-83089684D01*
X197873540Y-83092581D01*
X197863918Y-83094495D01*
X197863917Y-83094495D01*
X197807045Y-83118052D01*
X197807045Y-83118053D01*
X197726611Y-83151370D01*
X197726609Y-83151371D01*
X197603033Y-83233941D01*
X197571249Y-83265726D01*
X197497941Y-83339034D01*
X197497939Y-83339036D01*
X195589792Y-85247181D01*
X195528469Y-85280666D01*
X195502111Y-85283500D01*
X194971296Y-85283500D01*
X194855857Y-85298696D01*
X194855848Y-85298699D01*
X194712205Y-85358198D01*
X194712202Y-85358199D01*
X194712202Y-85358200D01*
X194588851Y-85452851D01*
X194497669Y-85571682D01*
X194494198Y-85576205D01*
X194434699Y-85719848D01*
X194434698Y-85719850D01*
X194419500Y-85835298D01*
X194419500Y-86632703D01*
X194434696Y-86748142D01*
X194434699Y-86748151D01*
X194481028Y-86860000D01*
X194494200Y-86891798D01*
X194588851Y-87015149D01*
X194712202Y-87109800D01*
X194855849Y-87169301D01*
X194971299Y-87184500D01*
X196368700Y-87184499D01*
X196368703Y-87184499D01*
X196484142Y-87169303D01*
X196484146Y-87169301D01*
X196484151Y-87169301D01*
X196627798Y-87109800D01*
X196751149Y-87015149D01*
X196845800Y-86891798D01*
X196905301Y-86748151D01*
X196920500Y-86632701D01*
X196920499Y-86101885D01*
X196940183Y-86034847D01*
X196956813Y-86014210D01*
X197135725Y-85835298D01*
X199319500Y-85835298D01*
X199319500Y-86632703D01*
X199334696Y-86748142D01*
X199334699Y-86748151D01*
X199381028Y-86860000D01*
X199394200Y-86891798D01*
X199488851Y-87015149D01*
X199612202Y-87109800D01*
X199755849Y-87169301D01*
X199871299Y-87184500D01*
X201268700Y-87184499D01*
X201268703Y-87184499D01*
X201384142Y-87169303D01*
X201384146Y-87169301D01*
X201384151Y-87169301D01*
X201527798Y-87109800D01*
X201651149Y-87015149D01*
X201651149Y-87015148D01*
X201652483Y-87014125D01*
X201717652Y-86988930D01*
X201727970Y-86988500D01*
X210294113Y-86988500D01*
X210361152Y-87008185D01*
X210381794Y-87024819D01*
X212671181Y-89314205D01*
X212704666Y-89375528D01*
X212707500Y-89401886D01*
X212707500Y-89932703D01*
X212722696Y-90048142D01*
X212722699Y-90048151D01*
X212782093Y-90191541D01*
X212782200Y-90191798D01*
X212876851Y-90315149D01*
X213000202Y-90409800D01*
X213143849Y-90469301D01*
X213259299Y-90484500D01*
X214656700Y-90484499D01*
X214656703Y-90484499D01*
X214772142Y-90469303D01*
X214772146Y-90469301D01*
X214772151Y-90469301D01*
X214915798Y-90409800D01*
X215039149Y-90315149D01*
X215133800Y-90191798D01*
X215193301Y-90048151D01*
X215208500Y-89932701D01*
X215208500Y-89932670D01*
X217608000Y-89932670D01*
X217623185Y-90048019D01*
X217623187Y-90048024D01*
X217682633Y-90191541D01*
X217682633Y-90191542D01*
X217777207Y-90314792D01*
X217900458Y-90409366D01*
X218043975Y-90468812D01*
X218043980Y-90468814D01*
X218159329Y-90484000D01*
X218608000Y-90484000D01*
X219108000Y-90484000D01*
X219556671Y-90484000D01*
X219672019Y-90468814D01*
X219672024Y-90468812D01*
X219815541Y-90409366D01*
X219815542Y-90409366D01*
X219938792Y-90314792D01*
X220033366Y-90191542D01*
X220033366Y-90191541D01*
X220092812Y-90048024D01*
X220092814Y-90048019D01*
X220108000Y-89932670D01*
X220108000Y-89784000D01*
X219108000Y-89784000D01*
X219108000Y-90484000D01*
X218608000Y-90484000D01*
X218608000Y-89784000D01*
X217608000Y-89784000D01*
X217608000Y-89932670D01*
X215208500Y-89932670D01*
X215208499Y-89135329D01*
X217608000Y-89135329D01*
X217608000Y-89284000D01*
X218608000Y-89284000D01*
X219108000Y-89284000D01*
X220108000Y-89284000D01*
X220108000Y-89135329D01*
X220092814Y-89019980D01*
X220092812Y-89019975D01*
X220033366Y-88876458D01*
X220033366Y-88876457D01*
X219938792Y-88753207D01*
X219815541Y-88658633D01*
X219672024Y-88599187D01*
X219672019Y-88599185D01*
X219556671Y-88584000D01*
X219108000Y-88584000D01*
X219108000Y-89284000D01*
X218608000Y-89284000D01*
X218608000Y-88584000D01*
X218159329Y-88584000D01*
X218043980Y-88599185D01*
X218043975Y-88599187D01*
X217900458Y-88658633D01*
X217900457Y-88658633D01*
X217777207Y-88753207D01*
X217682633Y-88876457D01*
X217682633Y-88876458D01*
X217623187Y-89019975D01*
X217623185Y-89019980D01*
X217608000Y-89135329D01*
X215208499Y-89135329D01*
X215208499Y-89135300D01*
X215208499Y-89135298D01*
X215208499Y-89135296D01*
X215193303Y-89019857D01*
X215193301Y-89019850D01*
X215193301Y-89019849D01*
X215133800Y-88876202D01*
X215039149Y-88752851D01*
X214915798Y-88658200D01*
X214915794Y-88658198D01*
X214772151Y-88598699D01*
X214772149Y-88598698D01*
X214656702Y-88583500D01*
X214656701Y-88583500D01*
X214125886Y-88583500D01*
X214058847Y-88563815D01*
X214038205Y-88547181D01*
X211138969Y-85647943D01*
X211138968Y-85647942D01*
X211070958Y-85602500D01*
X211015389Y-85565370D01*
X211015386Y-85565368D01*
X211015385Y-85565368D01*
X210934955Y-85532053D01*
X210878080Y-85508495D01*
X210853894Y-85503684D01*
X210732314Y-85479499D01*
X210732312Y-85479499D01*
X210583688Y-85479499D01*
X210577574Y-85479499D01*
X210577554Y-85479500D01*
X201727970Y-85479500D01*
X201660931Y-85459815D01*
X201652483Y-85453875D01*
X201527799Y-85358200D01*
X201527795Y-85358198D01*
X201384151Y-85298699D01*
X201384149Y-85298698D01*
X201268701Y-85283500D01*
X199871296Y-85283500D01*
X199755857Y-85298696D01*
X199755848Y-85298699D01*
X199612205Y-85358198D01*
X199612202Y-85358199D01*
X199612202Y-85358200D01*
X199488851Y-85452851D01*
X199397669Y-85571682D01*
X199394198Y-85576205D01*
X199334699Y-85719848D01*
X199334698Y-85719850D01*
X199319500Y-85835298D01*
X197135725Y-85835298D01*
X198360205Y-84610819D01*
X198421528Y-84577334D01*
X198447886Y-84574500D01*
X205151554Y-84574500D01*
X205151574Y-84574501D01*
X205157688Y-84574501D01*
X205306314Y-84574501D01*
X205343009Y-84567200D01*
X205427894Y-84550315D01*
X205452080Y-84545505D01*
X205508955Y-84521946D01*
X205589389Y-84488630D01*
X205712966Y-84406059D01*
X208300318Y-81818704D01*
X208361641Y-81785220D01*
X208431332Y-81790204D01*
X208475680Y-81818705D01*
X212671181Y-86014206D01*
X212704666Y-86075529D01*
X212707500Y-86101887D01*
X212707500Y-86632703D01*
X212722696Y-86748142D01*
X212722699Y-86748151D01*
X212769028Y-86860000D01*
X212782200Y-86891798D01*
X212876851Y-87015149D01*
X213000202Y-87109800D01*
X213143849Y-87169301D01*
X213259299Y-87184500D01*
X214656700Y-87184499D01*
X214656703Y-87184499D01*
X214772142Y-87169303D01*
X214772146Y-87169301D01*
X214772151Y-87169301D01*
X214915798Y-87109800D01*
X215039149Y-87015149D01*
X215133800Y-86891798D01*
X215193301Y-86748151D01*
X215208500Y-86632701D01*
X215208499Y-85835300D01*
X215208499Y-85835298D01*
X215208499Y-85835296D01*
X215193303Y-85719857D01*
X215193301Y-85719850D01*
X215193301Y-85719849D01*
X215133800Y-85576202D01*
X215039149Y-85452851D01*
X214915798Y-85358200D01*
X214915794Y-85358198D01*
X214772151Y-85298699D01*
X214772149Y-85298698D01*
X214656702Y-85283500D01*
X214656701Y-85283500D01*
X214125887Y-85283500D01*
X214058848Y-85263815D01*
X214038206Y-85247181D01*
X209942104Y-81151079D01*
X209927478Y-81124293D01*
X209910901Y-81098650D01*
X209910888Y-81093912D01*
X209908619Y-81089756D01*
X209910796Y-81059310D01*
X209910715Y-81028780D01*
X209913366Y-81023368D01*
X209913603Y-81020064D01*
X209925291Y-80996637D01*
X209927285Y-80993515D01*
X209943051Y-80971816D01*
X209950540Y-80957116D01*
X209953786Y-80952037D01*
X209975758Y-80932894D01*
X209995763Y-80911711D01*
X210001787Y-80910218D01*
X210006468Y-80906141D01*
X210035296Y-80901917D01*
X210063583Y-80894911D01*
X210069460Y-80896913D01*
X210075600Y-80896014D01*
X210102134Y-80908046D01*
X210129719Y-80917445D01*
X210134158Y-80922567D01*
X210139233Y-80924869D01*
X210148278Y-80938861D01*
X210168763Y-80962500D01*
X210173373Y-80971547D01*
X210212728Y-81025716D01*
X210845037Y-80393408D01*
X210862075Y-80456993D01*
X210927901Y-80571007D01*
X211020993Y-80664099D01*
X211135007Y-80729925D01*
X211198590Y-80746962D01*
X210566282Y-81379269D01*
X210566282Y-81379270D01*
X210620449Y-81418624D01*
X210809782Y-81515095D01*
X211011870Y-81580757D01*
X211221754Y-81614000D01*
X211434246Y-81614000D01*
X211644127Y-81580757D01*
X211644130Y-81580757D01*
X211846217Y-81515095D01*
X212035554Y-81418622D01*
X212089716Y-81379270D01*
X212089717Y-81379270D01*
X211457408Y-80746962D01*
X211520993Y-80729925D01*
X211635007Y-80664099D01*
X211728099Y-80571007D01*
X211793925Y-80456993D01*
X211810962Y-80393408D01*
X212443270Y-81025717D01*
X212443270Y-81025716D01*
X212482622Y-80971554D01*
X212579095Y-80782217D01*
X212644757Y-80580130D01*
X212644757Y-80580127D01*
X212678000Y-80370246D01*
X212678000Y-80157753D01*
X212644757Y-79947872D01*
X212644757Y-79947869D01*
X212579095Y-79745782D01*
X212482624Y-79556449D01*
X212443270Y-79502282D01*
X212443269Y-79502282D01*
X211810962Y-80134590D01*
X211793925Y-80071007D01*
X211728099Y-79956993D01*
X211635007Y-79863901D01*
X211520993Y-79798075D01*
X211457409Y-79781037D01*
X212089716Y-79148728D01*
X212035550Y-79109375D01*
X211846217Y-79012904D01*
X211644129Y-78947242D01*
X211434246Y-78914000D01*
X211221754Y-78914000D01*
X211011872Y-78947242D01*
X211011869Y-78947242D01*
X210809782Y-79012904D01*
X210620439Y-79109380D01*
X210566282Y-79148727D01*
X210566282Y-79148728D01*
X211198591Y-79781037D01*
X211135007Y-79798075D01*
X211020993Y-79863901D01*
X210927901Y-79956993D01*
X210862075Y-80071007D01*
X210845037Y-80134591D01*
X210212728Y-79502282D01*
X210212727Y-79502282D01*
X210173380Y-79556440D01*
X210173376Y-79556446D01*
X210168760Y-79565505D01*
X210120781Y-79616297D01*
X210052959Y-79633087D01*
X209986826Y-79610543D01*
X209947794Y-79565493D01*
X209943051Y-79556184D01*
X209943049Y-79556181D01*
X209943048Y-79556179D01*
X209818109Y-79384213D01*
X209721420Y-79287524D01*
X209667792Y-79233896D01*
X209590130Y-79177471D01*
X209586842Y-79174715D01*
X209569762Y-79149071D01*
X209550949Y-79124673D01*
X209549942Y-79119312D01*
X209548111Y-79116563D01*
X209547985Y-79108892D01*
X209542500Y-79079685D01*
X209542500Y-67927886D01*
X209562185Y-67860847D01*
X209578819Y-67840205D01*
X211125973Y-66293051D01*
X212678416Y-64740607D01*
X212739737Y-64707124D01*
X212809429Y-64712108D01*
X212865362Y-64753980D01*
X212888568Y-64808889D01*
X212893714Y-64841378D01*
X212961297Y-65049380D01*
X212961298Y-65049383D01*
X213060595Y-65244260D01*
X213189142Y-65421193D01*
X213343806Y-65575857D01*
X213494969Y-65685682D01*
X213537635Y-65741011D01*
X213543614Y-65810625D01*
X213511009Y-65872420D01*
X213494969Y-65886318D01*
X213343806Y-65996142D01*
X213189142Y-66150806D01*
X213060595Y-66327739D01*
X212961298Y-66522616D01*
X212961297Y-66522619D01*
X212893714Y-66730623D01*
X212859500Y-66946638D01*
X212859500Y-67165361D01*
X212893714Y-67381376D01*
X212961297Y-67589380D01*
X212961298Y-67589383D01*
X213060595Y-67784260D01*
X213189142Y-67961193D01*
X213343806Y-68115857D01*
X213494969Y-68225682D01*
X213537635Y-68281011D01*
X213543614Y-68350625D01*
X213511009Y-68412420D01*
X213494969Y-68426318D01*
X213343806Y-68536142D01*
X213189142Y-68690806D01*
X213060595Y-68867739D01*
X212961298Y-69062616D01*
X212961297Y-69062619D01*
X212893714Y-69270623D01*
X212859500Y-69486638D01*
X212859500Y-69705361D01*
X212893714Y-69921376D01*
X212961297Y-70129380D01*
X212961298Y-70129383D01*
X213060595Y-70324260D01*
X213189142Y-70501193D01*
X213343806Y-70655857D01*
X213494969Y-70765682D01*
X213537635Y-70821011D01*
X213543614Y-70890625D01*
X213511009Y-70952420D01*
X213494969Y-70966318D01*
X213343806Y-71076142D01*
X213189142Y-71230806D01*
X213060595Y-71407739D01*
X212961298Y-71602616D01*
X212961297Y-71602619D01*
X212893714Y-71810623D01*
X212859500Y-72026638D01*
X212859500Y-72245361D01*
X212893714Y-72461376D01*
X212961297Y-72669380D01*
X212961298Y-72669383D01*
X212989355Y-72724446D01*
X213040188Y-72824211D01*
X213060595Y-72864260D01*
X213189142Y-73041193D01*
X213343806Y-73195857D01*
X213481799Y-73296113D01*
X213520743Y-73324407D01*
X213614304Y-73372079D01*
X213715616Y-73423701D01*
X213715619Y-73423702D01*
X213819621Y-73457493D01*
X213923625Y-73491286D01*
X214023672Y-73507132D01*
X214139639Y-73525500D01*
X214139644Y-73525500D01*
X216136361Y-73525500D01*
X216242983Y-73508612D01*
X216352375Y-73491286D01*
X216560383Y-73423701D01*
X216755257Y-73324407D01*
X216854601Y-73252229D01*
X216932193Y-73195857D01*
X216932195Y-73195854D01*
X216932199Y-73195852D01*
X217086852Y-73041199D01*
X217086854Y-73041195D01*
X217086857Y-73041193D01*
X217174758Y-72920206D01*
X217215407Y-72864257D01*
X217314701Y-72669383D01*
X217382286Y-72461375D01*
X217409966Y-72286611D01*
X217416500Y-72245361D01*
X217416500Y-72026638D01*
X217396595Y-71900971D01*
X217382286Y-71810625D01*
X217314701Y-71602617D01*
X217314701Y-71602616D01*
X217254643Y-71484748D01*
X217215407Y-71407743D01*
X217152375Y-71320986D01*
X217086857Y-71230806D01*
X216932199Y-71076148D01*
X216905307Y-71056610D01*
X216781028Y-70966316D01*
X216738364Y-70910989D01*
X216732385Y-70841376D01*
X216764990Y-70779580D01*
X216781023Y-70765686D01*
X216932199Y-70655852D01*
X217086852Y-70501199D01*
X217195607Y-70351509D01*
X217250935Y-70308845D01*
X217320548Y-70302866D01*
X217382344Y-70335471D01*
X217383605Y-70336715D01*
X218067181Y-71020291D01*
X218100666Y-71081614D01*
X218103500Y-71107972D01*
X218103500Y-85191136D01*
X218083815Y-85258175D01*
X218031011Y-85303930D01*
X218026953Y-85305697D01*
X217900205Y-85358198D01*
X217900202Y-85358199D01*
X217900202Y-85358200D01*
X217776851Y-85452851D01*
X217685669Y-85571682D01*
X217682198Y-85576205D01*
X217622699Y-85719848D01*
X217622698Y-85719850D01*
X217607500Y-85835298D01*
X217607500Y-86632703D01*
X217622696Y-86748142D01*
X217622699Y-86748151D01*
X217669028Y-86860000D01*
X217682200Y-86891798D01*
X217776851Y-87015149D01*
X217900202Y-87109800D01*
X218043849Y-87169301D01*
X218159299Y-87184500D01*
X219556700Y-87184499D01*
X219556703Y-87184499D01*
X219672142Y-87169303D01*
X219672146Y-87169301D01*
X219672151Y-87169301D01*
X219815798Y-87109800D01*
X219939149Y-87015149D01*
X220033800Y-86891798D01*
X220093301Y-86748151D01*
X220108500Y-86632701D01*
X220108499Y-85835300D01*
X220108499Y-85835298D01*
X220108499Y-85835296D01*
X220093303Y-85719857D01*
X220093301Y-85719850D01*
X220093301Y-85719849D01*
X220033800Y-85576202D01*
X219939149Y-85452851D01*
X219815798Y-85358200D01*
X219815794Y-85358198D01*
X219689047Y-85305697D01*
X219634644Y-85261856D01*
X219612579Y-85195561D01*
X219612500Y-85191136D01*
X219612500Y-74009154D01*
X230165001Y-74009154D01*
X230175319Y-74110152D01*
X230229546Y-74273800D01*
X230229551Y-74273811D01*
X230320052Y-74420534D01*
X230320055Y-74420538D01*
X230441961Y-74542444D01*
X230441965Y-74542447D01*
X230588688Y-74632948D01*
X230588699Y-74632953D01*
X230752347Y-74687180D01*
X230853352Y-74697499D01*
X230890000Y-74697499D01*
X231390000Y-74697499D01*
X231426640Y-74697499D01*
X231426654Y-74697498D01*
X231527652Y-74687180D01*
X231691300Y-74632953D01*
X231691311Y-74632948D01*
X231838034Y-74542447D01*
X231838038Y-74542444D01*
X231959944Y-74420538D01*
X231959947Y-74420534D01*
X232050448Y-74273811D01*
X232050453Y-74273800D01*
X232104680Y-74110152D01*
X232114999Y-74009154D01*
X232115000Y-74009141D01*
X232115000Y-73910000D01*
X231390000Y-73910000D01*
X231390000Y-74697499D01*
X230890000Y-74697499D01*
X230890000Y-73910000D01*
X230165001Y-73910000D01*
X230165001Y-74009154D01*
X219612500Y-74009154D01*
X219612500Y-70669773D01*
X219612499Y-70669769D01*
X219609731Y-70655851D01*
X219583505Y-70524006D01*
X219526629Y-70386696D01*
X219516882Y-70372109D01*
X219444060Y-70263121D01*
X219444054Y-70263114D01*
X219334647Y-70153707D01*
X219334624Y-70153686D01*
X217185003Y-68004064D01*
X217151518Y-67942741D01*
X217156502Y-67873049D01*
X217172366Y-67843497D01*
X217182038Y-67830185D01*
X217215407Y-67784257D01*
X217314701Y-67589383D01*
X217382286Y-67381375D01*
X217409966Y-67206611D01*
X217416500Y-67165361D01*
X217416500Y-66946638D01*
X217396595Y-66820971D01*
X217382286Y-66730625D01*
X217348493Y-66626621D01*
X217314702Y-66522619D01*
X217314701Y-66522616D01*
X217245789Y-66387371D01*
X217215407Y-66327743D01*
X217207147Y-66316374D01*
X217086857Y-66150806D01*
X216932199Y-65996148D01*
X216932191Y-65996142D01*
X216781028Y-65886316D01*
X216738364Y-65830989D01*
X216732385Y-65761376D01*
X216764990Y-65699580D01*
X216781023Y-65685686D01*
X216932199Y-65575852D01*
X217086852Y-65421199D01*
X217086854Y-65421195D01*
X217086857Y-65421193D01*
X217154956Y-65327461D01*
X217215407Y-65244257D01*
X217314701Y-65049383D01*
X217382286Y-64841375D01*
X217409966Y-64666611D01*
X217416500Y-64625361D01*
X217416500Y-64406638D01*
X217388453Y-64229565D01*
X217382286Y-64190625D01*
X217314701Y-63982617D01*
X217314701Y-63982616D01*
X217269583Y-63894068D01*
X217215407Y-63787743D01*
X217206234Y-63775118D01*
X217086857Y-63610806D01*
X216932199Y-63456148D01*
X216867262Y-63408969D01*
X216781028Y-63346316D01*
X216738364Y-63290989D01*
X216732385Y-63221376D01*
X216764990Y-63159580D01*
X216781023Y-63145686D01*
X216932199Y-63035852D01*
X217086852Y-62881199D01*
X217086854Y-62881195D01*
X217086857Y-62881193D01*
X217149184Y-62795406D01*
X217215407Y-62704257D01*
X217314701Y-62509383D01*
X217382286Y-62301375D01*
X217413374Y-62105094D01*
X217416500Y-62085361D01*
X217416500Y-61866638D01*
X217386285Y-61675874D01*
X217382286Y-61650625D01*
X217381075Y-61646899D01*
X217378558Y-61639149D01*
X217378557Y-61639148D01*
X217367131Y-61603983D01*
X230079500Y-61603983D01*
X230079500Y-63364001D01*
X230079501Y-63364018D01*
X230090000Y-63466796D01*
X230090001Y-63466799D01*
X230124864Y-63572006D01*
X230145186Y-63633334D01*
X230219897Y-63754461D01*
X230237289Y-63782657D01*
X230349181Y-63894549D01*
X230382666Y-63955872D01*
X230385500Y-63982230D01*
X230385500Y-71056948D01*
X230365815Y-71123987D01*
X230349181Y-71144629D01*
X230319661Y-71174148D01*
X230229093Y-71320981D01*
X230229092Y-71320984D01*
X230174826Y-71484747D01*
X230174826Y-71484748D01*
X230174825Y-71484748D01*
X230164500Y-71585815D01*
X230164500Y-72284169D01*
X230164501Y-72284187D01*
X230174825Y-72385252D01*
X230229092Y-72549015D01*
X230229093Y-72549018D01*
X230257576Y-72595196D01*
X230319659Y-72695849D01*
X230319661Y-72695851D01*
X230333982Y-72710172D01*
X230367467Y-72771495D01*
X230362483Y-72841187D01*
X230333985Y-72885532D01*
X230320052Y-72899465D01*
X230229551Y-73046188D01*
X230229546Y-73046199D01*
X230175319Y-73209847D01*
X230165000Y-73310845D01*
X230165000Y-73410000D01*
X232114999Y-73410000D01*
X232114999Y-73310860D01*
X232114998Y-73310845D01*
X232104680Y-73209847D01*
X232050453Y-73046199D01*
X232050448Y-73046188D01*
X231959947Y-72899465D01*
X231959944Y-72899461D01*
X231946017Y-72885534D01*
X231912532Y-72824211D01*
X231917516Y-72754519D01*
X231946017Y-72710172D01*
X231960340Y-72695850D01*
X232050908Y-72549016D01*
X232105174Y-72385253D01*
X232115500Y-72284177D01*
X232115499Y-71585824D01*
X232105174Y-71484747D01*
X232050908Y-71320984D01*
X231960340Y-71174150D01*
X231930819Y-71144629D01*
X231897334Y-71083306D01*
X231894500Y-71056948D01*
X231894500Y-63982230D01*
X231914185Y-63915191D01*
X231930819Y-63894549D01*
X231977997Y-63847371D01*
X232042712Y-63782656D01*
X232134814Y-63633334D01*
X232189999Y-63466797D01*
X232200500Y-63364009D01*
X232200499Y-61603992D01*
X232189999Y-61501203D01*
X232134814Y-61334666D01*
X232042712Y-61185344D01*
X231918656Y-61061288D01*
X231769334Y-60969186D01*
X231602797Y-60914001D01*
X231602795Y-60914000D01*
X231500010Y-60903500D01*
X230779998Y-60903500D01*
X230779980Y-60903501D01*
X230677203Y-60914000D01*
X230677200Y-60914001D01*
X230510668Y-60969185D01*
X230510663Y-60969187D01*
X230361342Y-61061289D01*
X230237289Y-61185342D01*
X230145187Y-61334663D01*
X230145186Y-61334666D01*
X230090001Y-61501203D01*
X230090001Y-61501204D01*
X230090000Y-61501204D01*
X230079500Y-61603983D01*
X217367131Y-61603983D01*
X217314702Y-61442619D01*
X217314701Y-61442616D01*
X217245789Y-61307371D01*
X217215407Y-61247743D01*
X217207147Y-61236374D01*
X217086857Y-61070806D01*
X216932197Y-60916146D01*
X216932192Y-60916142D01*
X216780605Y-60806008D01*
X216737939Y-60750678D01*
X216731960Y-60681065D01*
X216764565Y-60619270D01*
X216780605Y-60605371D01*
X216931873Y-60495469D01*
X217086471Y-60340871D01*
X217086475Y-60340866D01*
X217214976Y-60163998D01*
X217314237Y-59969191D01*
X217314238Y-59969188D01*
X217381798Y-59761258D01*
X217393718Y-59686000D01*
X214818251Y-59686000D01*
X214849381Y-59632081D01*
X214884000Y-59502880D01*
X214884000Y-59369120D01*
X214849381Y-59239919D01*
X214818251Y-59186000D01*
X217393718Y-59186000D01*
X217381798Y-59110741D01*
X217314238Y-58902811D01*
X217314237Y-58902808D01*
X217214976Y-58708001D01*
X217086475Y-58531133D01*
X217086471Y-58531128D01*
X216931871Y-58376528D01*
X216931866Y-58376524D01*
X216780605Y-58266627D01*
X216737939Y-58211297D01*
X216731960Y-58141684D01*
X216764565Y-58079889D01*
X216780599Y-58065994D01*
X216932199Y-57955852D01*
X217086852Y-57801199D01*
X217086854Y-57801195D01*
X217086857Y-57801193D01*
X217143229Y-57723601D01*
X217215407Y-57624257D01*
X217314701Y-57429383D01*
X217382286Y-57221375D01*
X217399912Y-57110082D01*
X217416500Y-57005361D01*
X217416500Y-56786638D01*
X217396595Y-56660971D01*
X217382286Y-56570625D01*
X217314701Y-56362617D01*
X217314701Y-56362616D01*
X217280315Y-56295132D01*
X217215407Y-56167743D01*
X217207147Y-56156374D01*
X217086857Y-55990806D01*
X216932193Y-55836142D01*
X216755260Y-55707595D01*
X216755259Y-55707594D01*
X216755257Y-55707593D01*
X216692825Y-55675782D01*
X216560383Y-55608298D01*
X216560380Y-55608297D01*
X216352376Y-55540714D01*
X216136361Y-55506500D01*
X216136356Y-55506500D01*
X214139644Y-55506500D01*
X214139639Y-55506500D01*
X213923623Y-55540714D01*
X213715619Y-55608297D01*
X213715616Y-55608298D01*
X213520739Y-55707595D01*
X213343806Y-55836142D01*
X213189142Y-55990806D01*
X213060595Y-56167739D01*
X212961298Y-56362616D01*
X212961297Y-56362619D01*
X212893714Y-56570623D01*
X212859500Y-56786638D01*
X212859500Y-57005361D01*
X212893714Y-57221376D01*
X212961297Y-57429380D01*
X212961298Y-57429383D01*
X213060595Y-57624260D01*
X213189142Y-57801193D01*
X213343802Y-57955853D01*
X213343807Y-57955857D01*
X213495394Y-58065991D01*
X213538060Y-58121320D01*
X213544039Y-58190934D01*
X213511434Y-58252729D01*
X213495394Y-58266627D01*
X213344133Y-58376524D01*
X213344128Y-58376528D01*
X213189528Y-58531128D01*
X213189524Y-58531133D01*
X213061023Y-58708001D01*
X212961762Y-58902808D01*
X212961761Y-58902811D01*
X212894201Y-59110741D01*
X212882282Y-59186000D01*
X213933749Y-59186000D01*
X213902619Y-59239919D01*
X213868000Y-59369120D01*
X213868000Y-59502880D01*
X213902619Y-59632081D01*
X213933749Y-59686000D01*
X212882282Y-59686000D01*
X212894201Y-59761258D01*
X212961761Y-59969188D01*
X212961762Y-59969191D01*
X213061023Y-60163998D01*
X213189524Y-60340866D01*
X213189528Y-60340871D01*
X213344128Y-60495471D01*
X213344133Y-60495475D01*
X213495394Y-60605372D01*
X213538060Y-60660701D01*
X213544039Y-60730315D01*
X213511434Y-60792110D01*
X213495394Y-60806008D01*
X213343807Y-60916142D01*
X213343802Y-60916146D01*
X213189142Y-61070806D01*
X213060595Y-61247739D01*
X212961298Y-61442616D01*
X212961297Y-61442619D01*
X212893714Y-61650623D01*
X212859500Y-61866638D01*
X212859500Y-62085361D01*
X212893714Y-62301378D01*
X212894852Y-62306118D01*
X212892652Y-62306645D01*
X212894145Y-62367263D01*
X212862025Y-62422949D01*
X208201943Y-67083030D01*
X208201942Y-67083031D01*
X208119372Y-67206607D01*
X208119366Y-67206618D01*
X208062496Y-67343916D01*
X208062493Y-67343926D01*
X208033499Y-67489685D01*
X208033499Y-67644425D01*
X208033500Y-67644446D01*
X208033500Y-79079685D01*
X208013815Y-79146724D01*
X207982387Y-79180001D01*
X207928058Y-79219473D01*
X207908205Y-79233898D01*
X207757890Y-79384213D01*
X207632949Y-79556182D01*
X207628484Y-79564946D01*
X207580509Y-79615742D01*
X207512688Y-79632536D01*
X207446553Y-79609998D01*
X207407516Y-79564946D01*
X207403050Y-79556182D01*
X207278109Y-79384213D01*
X207127794Y-79233898D01*
X207127792Y-79233896D01*
X207053613Y-79180001D01*
X207010949Y-79124673D01*
X207002500Y-79079685D01*
X207002500Y-72724446D01*
X207002501Y-72724425D01*
X207002501Y-72569685D01*
X206973506Y-72423926D01*
X206973505Y-72423922D01*
X206957488Y-72385253D01*
X206949946Y-72367045D01*
X206949946Y-72367044D01*
X206916633Y-72286618D01*
X206916632Y-72286617D01*
X206916630Y-72286611D01*
X206834059Y-72163034D01*
X206834057Y-72163031D01*
X203680968Y-69009942D01*
X203639773Y-68982417D01*
X203557389Y-68927370D01*
X203557386Y-68927368D01*
X203557385Y-68927368D01*
X203476955Y-68894053D01*
X203420080Y-68870495D01*
X203395894Y-68865684D01*
X203274314Y-68841499D01*
X203274312Y-68841499D01*
X203125688Y-68841499D01*
X203119574Y-68841499D01*
X203119554Y-68841500D01*
X200495521Y-68841500D01*
X200428482Y-68821815D01*
X200395205Y-68790388D01*
X200322852Y-68690801D01*
X200168199Y-68536148D01*
X200017028Y-68426316D01*
X199974364Y-68370989D01*
X199968385Y-68301376D01*
X200000990Y-68239580D01*
X200017023Y-68225686D01*
X200168199Y-68115852D01*
X200322852Y-67961199D01*
X200322854Y-67961195D01*
X200322857Y-67961193D01*
X200390956Y-67867461D01*
X200451407Y-67784257D01*
X200550701Y-67589383D01*
X200618286Y-67381375D01*
X200645966Y-67206611D01*
X200652500Y-67165361D01*
X200652500Y-66946638D01*
X200632595Y-66820971D01*
X200618286Y-66730625D01*
X200584493Y-66626621D01*
X200550702Y-66522619D01*
X200550701Y-66522616D01*
X200481789Y-66387371D01*
X200451407Y-66327743D01*
X200443147Y-66316374D01*
X200322857Y-66150806D01*
X200168199Y-65996148D01*
X200168191Y-65996142D01*
X200017028Y-65886316D01*
X199974364Y-65830989D01*
X199968385Y-65761376D01*
X200000990Y-65699580D01*
X200017023Y-65685686D01*
X200168199Y-65575852D01*
X200322852Y-65421199D01*
X200322854Y-65421195D01*
X200322857Y-65421193D01*
X200390956Y-65327461D01*
X200451407Y-65244257D01*
X200550701Y-65049383D01*
X200618286Y-64841375D01*
X200645966Y-64666611D01*
X200652500Y-64625361D01*
X200652500Y-64406638D01*
X200624453Y-64229565D01*
X200618286Y-64190625D01*
X200550701Y-63982617D01*
X200550701Y-63982616D01*
X200505583Y-63894068D01*
X200451407Y-63787743D01*
X200442234Y-63775118D01*
X200322857Y-63610806D01*
X200168199Y-63456148D01*
X200103262Y-63408969D01*
X200017028Y-63346316D01*
X200002827Y-63327900D01*
X199985317Y-63312598D01*
X199981893Y-63300753D01*
X199974364Y-63290989D01*
X199972373Y-63267818D01*
X199965916Y-63245476D01*
X199969440Y-63233659D01*
X199968385Y-63221376D01*
X199979237Y-63200807D01*
X199985884Y-63178521D01*
X199997406Y-63166371D01*
X200000990Y-63159580D01*
X200007143Y-63156104D01*
X200017027Y-63145684D01*
X200168199Y-63035852D01*
X200214327Y-62989723D01*
X200223243Y-62984854D01*
X200229479Y-62976828D01*
X200253393Y-62968391D01*
X200275648Y-62956239D01*
X200285785Y-62956963D01*
X200295369Y-62953583D01*
X200320047Y-62959414D01*
X200345339Y-62961223D01*
X200353473Y-62967312D01*
X200363366Y-62969650D01*
X200380976Y-62987900D01*
X200401273Y-63003094D01*
X200406115Y-63013953D01*
X200411882Y-63019929D01*
X200423624Y-63053212D01*
X200432688Y-63098777D01*
X200432688Y-63098779D01*
X200442493Y-63148072D01*
X200442495Y-63148080D01*
X200449257Y-63164406D01*
X200449258Y-63164407D01*
X200499368Y-63285385D01*
X200499372Y-63285392D01*
X200581942Y-63408968D01*
X200581943Y-63408969D01*
X201295462Y-64122487D01*
X201328947Y-64183810D01*
X201330254Y-64229565D01*
X201303000Y-64401645D01*
X201303000Y-64630353D01*
X201338778Y-64856246D01*
X201338778Y-64856249D01*
X201409450Y-65073755D01*
X201496325Y-65244257D01*
X201513283Y-65277538D01*
X201647714Y-65462566D01*
X201809434Y-65624286D01*
X201994462Y-65758717D01*
X202136304Y-65830989D01*
X202198244Y-65862549D01*
X202415751Y-65933221D01*
X202415752Y-65933221D01*
X202415755Y-65933222D01*
X202641646Y-65969000D01*
X202641647Y-65969000D01*
X202870353Y-65969000D01*
X202870354Y-65969000D01*
X203096245Y-65933222D01*
X203096248Y-65933221D01*
X203096249Y-65933221D01*
X203313755Y-65862549D01*
X203313755Y-65862548D01*
X203313758Y-65862548D01*
X203517538Y-65758717D01*
X203702566Y-65624286D01*
X203864286Y-65462566D01*
X203998717Y-65277538D01*
X204102548Y-65073758D01*
X204142741Y-64950056D01*
X204173221Y-64856249D01*
X204173221Y-64856248D01*
X204173222Y-64856245D01*
X204209000Y-64630354D01*
X204209000Y-64401646D01*
X204173222Y-64175755D01*
X204173221Y-64175751D01*
X204173221Y-64175750D01*
X204102549Y-63958244D01*
X204088127Y-63929939D01*
X203998717Y-63754462D01*
X203864286Y-63569434D01*
X203702566Y-63407714D01*
X203638190Y-63360942D01*
X203595526Y-63305613D01*
X203587459Y-63250897D01*
X203591098Y-63204651D01*
X202891942Y-62505495D01*
X202952081Y-62489381D01*
X203067920Y-62422502D01*
X203162502Y-62327920D01*
X203229381Y-62212081D01*
X203245494Y-62151942D01*
X203944651Y-62851099D01*
X203944651Y-62851098D01*
X203998288Y-62777276D01*
X204102082Y-62573568D01*
X204172734Y-62356125D01*
X204172734Y-62356124D01*
X204208500Y-62130313D01*
X204208500Y-61901686D01*
X204172734Y-61675875D01*
X204172734Y-61675874D01*
X204102082Y-61458431D01*
X203998292Y-61254731D01*
X203998288Y-61254725D01*
X203944651Y-61180900D01*
X203944651Y-61180899D01*
X203245494Y-61880056D01*
X203229381Y-61819919D01*
X203162502Y-61704080D01*
X203067920Y-61609498D01*
X202952081Y-61542619D01*
X202891941Y-61526504D01*
X203591099Y-60827347D01*
X203517276Y-60773711D01*
X203313568Y-60669917D01*
X203096124Y-60599265D01*
X202870313Y-60563500D01*
X202641687Y-60563500D01*
X202415875Y-60599265D01*
X202415874Y-60599265D01*
X202198431Y-60669917D01*
X202102795Y-60718646D01*
X202034125Y-60731542D01*
X201969385Y-60705265D01*
X201929128Y-60648159D01*
X201922500Y-60608161D01*
X201922500Y-54211887D01*
X201942185Y-54144848D01*
X201958819Y-54124206D01*
X202460206Y-53622819D01*
X202521529Y-53589334D01*
X202547887Y-53586500D01*
X227854113Y-53586500D01*
X227921152Y-53606185D01*
X227941794Y-53622819D01*
X230043181Y-55724206D01*
X230076666Y-55785529D01*
X230079500Y-55811887D01*
X230079500Y-56634001D01*
X230079501Y-56634019D01*
X230090000Y-56736796D01*
X230090001Y-56736799D01*
X230145185Y-56903331D01*
X230145186Y-56903334D01*
X230237288Y-57052656D01*
X230361344Y-57176712D01*
X230510666Y-57268814D01*
X230677203Y-57323999D01*
X230779991Y-57334500D01*
X231500008Y-57334499D01*
X231580632Y-57326263D01*
X231649325Y-57339033D01*
X231680915Y-57361940D01*
X233397181Y-59078206D01*
X233430666Y-59139529D01*
X233433500Y-59165887D01*
X233433500Y-85488112D01*
X233413815Y-85555151D01*
X233397181Y-85575793D01*
X232701681Y-86271293D01*
X232640358Y-86304778D01*
X232570666Y-86299794D01*
X232514733Y-86257922D01*
X232490316Y-86192458D01*
X232490000Y-86183612D01*
X232490000Y-85462172D01*
X232489999Y-85462155D01*
X232483598Y-85402627D01*
X232483596Y-85402620D01*
X232433354Y-85267913D01*
X232433350Y-85267906D01*
X232347190Y-85152812D01*
X232347187Y-85152809D01*
X232232093Y-85066649D01*
X232232086Y-85066645D01*
X232097379Y-85016403D01*
X232097372Y-85016401D01*
X232037844Y-85010000D01*
X231390000Y-85010000D01*
X231390000Y-85926988D01*
X231332993Y-85894075D01*
X231205826Y-85860000D01*
X231074174Y-85860000D01*
X230947007Y-85894075D01*
X230890000Y-85926988D01*
X230890000Y-85010000D01*
X230242155Y-85010000D01*
X230182627Y-85016401D01*
X230182620Y-85016403D01*
X230047913Y-85066645D01*
X230047906Y-85066649D01*
X229932812Y-85152809D01*
X229932809Y-85152812D01*
X229846649Y-85267906D01*
X229846645Y-85267913D01*
X229796403Y-85402620D01*
X229796401Y-85402627D01*
X229790000Y-85462155D01*
X229790000Y-86110000D01*
X230706988Y-86110000D01*
X230674075Y-86167007D01*
X230640000Y-86294174D01*
X230640000Y-86425826D01*
X230674075Y-86552993D01*
X230706988Y-86610000D01*
X229790000Y-86610000D01*
X229790000Y-87257844D01*
X229796401Y-87317372D01*
X229796403Y-87317379D01*
X229846645Y-87452086D01*
X229846649Y-87452093D01*
X229932809Y-87567187D01*
X229932812Y-87567190D01*
X230047906Y-87653350D01*
X230047913Y-87653354D01*
X230179470Y-87702422D01*
X230235404Y-87744293D01*
X230259821Y-87809758D01*
X230244969Y-87878031D01*
X230223819Y-87906285D01*
X230109889Y-88020215D01*
X229984951Y-88192179D01*
X229888444Y-88381585D01*
X229822753Y-88583760D01*
X229789500Y-88793713D01*
X229789500Y-89006286D01*
X229809933Y-89135299D01*
X229822754Y-89216243D01*
X229883073Y-89401886D01*
X229888444Y-89418414D01*
X229984951Y-89607820D01*
X230109890Y-89779786D01*
X230260213Y-89930109D01*
X230432179Y-90055048D01*
X230432181Y-90055049D01*
X230432184Y-90055051D01*
X230621588Y-90151557D01*
X230823757Y-90217246D01*
X231033713Y-90250500D01*
X231033714Y-90250500D01*
X231246286Y-90250500D01*
X231246287Y-90250500D01*
X231456243Y-90217246D01*
X231658412Y-90151557D01*
X231847816Y-90055051D01*
X231869789Y-90039086D01*
X232019786Y-89930109D01*
X232019788Y-89930106D01*
X232019792Y-89930104D01*
X232170104Y-89779792D01*
X232170106Y-89779788D01*
X232170109Y-89779786D01*
X232295048Y-89607820D01*
X232295047Y-89607820D01*
X232295051Y-89607816D01*
X232391557Y-89418412D01*
X232457246Y-89216243D01*
X232490500Y-89006287D01*
X232490500Y-88793713D01*
X232476156Y-88703151D01*
X232485110Y-88633861D01*
X232510945Y-88596078D01*
X234774059Y-86332966D01*
X234856630Y-86209389D01*
X234913505Y-86072079D01*
X234925017Y-86014205D01*
X234942501Y-85926314D01*
X234942501Y-85772578D01*
X234942500Y-85772552D01*
X234942500Y-58882446D01*
X234942501Y-58882425D01*
X234942501Y-58727685D01*
X234913506Y-58581926D01*
X234913505Y-58581925D01*
X234913505Y-58581921D01*
X234856630Y-58444611D01*
X234774059Y-58321034D01*
X234774057Y-58321031D01*
X232236818Y-55783792D01*
X232203333Y-55722469D01*
X232200499Y-55696111D01*
X232200499Y-54873998D01*
X232200498Y-54873981D01*
X232189999Y-54771203D01*
X232189998Y-54771200D01*
X232176530Y-54730556D01*
X232134814Y-54604666D01*
X232042712Y-54455344D01*
X231918656Y-54331288D01*
X231769334Y-54239186D01*
X231602797Y-54184001D01*
X231602795Y-54184000D01*
X231500010Y-54173500D01*
X230779998Y-54173500D01*
X230779977Y-54173502D01*
X230699365Y-54181736D01*
X230630672Y-54168966D01*
X230599084Y-54146059D01*
X228720803Y-52267777D01*
X228698968Y-52245942D01*
X228639715Y-52206351D01*
X228605618Y-52183568D01*
X234471500Y-52183568D01*
X234471500Y-52464431D01*
X234502942Y-52743494D01*
X234502945Y-52743512D01*
X234565439Y-53017317D01*
X234565443Y-53017329D01*
X234658200Y-53282411D01*
X234780053Y-53535442D01*
X234780055Y-53535445D01*
X234929477Y-53773248D01*
X235104584Y-53992825D01*
X235303175Y-54191416D01*
X235522752Y-54366523D01*
X235760555Y-54515945D01*
X236013592Y-54637801D01*
X236212680Y-54707465D01*
X236278670Y-54730556D01*
X236278682Y-54730560D01*
X236552491Y-54793055D01*
X236552497Y-54793055D01*
X236552505Y-54793057D01*
X236738547Y-54814018D01*
X236831569Y-54824499D01*
X236831572Y-54824500D01*
X236831575Y-54824500D01*
X237112428Y-54824500D01*
X237112429Y-54824499D01*
X237255055Y-54808429D01*
X237391494Y-54793057D01*
X237391499Y-54793056D01*
X237391509Y-54793055D01*
X237665318Y-54730560D01*
X237930408Y-54637801D01*
X238183445Y-54515945D01*
X238421248Y-54366523D01*
X238640825Y-54191416D01*
X238839416Y-53992825D01*
X239014523Y-53773248D01*
X239163945Y-53535445D01*
X239285801Y-53282408D01*
X239378560Y-53017318D01*
X239441055Y-52743509D01*
X239472500Y-52464425D01*
X239472500Y-52183575D01*
X239441055Y-51904491D01*
X239378560Y-51630682D01*
X239285801Y-51365592D01*
X239163945Y-51112555D01*
X239014523Y-50874752D01*
X238839416Y-50655175D01*
X238640825Y-50456584D01*
X238421248Y-50281477D01*
X238183445Y-50132055D01*
X238183442Y-50132053D01*
X237930411Y-50010200D01*
X237665329Y-49917443D01*
X237665317Y-49917439D01*
X237391512Y-49854945D01*
X237391494Y-49854942D01*
X237112431Y-49823500D01*
X237112425Y-49823500D01*
X236831575Y-49823500D01*
X236831568Y-49823500D01*
X236552505Y-49854942D01*
X236552487Y-49854945D01*
X236278682Y-49917439D01*
X236278670Y-49917443D01*
X236013588Y-50010200D01*
X235760557Y-50132053D01*
X235522753Y-50281476D01*
X235303175Y-50456583D01*
X235104583Y-50655175D01*
X234929476Y-50874753D01*
X234780053Y-51112557D01*
X234658200Y-51365588D01*
X234565443Y-51630670D01*
X234565439Y-51630682D01*
X234502945Y-51904487D01*
X234502942Y-51904505D01*
X234471500Y-52183568D01*
X228605618Y-52183568D01*
X228575389Y-52163370D01*
X228575386Y-52163368D01*
X228575385Y-52163368D01*
X228494955Y-52130053D01*
X228438080Y-52106495D01*
X228413894Y-52101684D01*
X228405911Y-52100096D01*
X228292314Y-52077499D01*
X228292312Y-52077499D01*
X228143688Y-52077499D01*
X228137574Y-52077499D01*
X228137554Y-52077500D01*
X202264446Y-52077500D01*
X202264426Y-52077499D01*
X202258312Y-52077499D01*
X202109688Y-52077499D01*
X202109686Y-52077499D01*
X201996086Y-52100096D01*
X201996082Y-52100097D01*
X201988105Y-52101684D01*
X201963920Y-52106495D01*
X201907045Y-52130053D01*
X201903308Y-52131600D01*
X201903293Y-52131606D01*
X201826614Y-52163368D01*
X201703031Y-52245942D01*
X200581942Y-53367031D01*
X200499372Y-53490607D01*
X200499366Y-53490618D01*
X200471662Y-53557503D01*
X200471662Y-53557506D01*
X200453010Y-53602536D01*
X200453010Y-53602537D01*
X200442494Y-53627923D01*
X200442493Y-53627925D01*
X200413499Y-53773685D01*
X200413499Y-53928425D01*
X200413500Y-53928446D01*
X200413500Y-55782087D01*
X200393815Y-55849126D01*
X200341011Y-55894881D01*
X200271853Y-55904825D01*
X200208297Y-55875800D01*
X200201819Y-55869768D01*
X200168193Y-55836142D01*
X199991260Y-55707595D01*
X199991259Y-55707594D01*
X199991257Y-55707593D01*
X199928825Y-55675782D01*
X199796383Y-55608298D01*
X199796380Y-55608297D01*
X199588376Y-55540714D01*
X199372361Y-55506500D01*
X199372356Y-55506500D01*
X197375644Y-55506500D01*
X197375639Y-55506500D01*
X197159623Y-55540714D01*
X196951619Y-55608297D01*
X196951616Y-55608298D01*
X196756739Y-55707595D01*
X196579806Y-55836142D01*
X196425150Y-55990798D01*
X196425148Y-55990801D01*
X196352795Y-56090387D01*
X196297468Y-56133051D01*
X196252479Y-56141500D01*
X173816446Y-56141500D01*
X173816426Y-56141499D01*
X173810312Y-56141499D01*
X173661688Y-56141499D01*
X173661686Y-56141499D01*
X173548086Y-56164096D01*
X173548082Y-56164097D01*
X173540105Y-56165684D01*
X173515920Y-56170495D01*
X173459045Y-56194053D01*
X173455308Y-56195600D01*
X173455293Y-56195606D01*
X173378614Y-56227368D01*
X173255031Y-56309942D01*
X173255030Y-56309943D01*
X165699407Y-63865567D01*
X165638084Y-63899052D01*
X165568392Y-63894068D01*
X165512459Y-63852196D01*
X165490905Y-63803863D01*
X165490743Y-63803907D01*
X165490468Y-63802884D01*
X165490109Y-63802077D01*
X165489695Y-63799996D01*
X165489693Y-63799989D01*
X165489693Y-63799986D01*
X165428606Y-63572007D01*
X165338284Y-63353951D01*
X165338282Y-63353948D01*
X165338280Y-63353943D01*
X165288555Y-63267818D01*
X165220273Y-63149550D01*
X165133029Y-63035851D01*
X165076593Y-62962302D01*
X165076587Y-62962295D01*
X164909704Y-62795412D01*
X164909697Y-62795406D01*
X164722454Y-62651730D01*
X164722453Y-62651729D01*
X164722450Y-62651727D01*
X164587075Y-62573568D01*
X164518056Y-62533719D01*
X164518045Y-62533714D01*
X164299993Y-62443394D01*
X164072010Y-62382306D01*
X163838020Y-62351501D01*
X163838017Y-62351500D01*
X163838011Y-62351500D01*
X163601989Y-62351500D01*
X163601983Y-62351500D01*
X163601979Y-62351501D01*
X163367989Y-62382306D01*
X163140006Y-62443394D01*
X162921954Y-62533714D01*
X162921943Y-62533719D01*
X162717545Y-62651730D01*
X162530302Y-62795406D01*
X162530295Y-62795412D01*
X162363412Y-62962295D01*
X162363406Y-62962302D01*
X162219730Y-63149545D01*
X162101719Y-63353943D01*
X162101714Y-63353954D01*
X162011394Y-63572006D01*
X161950306Y-63799989D01*
X161919501Y-64033979D01*
X161919500Y-64033995D01*
X161919500Y-64270004D01*
X161919501Y-64270020D01*
X161950306Y-64504010D01*
X162011394Y-64731993D01*
X162101714Y-64950045D01*
X162101719Y-64950056D01*
X162172677Y-65072957D01*
X162219727Y-65154450D01*
X162219729Y-65154453D01*
X162219730Y-65154454D01*
X162363406Y-65341697D01*
X162363412Y-65341704D01*
X162530295Y-65508587D01*
X162530301Y-65508592D01*
X162717550Y-65652273D01*
X162807849Y-65704407D01*
X162921943Y-65770280D01*
X162921948Y-65770282D01*
X162921951Y-65770284D01*
X163140007Y-65860606D01*
X163367986Y-65921693D01*
X163367990Y-65921693D01*
X163367996Y-65921695D01*
X163370077Y-65922109D01*
X163370640Y-65922403D01*
X163371907Y-65922743D01*
X163371831Y-65923026D01*
X163431988Y-65954494D01*
X163466562Y-66015210D01*
X163462823Y-66084979D01*
X163433567Y-66131407D01*
X161593923Y-67971050D01*
X161532600Y-68004535D01*
X161486844Y-68005842D01*
X161396292Y-67991500D01*
X161396287Y-67991500D01*
X161183713Y-67991500D01*
X161135042Y-67999208D01*
X160973760Y-68024753D01*
X160771585Y-68090444D01*
X160582179Y-68186951D01*
X160410213Y-68311890D01*
X160259890Y-68462213D01*
X160134951Y-68634179D01*
X160038444Y-68823585D01*
X159972753Y-69025760D01*
X159939500Y-69235713D01*
X152096500Y-69235713D01*
X152096500Y-52183568D01*
X153667500Y-52183568D01*
X153667500Y-52464431D01*
X153698942Y-52743494D01*
X153698945Y-52743512D01*
X153761439Y-53017317D01*
X153761443Y-53017329D01*
X153854200Y-53282411D01*
X153976053Y-53535442D01*
X153976055Y-53535445D01*
X154125477Y-53773248D01*
X154300584Y-53992825D01*
X154499175Y-54191416D01*
X154718752Y-54366523D01*
X154956555Y-54515945D01*
X155209592Y-54637801D01*
X155408680Y-54707465D01*
X155474670Y-54730556D01*
X155474682Y-54730560D01*
X155748491Y-54793055D01*
X155748497Y-54793055D01*
X155748505Y-54793057D01*
X155934547Y-54814018D01*
X156027569Y-54824499D01*
X156027572Y-54824500D01*
X156027575Y-54824500D01*
X156308428Y-54824500D01*
X156308429Y-54824499D01*
X156451055Y-54808429D01*
X156587494Y-54793057D01*
X156587499Y-54793056D01*
X156587509Y-54793055D01*
X156861318Y-54730560D01*
X157126408Y-54637801D01*
X157379445Y-54515945D01*
X157617248Y-54366523D01*
X157836825Y-54191416D01*
X158035416Y-53992825D01*
X158210523Y-53773248D01*
X158359945Y-53535445D01*
X158481801Y-53282408D01*
X158574560Y-53017318D01*
X158637055Y-52743509D01*
X158668500Y-52464425D01*
X158668500Y-52183575D01*
X158637055Y-51904491D01*
X158574560Y-51630682D01*
X158481801Y-51365592D01*
X158359945Y-51112555D01*
X158210523Y-50874752D01*
X158035416Y-50655175D01*
X157836825Y-50456584D01*
X157617248Y-50281477D01*
X157379445Y-50132055D01*
X157379442Y-50132053D01*
X157126411Y-50010200D01*
X156861329Y-49917443D01*
X156861317Y-49917439D01*
X156587512Y-49854945D01*
X156587494Y-49854942D01*
X156308431Y-49823500D01*
X156308425Y-49823500D01*
X156027575Y-49823500D01*
X156027568Y-49823500D01*
X155748505Y-49854942D01*
X155748487Y-49854945D01*
X155474682Y-49917439D01*
X155474670Y-49917443D01*
X155209588Y-50010200D01*
X154956557Y-50132053D01*
X154718753Y-50281476D01*
X154499175Y-50456583D01*
X154300583Y-50655175D01*
X154125476Y-50874753D01*
X153976053Y-51112557D01*
X153854200Y-51365588D01*
X153761443Y-51630670D01*
X153761439Y-51630682D01*
X153698945Y-51904487D01*
X153698942Y-51904505D01*
X153667500Y-52183568D01*
X152096500Y-52183568D01*
X152096500Y-48758961D01*
X152097280Y-48745077D01*
X152097280Y-48745076D01*
X152107460Y-48654729D01*
X152113635Y-48627670D01*
X152141353Y-48548456D01*
X152153396Y-48523450D01*
X152198046Y-48452389D01*
X152215351Y-48430690D01*
X152274690Y-48371351D01*
X152296389Y-48354046D01*
X152367450Y-48309396D01*
X152392456Y-48297353D01*
X152471670Y-48269635D01*
X152498733Y-48263459D01*
X152561419Y-48256396D01*
X152589079Y-48253280D01*
X152602962Y-48252500D01*
X152661892Y-48252500D01*
X240530108Y-48252500D01*
X240589038Y-48252500D01*
X240602922Y-48253280D01*
G37*
%TD.AperFunction*%
%TD*%
M02*
