M48
; DRILL file {KiCad 9.0.6} date 2026-02-28T19:09:54-0800
; FORMAT={-:-/ absolute / metric / decimal}
; #@! TF.CreationDate,2026-02-28T19:09:54-08:00
; #@! TF.GenerationSoftware,Kicad,Pcbnew,9.0.6
; #@! TF.FileFunction,Plated,1,2,PTH
FMAT,2
METRIC
; #@! TA.AperFunction,Plated,PTH,ComponentDrill
T1C0.850
; #@! TA.AperFunction,Plated,PTH,ComponentDrill
T2C1.000
; #@! TA.AperFunction,Plated,PTH,ComponentDrill
T3C1.016
%
G90
G05
T1
X161.29Y-69.342
X161.29Y-76.962
X184.15Y-69.342
X184.15Y-76.962
T2
X8.915Y-3.325
X11.455Y-3.325
X13.995Y-3.325
X16.535Y-3.325
X19.075Y-3.325
X21.615Y-3.325
X24.155Y-3.325
X26.695Y-3.325
X203.708Y-80.264
X206.248Y-80.264
X208.788Y-80.264
X211.328Y-80.264
X231.14Y-86.36
X231.14Y-88.9
T3
X199.136Y-56.896
X199.136Y-59.436
X199.136Y-61.976
X199.136Y-64.516
X199.136Y-67.056
X199.136Y-69.596
X199.136Y-72.136
X202.756Y-62.016
X202.756Y-64.516
X214.376Y-56.896
X214.376Y-59.436
X214.376Y-61.976
X214.376Y-64.516
X214.376Y-67.056
X214.376Y-69.596
X214.376Y-72.136
M30
