%TF.GenerationSoftware,KiCad,Pcbnew,9.0.6*%
%TF.CreationDate,2026-03-12T17:08:10-07:00*%
%TF.ProjectId,Display_v2,44697370-6c61-4795-9f76-322e6b696361,rev?*%
%TF.SameCoordinates,Original*%
%TF.FileFunction,Legend,Top*%
%TF.FilePolarity,Positive*%
%FSLAX46Y46*%
G04 Gerber Fmt 4.6, Leading zero omitted, Abs format (unit mm)*
G04 Created by KiCad (PCBNEW 9.0.6) date 2026-03-12 17:08:10*
%MOMM*%
%LPD*%
G01*
G04 APERTURE LIST*
%ADD10C,0.150000*%
%ADD11C,0.100000*%
%ADD12C,0.120000*%
G04 APERTURE END LIST*
D10*
X213552819Y-89741333D02*
X214267104Y-89741333D01*
X214267104Y-89741333D02*
X214409961Y-89788952D01*
X214409961Y-89788952D02*
X214505200Y-89884190D01*
X214505200Y-89884190D02*
X214552819Y-90027047D01*
X214552819Y-90027047D02*
X214552819Y-90122285D01*
X213552819Y-89360380D02*
X213552819Y-88741333D01*
X213552819Y-88741333D02*
X213933771Y-89074666D01*
X213933771Y-89074666D02*
X213933771Y-88931809D01*
X213933771Y-88931809D02*
X213981390Y-88836571D01*
X213981390Y-88836571D02*
X214029009Y-88788952D01*
X214029009Y-88788952D02*
X214124247Y-88741333D01*
X214124247Y-88741333D02*
X214362342Y-88741333D01*
X214362342Y-88741333D02*
X214457580Y-88788952D01*
X214457580Y-88788952D02*
X214505200Y-88836571D01*
X214505200Y-88836571D02*
X214552819Y-88931809D01*
X214552819Y-88931809D02*
X214552819Y-89217523D01*
X214552819Y-89217523D02*
X214505200Y-89312761D01*
X214505200Y-89312761D02*
X214457580Y-89360380D01*
X200392819Y-80597333D02*
X201107104Y-80597333D01*
X201107104Y-80597333D02*
X201249961Y-80644952D01*
X201249961Y-80644952D02*
X201345200Y-80740190D01*
X201345200Y-80740190D02*
X201392819Y-80883047D01*
X201392819Y-80883047D02*
X201392819Y-80978285D01*
X200488057Y-80168761D02*
X200440438Y-80121142D01*
X200440438Y-80121142D02*
X200392819Y-80025904D01*
X200392819Y-80025904D02*
X200392819Y-79787809D01*
X200392819Y-79787809D02*
X200440438Y-79692571D01*
X200440438Y-79692571D02*
X200488057Y-79644952D01*
X200488057Y-79644952D02*
X200583295Y-79597333D01*
X200583295Y-79597333D02*
X200678533Y-79597333D01*
X200678533Y-79597333D02*
X200821390Y-79644952D01*
X200821390Y-79644952D02*
X201392819Y-80216380D01*
X201392819Y-80216380D02*
X201392819Y-79597333D01*
X230806666Y-83044819D02*
X230806666Y-83759104D01*
X230806666Y-83759104D02*
X230759047Y-83901961D01*
X230759047Y-83901961D02*
X230663809Y-83997200D01*
X230663809Y-83997200D02*
X230520952Y-84044819D01*
X230520952Y-84044819D02*
X230425714Y-84044819D01*
X231806666Y-84044819D02*
X231235238Y-84044819D01*
X231520952Y-84044819D02*
X231520952Y-83044819D01*
X231520952Y-83044819D02*
X231425714Y-83187676D01*
X231425714Y-83187676D02*
X231330476Y-83282914D01*
X231330476Y-83282914D02*
X231235238Y-83330533D01*
X230781666Y-68249819D02*
X230781666Y-68964104D01*
X230781666Y-68964104D02*
X230734047Y-69106961D01*
X230734047Y-69106961D02*
X230638809Y-69202200D01*
X230638809Y-69202200D02*
X230495952Y-69249819D01*
X230495952Y-69249819D02*
X230400714Y-69249819D01*
X231686428Y-68583152D02*
X231686428Y-69249819D01*
X231448333Y-68202200D02*
X231210238Y-68916485D01*
X231210238Y-68916485D02*
X231829285Y-68916485D01*
D11*
X173180476Y-93675419D02*
X173180476Y-92675419D01*
X173180476Y-92675419D02*
X173513809Y-93389704D01*
X173513809Y-93389704D02*
X173847142Y-92675419D01*
X173847142Y-92675419D02*
X173847142Y-93675419D01*
X174847142Y-93675419D02*
X174275714Y-93675419D01*
X174561428Y-93675419D02*
X174561428Y-92675419D01*
X174561428Y-92675419D02*
X174466190Y-92818276D01*
X174466190Y-92818276D02*
X174370952Y-92913514D01*
X174370952Y-92913514D02*
X174275714Y-92961133D01*
X207264095Y-49773419D02*
X207264095Y-50582942D01*
X207264095Y-50582942D02*
X207311714Y-50678180D01*
X207311714Y-50678180D02*
X207359333Y-50725800D01*
X207359333Y-50725800D02*
X207454571Y-50773419D01*
X207454571Y-50773419D02*
X207645047Y-50773419D01*
X207645047Y-50773419D02*
X207740285Y-50725800D01*
X207740285Y-50725800D02*
X207787904Y-50678180D01*
X207787904Y-50678180D02*
X207835523Y-50582942D01*
X207835523Y-50582942D02*
X207835523Y-49773419D01*
X208835523Y-50773419D02*
X208264095Y-50773419D01*
X208549809Y-50773419D02*
X208549809Y-49773419D01*
X208549809Y-49773419D02*
X208454571Y-49916276D01*
X208454571Y-49916276D02*
X208359333Y-50011514D01*
X208359333Y-50011514D02*
X208264095Y-50059133D01*
D10*
X232929580Y-76012166D02*
X232977200Y-76059785D01*
X232977200Y-76059785D02*
X233024819Y-76202642D01*
X233024819Y-76202642D02*
X233024819Y-76297880D01*
X233024819Y-76297880D02*
X232977200Y-76440737D01*
X232977200Y-76440737D02*
X232881961Y-76535975D01*
X232881961Y-76535975D02*
X232786723Y-76583594D01*
X232786723Y-76583594D02*
X232596247Y-76631213D01*
X232596247Y-76631213D02*
X232453390Y-76631213D01*
X232453390Y-76631213D02*
X232262914Y-76583594D01*
X232262914Y-76583594D02*
X232167676Y-76535975D01*
X232167676Y-76535975D02*
X232072438Y-76440737D01*
X232072438Y-76440737D02*
X232024819Y-76297880D01*
X232024819Y-76297880D02*
X232024819Y-76202642D01*
X232024819Y-76202642D02*
X232072438Y-76059785D01*
X232072438Y-76059785D02*
X232120057Y-76012166D01*
X232024819Y-75678832D02*
X232024819Y-75059785D01*
X232024819Y-75059785D02*
X232405771Y-75393118D01*
X232405771Y-75393118D02*
X232405771Y-75250261D01*
X232405771Y-75250261D02*
X232453390Y-75155023D01*
X232453390Y-75155023D02*
X232501009Y-75107404D01*
X232501009Y-75107404D02*
X232596247Y-75059785D01*
X232596247Y-75059785D02*
X232834342Y-75059785D01*
X232834342Y-75059785D02*
X232929580Y-75107404D01*
X232929580Y-75107404D02*
X232977200Y-75155023D01*
X232977200Y-75155023D02*
X233024819Y-75250261D01*
X233024819Y-75250261D02*
X233024819Y-75535975D01*
X233024819Y-75535975D02*
X232977200Y-75631213D01*
X232977200Y-75631213D02*
X232929580Y-75678832D01*
D12*
%TO.C,J3*%
X204918000Y-88078000D02*
X204918000Y-90738000D01*
X210058000Y-88078000D02*
X204918000Y-88078000D01*
X210058000Y-88078000D02*
X210058000Y-90738000D01*
X210058000Y-90738000D02*
X204918000Y-90738000D01*
X212658000Y-89408000D02*
X212658000Y-90738000D01*
X212658000Y-90738000D02*
X211328000Y-90738000D01*
%TO.C,J2*%
X202378000Y-78934000D02*
X203708000Y-78934000D01*
X202378000Y-80264000D02*
X202378000Y-78934000D01*
X204978000Y-78934000D02*
X212658000Y-78934000D01*
X204978000Y-81594000D02*
X204978000Y-78934000D01*
X204978000Y-81594000D02*
X212658000Y-81594000D01*
X212658000Y-81594000D02*
X212658000Y-78934000D01*
%TO.C,J1*%
X229810000Y-87630000D02*
X229810000Y-90230000D01*
X229810000Y-87630000D02*
X232470000Y-87630000D01*
X229810000Y-90230000D02*
X232470000Y-90230000D01*
X231140000Y-85030000D02*
X232470000Y-85030000D01*
X232470000Y-85030000D02*
X232470000Y-86360000D01*
X232470000Y-87630000D02*
X232470000Y-90230000D01*
%TO.C,J4*%
X229785000Y-64755000D02*
X229785000Y-59615000D01*
X229785000Y-67355000D02*
X229785000Y-66025000D01*
X231115000Y-67355000D02*
X229785000Y-67355000D01*
X232445000Y-59615000D02*
X229785000Y-59615000D01*
X232445000Y-64755000D02*
X229785000Y-64755000D01*
X232445000Y-64755000D02*
X232445000Y-59615000D01*
D11*
%TO.C,U1*%
X201232000Y-60492000D02*
X204280000Y-60492000D01*
X201232000Y-63540000D02*
X201232000Y-60492000D01*
X201740000Y-64048000D02*
X203772000Y-64048000D01*
X202248000Y-64556000D02*
X203264000Y-64556000D01*
X202946000Y-54356000D02*
X202946000Y-58166000D01*
X202946000Y-58166000D02*
X210566000Y-58166000D01*
X204280000Y-60492000D02*
X204280000Y-63540000D01*
X204280000Y-63540000D02*
X201232000Y-63540000D01*
X210566000Y-58166000D02*
X210566000Y-54356000D01*
D12*
%TO.C,C3*%
X230630000Y-75699233D02*
X230630000Y-75991767D01*
X231650000Y-75699233D02*
X231650000Y-75991767D01*
%TD*%
M02*
