%TF.GenerationSoftware,KiCad,Pcbnew,9.0.6*%
%TF.CreationDate,2026-02-28T11:03:27-08:00*%
%TF.ProjectId,sensor main board,73656e73-6f72-4206-9d61-696e20626f61,rev?*%
%TF.SameCoordinates,Original*%
%TF.FileFunction,Legend,Top*%
%TF.FilePolarity,Positive*%
%FSLAX46Y46*%
G04 Gerber Fmt 4.6, Leading zero omitted, Abs format (unit mm)*
G04 Created by KiCad (PCBNEW 9.0.6) date 2026-02-28 11:03:27*
%MOMM*%
%LPD*%
G01*
G04 APERTURE LIST*
%ADD10C,0.150000*%
%ADD11C,0.120000*%
%ADD12C,0.100000*%
G04 APERTURE END LIST*
D10*
X125421666Y-70090819D02*
X125421666Y-70805104D01*
X125421666Y-70805104D02*
X125374047Y-70947961D01*
X125374047Y-70947961D02*
X125278809Y-71043200D01*
X125278809Y-71043200D02*
X125135952Y-71090819D01*
X125135952Y-71090819D02*
X125040714Y-71090819D01*
X125802619Y-70090819D02*
X126421666Y-70090819D01*
X126421666Y-70090819D02*
X126088333Y-70471771D01*
X126088333Y-70471771D02*
X126231190Y-70471771D01*
X126231190Y-70471771D02*
X126326428Y-70519390D01*
X126326428Y-70519390D02*
X126374047Y-70567009D01*
X126374047Y-70567009D02*
X126421666Y-70662247D01*
X126421666Y-70662247D02*
X126421666Y-70900342D01*
X126421666Y-70900342D02*
X126374047Y-70995580D01*
X126374047Y-70995580D02*
X126326428Y-71043200D01*
X126326428Y-71043200D02*
X126231190Y-71090819D01*
X126231190Y-71090819D02*
X125945476Y-71090819D01*
X125945476Y-71090819D02*
X125850238Y-71043200D01*
X125850238Y-71043200D02*
X125802619Y-70995580D01*
X136357667Y-86198200D02*
X136500524Y-86245819D01*
X136500524Y-86245819D02*
X136738619Y-86245819D01*
X136738619Y-86245819D02*
X136833857Y-86198200D01*
X136833857Y-86198200D02*
X136881476Y-86150580D01*
X136881476Y-86150580D02*
X136929095Y-86055342D01*
X136929095Y-86055342D02*
X136929095Y-85960104D01*
X136929095Y-85960104D02*
X136881476Y-85864866D01*
X136881476Y-85864866D02*
X136833857Y-85817247D01*
X136833857Y-85817247D02*
X136738619Y-85769628D01*
X136738619Y-85769628D02*
X136548143Y-85722009D01*
X136548143Y-85722009D02*
X136452905Y-85674390D01*
X136452905Y-85674390D02*
X136405286Y-85626771D01*
X136405286Y-85626771D02*
X136357667Y-85531533D01*
X136357667Y-85531533D02*
X136357667Y-85436295D01*
X136357667Y-85436295D02*
X136405286Y-85341057D01*
X136405286Y-85341057D02*
X136452905Y-85293438D01*
X136452905Y-85293438D02*
X136548143Y-85245819D01*
X136548143Y-85245819D02*
X136786238Y-85245819D01*
X136786238Y-85245819D02*
X136929095Y-85293438D01*
X137262429Y-85245819D02*
X137500524Y-86245819D01*
X137500524Y-86245819D02*
X137691000Y-85531533D01*
X137691000Y-85531533D02*
X137881476Y-86245819D01*
X137881476Y-86245819D02*
X138119572Y-85245819D01*
X138452905Y-85341057D02*
X138500524Y-85293438D01*
X138500524Y-85293438D02*
X138595762Y-85245819D01*
X138595762Y-85245819D02*
X138833857Y-85245819D01*
X138833857Y-85245819D02*
X138929095Y-85293438D01*
X138929095Y-85293438D02*
X138976714Y-85341057D01*
X138976714Y-85341057D02*
X139024333Y-85436295D01*
X139024333Y-85436295D02*
X139024333Y-85531533D01*
X139024333Y-85531533D02*
X138976714Y-85674390D01*
X138976714Y-85674390D02*
X138405286Y-86245819D01*
X138405286Y-86245819D02*
X139024333Y-86245819D01*
X166652285Y-69147009D02*
X166795142Y-69194628D01*
X166795142Y-69194628D02*
X166842761Y-69242247D01*
X166842761Y-69242247D02*
X166890380Y-69337485D01*
X166890380Y-69337485D02*
X166890380Y-69480342D01*
X166890380Y-69480342D02*
X166842761Y-69575580D01*
X166842761Y-69575580D02*
X166795142Y-69623200D01*
X166795142Y-69623200D02*
X166699904Y-69670819D01*
X166699904Y-69670819D02*
X166318952Y-69670819D01*
X166318952Y-69670819D02*
X166318952Y-68670819D01*
X166318952Y-68670819D02*
X166652285Y-68670819D01*
X166652285Y-68670819D02*
X166747523Y-68718438D01*
X166747523Y-68718438D02*
X166795142Y-68766057D01*
X166795142Y-68766057D02*
X166842761Y-68861295D01*
X166842761Y-68861295D02*
X166842761Y-68956533D01*
X166842761Y-68956533D02*
X166795142Y-69051771D01*
X166795142Y-69051771D02*
X166747523Y-69099390D01*
X166747523Y-69099390D02*
X166652285Y-69147009D01*
X166652285Y-69147009D02*
X166318952Y-69147009D01*
X167176095Y-68670819D02*
X167747523Y-68670819D01*
X167461809Y-69670819D02*
X167461809Y-68670819D01*
X168604666Y-69670819D02*
X168033238Y-69670819D01*
X168318952Y-69670819D02*
X168318952Y-68670819D01*
X168318952Y-68670819D02*
X168223714Y-68813676D01*
X168223714Y-68813676D02*
X168128476Y-68908914D01*
X168128476Y-68908914D02*
X168033238Y-68956533D01*
X215317048Y-77289866D02*
X216078953Y-77289866D01*
X163247048Y-77289866D02*
X164008953Y-77289866D01*
X163628000Y-77670819D02*
X163628000Y-76908914D01*
X219138667Y-73583200D02*
X219281524Y-73630819D01*
X219281524Y-73630819D02*
X219519619Y-73630819D01*
X219519619Y-73630819D02*
X219614857Y-73583200D01*
X219614857Y-73583200D02*
X219662476Y-73535580D01*
X219662476Y-73535580D02*
X219710095Y-73440342D01*
X219710095Y-73440342D02*
X219710095Y-73345104D01*
X219710095Y-73345104D02*
X219662476Y-73249866D01*
X219662476Y-73249866D02*
X219614857Y-73202247D01*
X219614857Y-73202247D02*
X219519619Y-73154628D01*
X219519619Y-73154628D02*
X219329143Y-73107009D01*
X219329143Y-73107009D02*
X219233905Y-73059390D01*
X219233905Y-73059390D02*
X219186286Y-73011771D01*
X219186286Y-73011771D02*
X219138667Y-72916533D01*
X219138667Y-72916533D02*
X219138667Y-72821295D01*
X219138667Y-72821295D02*
X219186286Y-72726057D01*
X219186286Y-72726057D02*
X219233905Y-72678438D01*
X219233905Y-72678438D02*
X219329143Y-72630819D01*
X219329143Y-72630819D02*
X219567238Y-72630819D01*
X219567238Y-72630819D02*
X219710095Y-72678438D01*
X220043429Y-72630819D02*
X220281524Y-73630819D01*
X220281524Y-73630819D02*
X220472000Y-72916533D01*
X220472000Y-72916533D02*
X220662476Y-73630819D01*
X220662476Y-73630819D02*
X220900572Y-72630819D01*
X221805333Y-73630819D02*
X221233905Y-73630819D01*
X221519619Y-73630819D02*
X221519619Y-72630819D01*
X221519619Y-72630819D02*
X221424381Y-72773676D01*
X221424381Y-72773676D02*
X221329143Y-72868914D01*
X221329143Y-72868914D02*
X221233905Y-72916533D01*
D11*
%TO.C,J3*%
X124425000Y-74676000D02*
X124425000Y-82356000D01*
X124425000Y-74676000D02*
X127085000Y-74676000D01*
X124425000Y-82356000D02*
X127085000Y-82356000D01*
X125755000Y-72076000D02*
X127085000Y-72076000D01*
X127085000Y-72076000D02*
X127085000Y-73406000D01*
X127085000Y-74676000D02*
X127085000Y-82356000D01*
D12*
%TO.C,U3*%
X145860000Y-74208000D02*
X148908000Y-74208000D01*
X145860000Y-77256000D02*
X145860000Y-74208000D01*
X146368000Y-77764000D02*
X148400000Y-77764000D01*
X146876000Y-78272000D02*
X147892000Y-78272000D01*
X147574000Y-68072000D02*
X147574000Y-71882000D01*
X147574000Y-71882000D02*
X155194000Y-71882000D01*
X148908000Y-74208000D02*
X148908000Y-77256000D01*
X148908000Y-77256000D02*
X145860000Y-77256000D01*
X155194000Y-71882000D02*
X155194000Y-68072000D01*
D11*
%TO.C,SW2*%
X129116000Y-71966000D02*
X129116000Y-73216000D01*
X129116000Y-82466000D02*
X129116000Y-81216000D01*
X129666000Y-71966000D02*
X129116000Y-71966000D01*
X129666000Y-82466000D02*
X129116000Y-82466000D01*
X139066000Y-71966000D02*
X139616000Y-71966000D01*
X139066000Y-82466000D02*
X139616000Y-82466000D01*
X139616000Y-71966000D02*
X139616000Y-73216000D01*
X139616000Y-82466000D02*
X139616000Y-77216000D01*
%TO.C,BT1*%
X164638000Y-70616000D02*
X164638000Y-83816000D01*
X164638000Y-83816000D02*
X214838000Y-83816000D01*
X165438000Y-71216000D02*
X165438000Y-83216000D01*
X165438000Y-71216000D02*
X168438000Y-71216000D01*
X165438000Y-75216000D02*
X166438000Y-75216000D01*
X165438000Y-83216000D02*
X168438000Y-83216000D01*
X166438000Y-79216000D02*
X165438000Y-79216000D01*
X170438000Y-73216000D02*
X180438000Y-73216000D01*
X170438000Y-81216000D02*
X180438000Y-81216000D01*
X182438000Y-83216000D02*
X196438000Y-83216000D01*
X196438000Y-71216000D02*
X182438000Y-71216000D01*
X207438000Y-76216000D02*
X207438000Y-78216000D01*
X208438000Y-73216000D02*
X198438000Y-73216000D01*
X208438000Y-75216000D02*
X208438000Y-79216000D01*
X208438000Y-81216000D02*
X198438000Y-81216000D01*
X209438000Y-80216000D02*
X209438000Y-74216000D01*
X210438000Y-73216000D02*
X210438000Y-81216000D01*
X213438000Y-71216000D02*
X210438000Y-71216000D01*
X213438000Y-71216000D02*
X213438000Y-83216000D01*
X213438000Y-83216000D02*
X210438000Y-83216000D01*
X214838000Y-70616000D02*
X164638000Y-70616000D01*
X214838000Y-83816000D02*
X214838000Y-70616000D01*
X168438000Y-83216000D02*
G75*
G02*
X170438000Y-81216000I2000000J0D01*
G01*
X170438000Y-73216000D02*
G75*
G02*
X168438000Y-71216000I0J2000000D01*
G01*
X180438000Y-81216000D02*
G75*
G02*
X182438000Y-83216000I0J-2000000D01*
G01*
X182438000Y-71216000D02*
G75*
G02*
X180438000Y-73216000I-2000000J0D01*
G01*
X196438000Y-83216000D02*
G75*
G02*
X198438000Y-81216000I2000000J0D01*
G01*
X198438000Y-73216000D02*
G75*
G02*
X196438000Y-71216000I0J2000000D01*
G01*
X208438000Y-81216000D02*
G75*
G02*
X210438000Y-83216000I0J-2000000D01*
G01*
X210438000Y-71216000D02*
G75*
G02*
X208438000Y-73216000I-2000000J0D01*
G01*
%TO.C,SW1*%
X219142000Y-77216000D02*
X219142000Y-79816000D01*
X219142000Y-77216000D02*
X221802000Y-77216000D01*
X219142000Y-79816000D02*
X221802000Y-79816000D01*
X220472000Y-74616000D02*
X221802000Y-74616000D01*
X221802000Y-74616000D02*
X221802000Y-75946000D01*
X221802000Y-77216000D02*
X221802000Y-79816000D01*
%TD*%
M02*
