%TF.GenerationSoftware,KiCad,Pcbnew,9.0.6*%
%TF.CreationDate,2026-02-28T11:03:27-08:00*%
%TF.ProjectId,sensor main board,73656e73-6f72-4206-9d61-696e20626f61,rev?*%
%TF.SameCoordinates,Original*%
%TF.FileFunction,Copper,L2,Bot*%
%TF.FilePolarity,Positive*%
%FSLAX46Y46*%
G04 Gerber Fmt 4.6, Leading zero omitted, Abs format (unit mm)*
G04 Created by KiCad (PCBNEW 9.0.6) date 2026-02-28 11:03:27*
%MOMM*%
%LPD*%
G01*
G04 APERTURE LIST*
%TA.AperFunction,ComponentPad*%
%ADD10R,1.700000X1.700000*%
%TD*%
%TA.AperFunction,ComponentPad*%
%ADD11C,1.700000*%
%TD*%
%TA.AperFunction,ComponentPad*%
%ADD12O,3.556000X1.778000*%
%TD*%
%TA.AperFunction,ComponentPad*%
%ADD13C,1.905000*%
%TD*%
%TA.AperFunction,ComponentPad*%
%ADD14R,2.000000X2.000000*%
%TD*%
%TA.AperFunction,ComponentPad*%
%ADD15C,2.000000*%
%TD*%
%TA.AperFunction,ViaPad*%
%ADD16C,1.500000*%
%TD*%
%TA.AperFunction,Conductor*%
%ADD17C,0.508000*%
%TD*%
G04 APERTURE END LIST*
D10*
%TO.P,J3,1,Pin_1*%
%TO.N,+3.3V*%
X125755000Y-73406000D03*
D11*
%TO.P,J3,2,Pin_2*%
%TO.N,GND*%
X125755000Y-75946000D03*
%TO.P,J3,3,Pin_3*%
%TO.N,/SDA*%
X125755000Y-78486000D03*
%TO.P,J3,4,Pin_4*%
%TO.N,/SCL*%
X125755000Y-81026000D03*
%TD*%
D12*
%TO.P,U3,1,GPIO1_A0_D0*%
%TO.N,Net-(U3-GPIO1_A0_D0)*%
X143002000Y-70612000D03*
%TO.P,U3,2,GPIO2_A1_D1*%
%TO.N,unconnected-(U3-GPIO2_A1_D1-Pad2)*%
X143002000Y-73152000D03*
%TO.P,U3,3,GPIO3_A2_D2*%
%TO.N,unconnected-(U3-GPIO3_A2_D2-Pad3)*%
X143002000Y-75692000D03*
%TO.P,U3,4,GPIO4_A3_D3*%
%TO.N,unconnected-(U3-GPIO4_A3_D3-Pad4)*%
X143002000Y-78232000D03*
%TO.P,U3,5,GPIO4_A3_D3_SDA*%
%TO.N,/SDA*%
X143002000Y-80772000D03*
%TO.P,U3,6,GPIO6_A5_D5_SCL*%
%TO.N,/SCL*%
X143002000Y-83312000D03*
%TO.P,U3,7,GPIO43_TX_D6*%
%TO.N,unconnected-(U3-GPIO43_TX_D6-Pad7)*%
X143002000Y-85852000D03*
%TO.P,U3,8,GPIO44_D7_RX*%
%TO.N,unconnected-(U3-GPIO44_D7_RX-Pad8)*%
X159766000Y-85852000D03*
%TO.P,U3,9,GPIO7_A8_D8_SCK*%
%TO.N,unconnected-(U3-GPIO7_A8_D8_SCK-Pad9)*%
X159766000Y-83312000D03*
%TO.P,U3,10,GPIO8_A9_D9_CIPO*%
%TO.N,unconnected-(U3-GPIO8_A9_D9_CIPO-Pad10)*%
X159766000Y-80772000D03*
%TO.P,U3,11,GPIO9_A10_D10_COPI*%
%TO.N,unconnected-(U3-GPIO9_A10_D10_COPI-Pad11)*%
X159766000Y-78232000D03*
%TO.P,U3,12,3V3*%
%TO.N,+3.3V*%
X159766000Y-75692000D03*
%TO.P,U3,13,GND*%
%TO.N,GND*%
X159766000Y-73152000D03*
%TO.P,U3,14,5V*%
%TO.N,unconnected-(U3-5V-Pad14)*%
X159766000Y-70612000D03*
D13*
%TO.P,U3,15,+BATT*%
%TO.N,Net-(SW1-B)*%
X147384000Y-78232000D03*
%TO.P,U3,16,-BATT*%
%TO.N,GND*%
X147384000Y-75732000D03*
%TD*%
D14*
%TO.P,BT1,1,+*%
%TO.N,GND*%
X167438000Y-77216000D03*
D15*
%TO.P,BT1,2,-*%
%TO.N,/+BATT*%
X212138000Y-77216000D03*
%TD*%
D10*
%TO.P,SW1,1,A*%
%TO.N,/+BATT*%
X220472000Y-75946000D03*
D11*
%TO.P,SW1,2,B*%
%TO.N,Net-(SW1-B)*%
X220472000Y-78486000D03*
%TD*%
D16*
%TO.N,GND*%
X147384000Y-75692000D03*
%TO.N,+3.3V*%
X150114000Y-84582000D03*
X128016000Y-68326000D03*
%TO.N,Net-(SW1-B)*%
X147384000Y-78232000D03*
%TD*%
D17*
%TO.N,+3.3V*%
X144526000Y-68326000D02*
X128016000Y-68326000D01*
X150114000Y-73914000D02*
X144526000Y-68326000D01*
X150114000Y-84582000D02*
X150114000Y-73914000D01*
%TD*%
%TA.AperFunction,Conductor*%
%TO.N,GND*%
G36*
X221980922Y-66217280D02*
G01*
X222071266Y-66227459D01*
X222098331Y-66233636D01*
X222177540Y-66261352D01*
X222202553Y-66273398D01*
X222273606Y-66318043D01*
X222295313Y-66335355D01*
X222354644Y-66394686D01*
X222371957Y-66416395D01*
X222416600Y-66487444D01*
X222428648Y-66512462D01*
X222456362Y-66591666D01*
X222462540Y-66618735D01*
X222472720Y-66709076D01*
X222473500Y-66722961D01*
X222473500Y-87709038D01*
X222472720Y-87722923D01*
X222462540Y-87813264D01*
X222456362Y-87840333D01*
X222428648Y-87919537D01*
X222416600Y-87944555D01*
X222371957Y-88015604D01*
X222354644Y-88037313D01*
X222295313Y-88096644D01*
X222273604Y-88113957D01*
X222202555Y-88158600D01*
X222177537Y-88170648D01*
X222098333Y-88198362D01*
X222071264Y-88204540D01*
X221991075Y-88213576D01*
X221980921Y-88214720D01*
X221967038Y-88215500D01*
X123980962Y-88215500D01*
X123967078Y-88214720D01*
X123954553Y-88213308D01*
X123876735Y-88204540D01*
X123849666Y-88198362D01*
X123770462Y-88170648D01*
X123745444Y-88158600D01*
X123674395Y-88113957D01*
X123652686Y-88096644D01*
X123593355Y-88037313D01*
X123576042Y-88015604D01*
X123531399Y-87944555D01*
X123519351Y-87919537D01*
X123491637Y-87840333D01*
X123485459Y-87813263D01*
X123484702Y-87806548D01*
X123475280Y-87722922D01*
X123474500Y-87709038D01*
X123474500Y-85991258D01*
X123745500Y-85991258D01*
X123745500Y-86220741D01*
X123767176Y-86385380D01*
X123775452Y-86448238D01*
X123805794Y-86561478D01*
X123834842Y-86669887D01*
X123922650Y-86881876D01*
X123922657Y-86881890D01*
X124037392Y-87080617D01*
X124177081Y-87262661D01*
X124177089Y-87262670D01*
X124339330Y-87424911D01*
X124339338Y-87424918D01*
X124521382Y-87564607D01*
X124521385Y-87564608D01*
X124521388Y-87564611D01*
X124720112Y-87679344D01*
X124720117Y-87679346D01*
X124720123Y-87679349D01*
X124791799Y-87709038D01*
X124932113Y-87767158D01*
X125153762Y-87826548D01*
X125381266Y-87856500D01*
X125381273Y-87856500D01*
X125610727Y-87856500D01*
X125610734Y-87856500D01*
X125838238Y-87826548D01*
X126059887Y-87767158D01*
X126271888Y-87679344D01*
X126470612Y-87564611D01*
X126652661Y-87424919D01*
X126652665Y-87424914D01*
X126652670Y-87424911D01*
X126814911Y-87262670D01*
X126814914Y-87262665D01*
X126814919Y-87262661D01*
X126954611Y-87080612D01*
X127069344Y-86881888D01*
X127157158Y-86669887D01*
X127216548Y-86448238D01*
X127246500Y-86220734D01*
X127246500Y-85991266D01*
X127216548Y-85763762D01*
X127157158Y-85542113D01*
X127096904Y-85396647D01*
X127069349Y-85330123D01*
X127069346Y-85330117D01*
X127069344Y-85330112D01*
X126954611Y-85131388D01*
X126954608Y-85131385D01*
X126954607Y-85131382D01*
X126814918Y-84949338D01*
X126814911Y-84949330D01*
X126652670Y-84787089D01*
X126652661Y-84787081D01*
X126470617Y-84647392D01*
X126271890Y-84532657D01*
X126271876Y-84532650D01*
X126059887Y-84444842D01*
X125985245Y-84424842D01*
X125838238Y-84385452D01*
X125800215Y-84380446D01*
X125610741Y-84355500D01*
X125610734Y-84355500D01*
X125381266Y-84355500D01*
X125381258Y-84355500D01*
X125164715Y-84384009D01*
X125153762Y-84385452D01*
X125060076Y-84410554D01*
X124932112Y-84444842D01*
X124720123Y-84532650D01*
X124720109Y-84532657D01*
X124521382Y-84647392D01*
X124339338Y-84787081D01*
X124177081Y-84949338D01*
X124037392Y-85131382D01*
X123922657Y-85330109D01*
X123922650Y-85330123D01*
X123837445Y-85535828D01*
X123834842Y-85542113D01*
X123781111Y-85742644D01*
X123775453Y-85763759D01*
X123775451Y-85763770D01*
X123745500Y-85991258D01*
X123474500Y-85991258D01*
X123474500Y-72508135D01*
X124404500Y-72508135D01*
X124404500Y-74303870D01*
X124404501Y-74303876D01*
X124410908Y-74363483D01*
X124461202Y-74498328D01*
X124461206Y-74498335D01*
X124547452Y-74613544D01*
X124547455Y-74613547D01*
X124662664Y-74699793D01*
X124662671Y-74699797D01*
X124707618Y-74716561D01*
X124797517Y-74750091D01*
X124857127Y-74756500D01*
X124867685Y-74756499D01*
X124934723Y-74776179D01*
X124955372Y-74792818D01*
X125625591Y-75463037D01*
X125562007Y-75480075D01*
X125447993Y-75545901D01*
X125354901Y-75638993D01*
X125289075Y-75753007D01*
X125272037Y-75816591D01*
X124639728Y-75184282D01*
X124639727Y-75184282D01*
X124600380Y-75238439D01*
X124503904Y-75427782D01*
X124438242Y-75629869D01*
X124438242Y-75629872D01*
X124405000Y-75839753D01*
X124405000Y-76052246D01*
X124438242Y-76262127D01*
X124438242Y-76262130D01*
X124503904Y-76464217D01*
X124600375Y-76653550D01*
X124639728Y-76707716D01*
X125272037Y-76075408D01*
X125289075Y-76138993D01*
X125354901Y-76253007D01*
X125447993Y-76346099D01*
X125562007Y-76411925D01*
X125625590Y-76428962D01*
X124993282Y-77061269D01*
X124993282Y-77061270D01*
X125047452Y-77100626D01*
X125047451Y-77100626D01*
X125056495Y-77105234D01*
X125107292Y-77153208D01*
X125124087Y-77221029D01*
X125101550Y-77287164D01*
X125056499Y-77326202D01*
X125047182Y-77330949D01*
X124875213Y-77455890D01*
X124724890Y-77606213D01*
X124599951Y-77778179D01*
X124503444Y-77967585D01*
X124437753Y-78169760D01*
X124404500Y-78379713D01*
X124404500Y-78592286D01*
X124437753Y-78802239D01*
X124503444Y-79004414D01*
X124599951Y-79193820D01*
X124724890Y-79365786D01*
X124875213Y-79516109D01*
X125047182Y-79641050D01*
X125055946Y-79645516D01*
X125106742Y-79693491D01*
X125123536Y-79761312D01*
X125100998Y-79827447D01*
X125055946Y-79866484D01*
X125047182Y-79870949D01*
X124875213Y-79995890D01*
X124724890Y-80146213D01*
X124599951Y-80318179D01*
X124503444Y-80507585D01*
X124437753Y-80709760D01*
X124404500Y-80919713D01*
X124404500Y-81132286D01*
X124437753Y-81342239D01*
X124503444Y-81544414D01*
X124599951Y-81733820D01*
X124724890Y-81905786D01*
X124875213Y-82056109D01*
X125047179Y-82181048D01*
X125047181Y-82181049D01*
X125047184Y-82181051D01*
X125236588Y-82277557D01*
X125438757Y-82343246D01*
X125648713Y-82376500D01*
X125648714Y-82376500D01*
X125861286Y-82376500D01*
X125861287Y-82376500D01*
X126071243Y-82343246D01*
X126273412Y-82277557D01*
X126462816Y-82181051D01*
X126484789Y-82165086D01*
X126634786Y-82056109D01*
X126634788Y-82056106D01*
X126634792Y-82056104D01*
X126785104Y-81905792D01*
X126785106Y-81905788D01*
X126785109Y-81905786D01*
X126910048Y-81733820D01*
X126910047Y-81733820D01*
X126910051Y-81733816D01*
X127006557Y-81544412D01*
X127072246Y-81342243D01*
X127105500Y-81132287D01*
X127105500Y-80919713D01*
X127072246Y-80709757D01*
X127006557Y-80507588D01*
X126910051Y-80318184D01*
X126910049Y-80318181D01*
X126910048Y-80318179D01*
X126785109Y-80146213D01*
X126634786Y-79995890D01*
X126462820Y-79870951D01*
X126462115Y-79870591D01*
X126454054Y-79866485D01*
X126403259Y-79818512D01*
X126386463Y-79750692D01*
X126408999Y-79684556D01*
X126454054Y-79645515D01*
X126462816Y-79641051D01*
X126484789Y-79625086D01*
X126634786Y-79516109D01*
X126634788Y-79516106D01*
X126634792Y-79516104D01*
X126785104Y-79365792D01*
X126785106Y-79365788D01*
X126785109Y-79365786D01*
X126910048Y-79193820D01*
X126910047Y-79193820D01*
X126910051Y-79193816D01*
X127006557Y-79004412D01*
X127072246Y-78802243D01*
X127105500Y-78592287D01*
X127105500Y-78379713D01*
X127072246Y-78169757D01*
X127006557Y-77967588D01*
X126910051Y-77778184D01*
X126910049Y-77778181D01*
X126910048Y-77778179D01*
X126785109Y-77606213D01*
X126634786Y-77455890D01*
X126462817Y-77330949D01*
X126453504Y-77326204D01*
X126402707Y-77278230D01*
X126385912Y-77210409D01*
X126408449Y-77144274D01*
X126453507Y-77105232D01*
X126462555Y-77100622D01*
X126516716Y-77061270D01*
X126516717Y-77061270D01*
X125884408Y-76428962D01*
X125947993Y-76411925D01*
X126062007Y-76346099D01*
X126155099Y-76253007D01*
X126220925Y-76138993D01*
X126237962Y-76075409D01*
X126870270Y-76707717D01*
X126870270Y-76707716D01*
X126909622Y-76653554D01*
X127006095Y-76464217D01*
X127071757Y-76262130D01*
X127071757Y-76262127D01*
X127105000Y-76052246D01*
X127105000Y-75839753D01*
X127071757Y-75629872D01*
X127071757Y-75629869D01*
X127006095Y-75427782D01*
X126909624Y-75238449D01*
X126870270Y-75184282D01*
X126870269Y-75184282D01*
X126237962Y-75816590D01*
X126220925Y-75753007D01*
X126155099Y-75638993D01*
X126062007Y-75545901D01*
X125947993Y-75480075D01*
X125884409Y-75463037D01*
X126554627Y-74792818D01*
X126615950Y-74759333D01*
X126642307Y-74756499D01*
X126652872Y-74756499D01*
X126712483Y-74750091D01*
X126847331Y-74699796D01*
X126962546Y-74613546D01*
X127048796Y-74498331D01*
X127099091Y-74363483D01*
X127105500Y-74303873D01*
X127105499Y-72508128D01*
X127099091Y-72448517D01*
X127089849Y-72423739D01*
X127048797Y-72313671D01*
X127048793Y-72313664D01*
X126962547Y-72198455D01*
X126962544Y-72198452D01*
X126847335Y-72112206D01*
X126847328Y-72112202D01*
X126712482Y-72061908D01*
X126712483Y-72061908D01*
X126652883Y-72055501D01*
X126652881Y-72055500D01*
X126652873Y-72055500D01*
X126652864Y-72055500D01*
X124857129Y-72055500D01*
X124857123Y-72055501D01*
X124797516Y-72061908D01*
X124662671Y-72112202D01*
X124662664Y-72112206D01*
X124547455Y-72198452D01*
X124547452Y-72198455D01*
X124461206Y-72313664D01*
X124461202Y-72313671D01*
X124410908Y-72448517D01*
X124404501Y-72508116D01*
X124404501Y-72508123D01*
X124404500Y-72508135D01*
X123474500Y-72508135D01*
X123474500Y-68211258D01*
X123745500Y-68211258D01*
X123745500Y-68440741D01*
X123770446Y-68630215D01*
X123775452Y-68668238D01*
X123805794Y-68781478D01*
X123834842Y-68889887D01*
X123922650Y-69101876D01*
X123922657Y-69101890D01*
X124037392Y-69300617D01*
X124177081Y-69482661D01*
X124177089Y-69482670D01*
X124339330Y-69644911D01*
X124339338Y-69644918D01*
X124521382Y-69784607D01*
X124521385Y-69784608D01*
X124521388Y-69784611D01*
X124720112Y-69899344D01*
X124720117Y-69899346D01*
X124720123Y-69899349D01*
X124811480Y-69937190D01*
X124932113Y-69987158D01*
X125153762Y-70046548D01*
X125381266Y-70076500D01*
X125381273Y-70076500D01*
X125610727Y-70076500D01*
X125610734Y-70076500D01*
X125838238Y-70046548D01*
X126059887Y-69987158D01*
X126271888Y-69899344D01*
X126470612Y-69784611D01*
X126652661Y-69644919D01*
X126652665Y-69644914D01*
X126652670Y-69644911D01*
X126814911Y-69482670D01*
X126814914Y-69482665D01*
X126814919Y-69482661D01*
X126954611Y-69300612D01*
X126971732Y-69270956D01*
X127022299Y-69222741D01*
X127090906Y-69209517D01*
X127155771Y-69235485D01*
X127166801Y-69245275D01*
X127201354Y-69279828D01*
X127360595Y-69395524D01*
X127415684Y-69423593D01*
X127535970Y-69484882D01*
X127535972Y-69484882D01*
X127535975Y-69484884D01*
X127636317Y-69517487D01*
X127723173Y-69545709D01*
X127917578Y-69576500D01*
X127917583Y-69576500D01*
X128114422Y-69576500D01*
X128308826Y-69545709D01*
X128496025Y-69484884D01*
X128671405Y-69395524D01*
X128830646Y-69279828D01*
X128969828Y-69140646D01*
X128976392Y-69131612D01*
X129031723Y-69088948D01*
X129076708Y-69080500D01*
X141547047Y-69080500D01*
X141614086Y-69100185D01*
X141659841Y-69152989D01*
X141669785Y-69222147D01*
X141640760Y-69285703D01*
X141585365Y-69322431D01*
X141579619Y-69324297D01*
X141579616Y-69324298D01*
X141384739Y-69423595D01*
X141207806Y-69552142D01*
X141053142Y-69706806D01*
X140924595Y-69883739D01*
X140825298Y-70078616D01*
X140825297Y-70078619D01*
X140757714Y-70286623D01*
X140723500Y-70502638D01*
X140723500Y-70721361D01*
X140757714Y-70937376D01*
X140825297Y-71145380D01*
X140825298Y-71145383D01*
X140924595Y-71340260D01*
X141053142Y-71517193D01*
X141207806Y-71671857D01*
X141358969Y-71781682D01*
X141401635Y-71837011D01*
X141407614Y-71906625D01*
X141375009Y-71968420D01*
X141358969Y-71982318D01*
X141207806Y-72092142D01*
X141053142Y-72246806D01*
X140924595Y-72423739D01*
X140825298Y-72618616D01*
X140825297Y-72618619D01*
X140757714Y-72826623D01*
X140723500Y-73042638D01*
X140723500Y-73261361D01*
X140757714Y-73477376D01*
X140825297Y-73685380D01*
X140825298Y-73685383D01*
X140892782Y-73817825D01*
X140924461Y-73879998D01*
X140924595Y-73880260D01*
X141053142Y-74057193D01*
X141207806Y-74211857D01*
X141358969Y-74321682D01*
X141401635Y-74377011D01*
X141407614Y-74446625D01*
X141375009Y-74508420D01*
X141358969Y-74522318D01*
X141207806Y-74632142D01*
X141053142Y-74786806D01*
X140924595Y-74963739D01*
X140825298Y-75158616D01*
X140825297Y-75158619D01*
X140757714Y-75366623D01*
X140723500Y-75582638D01*
X140723500Y-75801361D01*
X140757714Y-76017376D01*
X140825297Y-76225380D01*
X140825298Y-76225383D01*
X140924595Y-76420260D01*
X141053142Y-76597193D01*
X141207806Y-76751857D01*
X141358969Y-76861682D01*
X141401635Y-76917011D01*
X141407614Y-76986625D01*
X141375009Y-77048420D01*
X141358969Y-77062318D01*
X141207806Y-77172142D01*
X141053142Y-77326806D01*
X140924595Y-77503739D01*
X140825298Y-77698616D01*
X140825297Y-77698619D01*
X140757714Y-77906623D01*
X140723500Y-78122638D01*
X140723500Y-78341361D01*
X140757714Y-78557376D01*
X140825297Y-78765380D01*
X140825298Y-78765383D01*
X140924595Y-78960260D01*
X141053142Y-79137193D01*
X141207806Y-79291857D01*
X141358969Y-79401682D01*
X141401635Y-79457011D01*
X141407614Y-79526625D01*
X141375009Y-79588420D01*
X141358969Y-79602318D01*
X141207806Y-79712142D01*
X141053142Y-79866806D01*
X140924595Y-80043739D01*
X140825298Y-80238616D01*
X140825297Y-80238619D01*
X140757714Y-80446623D01*
X140723500Y-80662638D01*
X140723500Y-80881361D01*
X140757714Y-81097376D01*
X140825297Y-81305380D01*
X140825298Y-81305383D01*
X140924595Y-81500260D01*
X141053142Y-81677193D01*
X141207806Y-81831857D01*
X141358969Y-81941682D01*
X141401635Y-81997011D01*
X141407614Y-82066625D01*
X141375009Y-82128420D01*
X141358969Y-82142318D01*
X141207806Y-82252142D01*
X141053142Y-82406806D01*
X140924595Y-82583739D01*
X140825298Y-82778616D01*
X140825297Y-82778619D01*
X140757714Y-82986623D01*
X140723500Y-83202638D01*
X140723500Y-83421361D01*
X140757714Y-83637376D01*
X140825297Y-83845380D01*
X140825298Y-83845383D01*
X140924595Y-84040260D01*
X141053142Y-84217193D01*
X141207806Y-84371857D01*
X141358969Y-84481682D01*
X141401635Y-84537011D01*
X141407614Y-84606625D01*
X141375009Y-84668420D01*
X141358969Y-84682318D01*
X141207806Y-84792142D01*
X141053142Y-84946806D01*
X140924595Y-85123739D01*
X140825298Y-85318616D01*
X140825297Y-85318619D01*
X140757714Y-85526623D01*
X140723500Y-85742638D01*
X140723500Y-85961361D01*
X140757714Y-86177376D01*
X140825297Y-86385380D01*
X140825298Y-86385383D01*
X140924595Y-86580260D01*
X141053142Y-86757193D01*
X141207806Y-86911857D01*
X141373374Y-87032147D01*
X141384743Y-87040407D01*
X141512132Y-87105315D01*
X141579616Y-87139701D01*
X141579619Y-87139702D01*
X141683621Y-87173493D01*
X141787625Y-87207286D01*
X141887672Y-87223132D01*
X142003639Y-87241500D01*
X142003644Y-87241500D01*
X144000361Y-87241500D01*
X144105082Y-87224912D01*
X144216375Y-87207286D01*
X144424383Y-87139701D01*
X144619257Y-87040407D01*
X144718601Y-86968229D01*
X144796193Y-86911857D01*
X144796195Y-86911854D01*
X144796199Y-86911852D01*
X144950852Y-86757199D01*
X144950854Y-86757195D01*
X144950857Y-86757193D01*
X145028818Y-86649887D01*
X145079407Y-86580257D01*
X145178701Y-86385383D01*
X145246286Y-86177375D01*
X145275763Y-85991266D01*
X145280500Y-85961361D01*
X145280500Y-85742638D01*
X145259574Y-85610522D01*
X145246286Y-85526625D01*
X145212493Y-85422621D01*
X145178702Y-85318619D01*
X145178701Y-85318616D01*
X145137321Y-85237405D01*
X145079407Y-85123743D01*
X145070426Y-85111382D01*
X144950857Y-84946806D01*
X144796199Y-84792148D01*
X144761697Y-84767081D01*
X144645028Y-84682316D01*
X144602364Y-84626989D01*
X144596385Y-84557376D01*
X144628990Y-84495580D01*
X144645023Y-84481686D01*
X144796199Y-84371852D01*
X144950852Y-84217199D01*
X144950854Y-84217195D01*
X144950857Y-84217193D01*
X145007229Y-84139601D01*
X145079407Y-84040257D01*
X145178701Y-83845383D01*
X145246286Y-83637375D01*
X145264672Y-83521292D01*
X145280500Y-83421361D01*
X145280500Y-83202638D01*
X145260595Y-83076971D01*
X145246286Y-82986625D01*
X145178701Y-82778617D01*
X145178701Y-82778616D01*
X145144315Y-82711132D01*
X145079407Y-82583743D01*
X145071147Y-82572374D01*
X144950857Y-82406806D01*
X144796199Y-82252148D01*
X144796191Y-82252142D01*
X144645028Y-82142316D01*
X144602364Y-82086989D01*
X144596385Y-82017376D01*
X144628990Y-81955580D01*
X144645023Y-81941686D01*
X144796199Y-81831852D01*
X144950852Y-81677199D01*
X144950854Y-81677195D01*
X144950857Y-81677193D01*
X145047325Y-81544414D01*
X145079407Y-81500257D01*
X145178701Y-81305383D01*
X145246286Y-81097375D01*
X145274425Y-80919713D01*
X145280500Y-80881361D01*
X145280500Y-80662638D01*
X145260595Y-80536971D01*
X145246286Y-80446625D01*
X145178701Y-80238617D01*
X145178701Y-80238616D01*
X145131616Y-80146208D01*
X145079407Y-80043743D01*
X145071147Y-80032374D01*
X144950857Y-79866806D01*
X144796199Y-79712148D01*
X144796191Y-79712142D01*
X144645028Y-79602316D01*
X144602364Y-79546989D01*
X144596385Y-79477376D01*
X144628990Y-79415580D01*
X144645023Y-79401686D01*
X144796199Y-79291852D01*
X144950852Y-79137199D01*
X144950854Y-79137195D01*
X144950857Y-79137193D01*
X145047325Y-79004414D01*
X145079407Y-78960257D01*
X145178701Y-78765383D01*
X145246286Y-78557375D01*
X145274425Y-78379713D01*
X145280500Y-78341361D01*
X145280500Y-78122638D01*
X145279709Y-78117646D01*
X145931000Y-78117646D01*
X145931000Y-78346353D01*
X145966778Y-78572246D01*
X145966778Y-78572249D01*
X146037450Y-78789755D01*
X146037452Y-78789758D01*
X146141283Y-78993538D01*
X146275714Y-79178566D01*
X146437434Y-79340286D01*
X146622462Y-79474717D01*
X146764304Y-79546989D01*
X146826244Y-79578549D01*
X147043751Y-79649221D01*
X147043752Y-79649221D01*
X147043755Y-79649222D01*
X147269646Y-79685000D01*
X147269647Y-79685000D01*
X147498353Y-79685000D01*
X147498354Y-79685000D01*
X147724245Y-79649222D01*
X147724248Y-79649221D01*
X147724249Y-79649221D01*
X147941755Y-79578549D01*
X147941755Y-79578548D01*
X147941758Y-79578548D01*
X148145538Y-79474717D01*
X148330566Y-79340286D01*
X148492286Y-79178566D01*
X148626717Y-78993538D01*
X148730548Y-78789758D01*
X148754514Y-78715999D01*
X148801221Y-78572249D01*
X148801221Y-78572248D01*
X148801222Y-78572245D01*
X148837000Y-78346354D01*
X148837000Y-78117646D01*
X148801222Y-77891755D01*
X148801221Y-77891751D01*
X148801221Y-77891750D01*
X148730549Y-77674244D01*
X148705000Y-77624102D01*
X148626717Y-77470462D01*
X148492286Y-77285434D01*
X148330566Y-77123714D01*
X148266190Y-77076942D01*
X148223526Y-77021613D01*
X148215459Y-76966896D01*
X148219098Y-76920650D01*
X147519942Y-76221495D01*
X147580081Y-76205381D01*
X147695920Y-76138502D01*
X147790502Y-76043920D01*
X147857381Y-75928081D01*
X147873494Y-75867942D01*
X148572651Y-76567099D01*
X148572651Y-76567098D01*
X148626288Y-76493276D01*
X148730082Y-76289568D01*
X148800734Y-76072125D01*
X148800734Y-76072124D01*
X148836500Y-75846313D01*
X148836500Y-75617686D01*
X148800734Y-75391875D01*
X148800734Y-75391874D01*
X148730082Y-75174431D01*
X148626292Y-74970731D01*
X148626288Y-74970725D01*
X148572651Y-74896900D01*
X148572651Y-74896899D01*
X147873494Y-75596056D01*
X147857381Y-75535919D01*
X147790502Y-75420080D01*
X147695920Y-75325498D01*
X147580081Y-75258619D01*
X147519940Y-75242504D01*
X148219099Y-74543347D01*
X148145276Y-74489711D01*
X147941568Y-74385917D01*
X147724124Y-74315265D01*
X147498313Y-74279500D01*
X147269687Y-74279500D01*
X147043875Y-74315265D01*
X147043874Y-74315265D01*
X146826431Y-74385917D01*
X146622719Y-74489713D01*
X146548900Y-74543346D01*
X146548899Y-74543347D01*
X147248057Y-75242504D01*
X147187919Y-75258619D01*
X147072080Y-75325498D01*
X146977498Y-75420080D01*
X146910619Y-75535919D01*
X146894504Y-75596057D01*
X146195347Y-74896899D01*
X146195346Y-74896900D01*
X146141713Y-74970719D01*
X146037917Y-75174431D01*
X145967265Y-75391874D01*
X145967265Y-75391875D01*
X145931500Y-75617686D01*
X145931500Y-75846313D01*
X145967265Y-76072124D01*
X145967265Y-76072125D01*
X146037917Y-76289568D01*
X146141711Y-76493276D01*
X146195347Y-76567098D01*
X146195347Y-76567099D01*
X146894504Y-75867941D01*
X146910619Y-75928081D01*
X146977498Y-76043920D01*
X147072080Y-76138502D01*
X147187919Y-76205381D01*
X147248057Y-76221494D01*
X146548899Y-76920651D01*
X146552539Y-76966898D01*
X146538174Y-77035275D01*
X146501807Y-77076943D01*
X146437440Y-77123709D01*
X146437431Y-77123716D01*
X146275716Y-77285431D01*
X146275716Y-77285432D01*
X146275714Y-77285434D01*
X146240362Y-77334092D01*
X146141283Y-77470461D01*
X146037450Y-77674244D01*
X145966778Y-77891750D01*
X145966778Y-77891753D01*
X145931000Y-78117646D01*
X145279709Y-78117646D01*
X145260595Y-77996971D01*
X145246286Y-77906625D01*
X145178701Y-77698617D01*
X145178701Y-77698616D01*
X145131616Y-77606208D01*
X145079407Y-77503743D01*
X145055227Y-77470462D01*
X144950857Y-77326806D01*
X144796199Y-77172148D01*
X144796191Y-77172142D01*
X144645028Y-77062316D01*
X144602364Y-77006989D01*
X144596385Y-76937376D01*
X144628990Y-76875580D01*
X144645023Y-76861686D01*
X144796199Y-76751852D01*
X144950852Y-76597199D01*
X144950854Y-76597195D01*
X144950857Y-76597193D01*
X145047468Y-76464217D01*
X145079407Y-76420257D01*
X145178701Y-76225383D01*
X145246286Y-76017375D01*
X145263912Y-75906082D01*
X145280500Y-75801361D01*
X145280500Y-75582638D01*
X145248158Y-75378446D01*
X145246286Y-75366625D01*
X145187040Y-75184282D01*
X145178702Y-75158619D01*
X145178701Y-75158616D01*
X145122404Y-75048129D01*
X145079407Y-74963743D01*
X145071147Y-74952374D01*
X144950857Y-74786806D01*
X144796199Y-74632148D01*
X144770595Y-74613546D01*
X144645028Y-74522316D01*
X144602364Y-74466989D01*
X144596385Y-74397376D01*
X144628990Y-74335580D01*
X144645023Y-74321686D01*
X144796199Y-74211852D01*
X144950852Y-74057199D01*
X144950854Y-74057195D01*
X144950857Y-74057193D01*
X145007229Y-73979601D01*
X145079407Y-73880257D01*
X145178701Y-73685383D01*
X145246286Y-73477375D01*
X145269954Y-73327941D01*
X145280500Y-73261361D01*
X145280500Y-73042638D01*
X145258224Y-72902000D01*
X145246286Y-72826625D01*
X145198197Y-72678619D01*
X145178702Y-72618619D01*
X145178701Y-72618616D01*
X145122404Y-72508129D01*
X145079407Y-72423743D01*
X144999436Y-72313671D01*
X144950857Y-72246806D01*
X144796199Y-72092148D01*
X144745757Y-72055500D01*
X144645028Y-71982316D01*
X144602364Y-71926989D01*
X144596385Y-71857376D01*
X144628990Y-71795580D01*
X144645023Y-71781686D01*
X144796199Y-71671852D01*
X144950852Y-71517199D01*
X144950854Y-71517195D01*
X144950857Y-71517193D01*
X145007229Y-71439601D01*
X145079407Y-71340257D01*
X145178701Y-71145383D01*
X145246286Y-70937375D01*
X145263912Y-70826082D01*
X145280500Y-70721361D01*
X145280500Y-70502638D01*
X145273371Y-70457628D01*
X145282326Y-70388334D01*
X145327322Y-70334883D01*
X145394073Y-70314243D01*
X145461387Y-70332968D01*
X145483520Y-70350545D01*
X147331428Y-72198452D01*
X149323181Y-74190205D01*
X149356666Y-74251528D01*
X149359500Y-74277886D01*
X149359500Y-83521292D01*
X149339815Y-83588331D01*
X149308388Y-83621608D01*
X149299357Y-83628169D01*
X149299351Y-83628174D01*
X149160174Y-83767351D01*
X149160174Y-83767352D01*
X149160172Y-83767354D01*
X149110485Y-83835741D01*
X149044476Y-83926594D01*
X148955117Y-84101970D01*
X148894290Y-84289173D01*
X148863500Y-84483577D01*
X148863500Y-84680422D01*
X148894290Y-84874826D01*
X148955117Y-85062029D01*
X149044476Y-85237405D01*
X149160172Y-85396646D01*
X149299354Y-85535828D01*
X149458595Y-85651524D01*
X149541455Y-85693743D01*
X149633970Y-85740882D01*
X149633972Y-85740882D01*
X149633975Y-85740884D01*
X149734317Y-85773487D01*
X149821173Y-85801709D01*
X150015578Y-85832500D01*
X150015583Y-85832500D01*
X150212422Y-85832500D01*
X150406826Y-85801709D01*
X150594025Y-85740884D01*
X150769405Y-85651524D01*
X150928646Y-85535828D01*
X151067828Y-85396646D01*
X151183524Y-85237405D01*
X151272884Y-85062025D01*
X151333709Y-84874826D01*
X151347605Y-84787089D01*
X151364500Y-84680422D01*
X151364500Y-84483577D01*
X151333709Y-84289173D01*
X151272882Y-84101970D01*
X151183523Y-83926594D01*
X151067828Y-83767354D01*
X150928646Y-83628172D01*
X150919612Y-83621608D01*
X150876948Y-83566277D01*
X150868500Y-83521292D01*
X150868500Y-73839687D01*
X150868499Y-73839683D01*
X150839506Y-73693927D01*
X150839505Y-73693920D01*
X150782629Y-73556610D01*
X150729686Y-73477375D01*
X150700060Y-73433035D01*
X150700054Y-73433028D01*
X150590647Y-73323621D01*
X150590624Y-73323600D01*
X147852478Y-70585453D01*
X147769663Y-70502638D01*
X157487500Y-70502638D01*
X157487500Y-70721361D01*
X157521714Y-70937376D01*
X157589297Y-71145380D01*
X157589298Y-71145383D01*
X157688595Y-71340260D01*
X157817142Y-71517193D01*
X157971802Y-71671853D01*
X157971807Y-71671857D01*
X158123394Y-71781991D01*
X158166060Y-71837320D01*
X158172039Y-71906934D01*
X158139434Y-71968729D01*
X158123394Y-71982627D01*
X157972133Y-72092524D01*
X157972128Y-72092528D01*
X157817528Y-72247128D01*
X157817524Y-72247133D01*
X157689023Y-72424001D01*
X157589762Y-72618808D01*
X157589761Y-72618811D01*
X157522201Y-72826741D01*
X157510282Y-72902000D01*
X158561749Y-72902000D01*
X158530619Y-72955919D01*
X158496000Y-73085120D01*
X158496000Y-73218880D01*
X158530619Y-73348081D01*
X158561749Y-73402000D01*
X157510282Y-73402000D01*
X157522201Y-73477258D01*
X157589761Y-73685188D01*
X157589762Y-73685191D01*
X157689023Y-73879998D01*
X157817524Y-74056866D01*
X157817528Y-74056871D01*
X157972128Y-74211471D01*
X157972133Y-74211475D01*
X158123394Y-74321372D01*
X158166060Y-74376701D01*
X158172039Y-74446315D01*
X158139434Y-74508110D01*
X158123394Y-74522008D01*
X157971807Y-74632142D01*
X157971802Y-74632146D01*
X157817142Y-74786806D01*
X157688595Y-74963739D01*
X157589298Y-75158616D01*
X157589297Y-75158619D01*
X157521714Y-75366623D01*
X157487500Y-75582638D01*
X157487500Y-75801361D01*
X157521714Y-76017376D01*
X157589297Y-76225380D01*
X157589298Y-76225383D01*
X157688595Y-76420260D01*
X157817142Y-76597193D01*
X157971806Y-76751857D01*
X158122969Y-76861682D01*
X158165635Y-76917011D01*
X158171614Y-76986625D01*
X158139009Y-77048420D01*
X158122969Y-77062318D01*
X157971806Y-77172142D01*
X157817142Y-77326806D01*
X157688595Y-77503739D01*
X157589298Y-77698616D01*
X157589297Y-77698619D01*
X157521714Y-77906623D01*
X157487500Y-78122638D01*
X157487500Y-78341361D01*
X157521714Y-78557376D01*
X157589297Y-78765380D01*
X157589298Y-78765383D01*
X157688595Y-78960260D01*
X157817142Y-79137193D01*
X157971806Y-79291857D01*
X158122969Y-79401682D01*
X158165635Y-79457011D01*
X158171614Y-79526625D01*
X158139009Y-79588420D01*
X158122969Y-79602318D01*
X157971806Y-79712142D01*
X157817142Y-79866806D01*
X157688595Y-80043739D01*
X157589298Y-80238616D01*
X157589297Y-80238619D01*
X157521714Y-80446623D01*
X157487500Y-80662638D01*
X157487500Y-80881361D01*
X157521714Y-81097376D01*
X157589297Y-81305380D01*
X157589298Y-81305383D01*
X157688595Y-81500260D01*
X157817142Y-81677193D01*
X157971806Y-81831857D01*
X158122969Y-81941682D01*
X158165635Y-81997011D01*
X158171614Y-82066625D01*
X158139009Y-82128420D01*
X158122969Y-82142318D01*
X157971806Y-82252142D01*
X157817142Y-82406806D01*
X157688595Y-82583739D01*
X157589298Y-82778616D01*
X157589297Y-82778619D01*
X157521714Y-82986623D01*
X157487500Y-83202638D01*
X157487500Y-83421361D01*
X157521714Y-83637376D01*
X157589297Y-83845380D01*
X157589298Y-83845383D01*
X157688595Y-84040260D01*
X157817142Y-84217193D01*
X157971806Y-84371857D01*
X158122969Y-84481682D01*
X158165635Y-84537011D01*
X158171614Y-84606625D01*
X158139009Y-84668420D01*
X158122969Y-84682318D01*
X157971806Y-84792142D01*
X157817142Y-84946806D01*
X157688595Y-85123739D01*
X157589298Y-85318616D01*
X157589297Y-85318619D01*
X157521714Y-85526623D01*
X157487500Y-85742638D01*
X157487500Y-85961361D01*
X157521714Y-86177376D01*
X157589297Y-86385380D01*
X157589298Y-86385383D01*
X157688595Y-86580260D01*
X157817142Y-86757193D01*
X157971806Y-86911857D01*
X158137374Y-87032147D01*
X158148743Y-87040407D01*
X158276132Y-87105315D01*
X158343616Y-87139701D01*
X158343619Y-87139702D01*
X158447621Y-87173493D01*
X158551625Y-87207286D01*
X158651672Y-87223132D01*
X158767639Y-87241500D01*
X158767644Y-87241500D01*
X160764361Y-87241500D01*
X160869082Y-87224912D01*
X160980375Y-87207286D01*
X161188383Y-87139701D01*
X161383257Y-87040407D01*
X161482601Y-86968229D01*
X161560193Y-86911857D01*
X161560195Y-86911854D01*
X161560199Y-86911852D01*
X161714852Y-86757199D01*
X161714854Y-86757195D01*
X161714857Y-86757193D01*
X161792818Y-86649887D01*
X161843407Y-86580257D01*
X161942701Y-86385383D01*
X162010286Y-86177375D01*
X162039763Y-85991266D01*
X162042932Y-85971258D01*
X218721500Y-85971258D01*
X218721500Y-86200741D01*
X218745810Y-86385380D01*
X218751452Y-86428238D01*
X218787153Y-86561478D01*
X218810842Y-86649887D01*
X218898650Y-86861876D01*
X218898657Y-86861890D01*
X219013392Y-87060617D01*
X219153081Y-87242661D01*
X219153089Y-87242670D01*
X219315330Y-87404911D01*
X219315338Y-87404918D01*
X219497382Y-87544607D01*
X219497385Y-87544608D01*
X219497388Y-87544611D01*
X219696112Y-87659344D01*
X219696117Y-87659346D01*
X219696123Y-87659349D01*
X219744391Y-87679342D01*
X219908113Y-87747158D01*
X220129762Y-87806548D01*
X220357266Y-87836500D01*
X220357273Y-87836500D01*
X220586727Y-87836500D01*
X220586734Y-87836500D01*
X220814238Y-87806548D01*
X221035887Y-87747158D01*
X221247888Y-87659344D01*
X221446612Y-87544611D01*
X221628661Y-87404919D01*
X221628665Y-87404914D01*
X221628670Y-87404911D01*
X221790911Y-87242670D01*
X221790914Y-87242665D01*
X221790919Y-87242661D01*
X221930611Y-87060612D01*
X222045344Y-86861888D01*
X222133158Y-86649887D01*
X222192548Y-86428238D01*
X222222500Y-86200734D01*
X222222500Y-85971266D01*
X222192548Y-85743762D01*
X222133158Y-85522113D01*
X222066054Y-85360109D01*
X222045349Y-85310123D01*
X222045346Y-85310117D01*
X222045344Y-85310112D01*
X221930611Y-85111388D01*
X221930608Y-85111385D01*
X221930607Y-85111382D01*
X221829764Y-84979962D01*
X221790919Y-84929339D01*
X221790918Y-84929338D01*
X221790911Y-84929330D01*
X221628670Y-84767089D01*
X221628661Y-84767081D01*
X221446617Y-84627392D01*
X221410647Y-84606625D01*
X221247888Y-84512656D01*
X221247876Y-84512650D01*
X221035887Y-84424842D01*
X220814238Y-84365452D01*
X220776215Y-84360446D01*
X220586741Y-84335500D01*
X220586734Y-84335500D01*
X220357266Y-84335500D01*
X220357258Y-84335500D01*
X220140715Y-84364009D01*
X220129762Y-84365452D01*
X220036076Y-84390554D01*
X219908112Y-84424842D01*
X219696123Y-84512650D01*
X219696109Y-84512657D01*
X219497382Y-84627392D01*
X219315338Y-84767081D01*
X219153081Y-84929338D01*
X219013392Y-85111382D01*
X218898657Y-85310109D01*
X218898650Y-85310123D01*
X218810842Y-85522112D01*
X218751453Y-85743759D01*
X218751451Y-85743770D01*
X218721500Y-85971258D01*
X162042932Y-85971258D01*
X162044500Y-85961361D01*
X162044500Y-85742638D01*
X162023574Y-85610522D01*
X162010286Y-85526625D01*
X161976493Y-85422621D01*
X161942702Y-85318619D01*
X161942701Y-85318616D01*
X161901321Y-85237405D01*
X161843407Y-85123743D01*
X161834426Y-85111382D01*
X161714857Y-84946806D01*
X161560199Y-84792148D01*
X161525697Y-84767081D01*
X161409028Y-84682316D01*
X161366364Y-84626989D01*
X161360385Y-84557376D01*
X161392990Y-84495580D01*
X161409023Y-84481686D01*
X161560199Y-84371852D01*
X161714852Y-84217199D01*
X161714854Y-84217195D01*
X161714857Y-84217193D01*
X161771229Y-84139601D01*
X161843407Y-84040257D01*
X161942701Y-83845383D01*
X162010286Y-83637375D01*
X162028672Y-83521292D01*
X162044500Y-83421361D01*
X162044500Y-83202638D01*
X162024595Y-83076971D01*
X162010286Y-82986625D01*
X161942701Y-82778617D01*
X161942701Y-82778616D01*
X161908315Y-82711132D01*
X161843407Y-82583743D01*
X161835147Y-82572374D01*
X161714857Y-82406806D01*
X161560199Y-82252148D01*
X161560191Y-82252142D01*
X161409028Y-82142316D01*
X161366364Y-82086989D01*
X161360385Y-82017376D01*
X161392990Y-81955580D01*
X161409023Y-81941686D01*
X161560199Y-81831852D01*
X161714852Y-81677199D01*
X161714854Y-81677195D01*
X161714857Y-81677193D01*
X161811325Y-81544414D01*
X161843407Y-81500257D01*
X161942701Y-81305383D01*
X162010286Y-81097375D01*
X162038425Y-80919713D01*
X162044500Y-80881361D01*
X162044500Y-80662638D01*
X162024595Y-80536971D01*
X162010286Y-80446625D01*
X161942701Y-80238617D01*
X161942701Y-80238616D01*
X161895616Y-80146208D01*
X161843407Y-80043743D01*
X161835147Y-80032374D01*
X161714857Y-79866806D01*
X161560199Y-79712148D01*
X161560191Y-79712142D01*
X161409028Y-79602316D01*
X161366364Y-79546989D01*
X161360385Y-79477376D01*
X161392990Y-79415580D01*
X161409023Y-79401686D01*
X161560199Y-79291852D01*
X161714852Y-79137199D01*
X161714854Y-79137195D01*
X161714857Y-79137193D01*
X161811325Y-79004414D01*
X161843407Y-78960257D01*
X161942701Y-78765383D01*
X162010286Y-78557375D01*
X162038425Y-78379713D01*
X162044500Y-78341361D01*
X162044500Y-78122638D01*
X162024595Y-77996971D01*
X162010286Y-77906625D01*
X161942701Y-77698617D01*
X161942701Y-77698616D01*
X161843406Y-77503742D01*
X161831623Y-77487524D01*
X161714852Y-77326801D01*
X161560199Y-77172148D01*
X161408239Y-77061743D01*
X161407466Y-77061163D01*
X161387148Y-77033942D01*
X161366364Y-77006989D01*
X161366277Y-77005980D01*
X161365673Y-77005171D01*
X161363295Y-76971262D01*
X161360385Y-76937376D01*
X161360856Y-76936481D01*
X161360786Y-76935472D01*
X161377122Y-76905653D01*
X161392990Y-76875580D01*
X161394148Y-76874575D01*
X161394357Y-76874196D01*
X161394975Y-76873859D01*
X161409023Y-76861686D01*
X161560199Y-76751852D01*
X161714852Y-76597199D01*
X161714854Y-76597195D01*
X161714857Y-76597193D01*
X161811468Y-76464217D01*
X161843407Y-76420257D01*
X161942701Y-76225383D01*
X161961290Y-76168172D01*
X161961296Y-76168155D01*
X165938000Y-76168155D01*
X165938000Y-76966000D01*
X166993440Y-76966000D01*
X166962755Y-77019147D01*
X166928000Y-77148857D01*
X166928000Y-77283143D01*
X166962755Y-77412853D01*
X166993440Y-77466000D01*
X165938000Y-77466000D01*
X165938000Y-78263844D01*
X165944401Y-78323372D01*
X165944403Y-78323379D01*
X165994645Y-78458086D01*
X165994649Y-78458093D01*
X166080809Y-78573187D01*
X166080812Y-78573190D01*
X166195906Y-78659350D01*
X166195913Y-78659354D01*
X166330620Y-78709596D01*
X166330627Y-78709598D01*
X166390155Y-78715999D01*
X166390172Y-78716000D01*
X167188000Y-78716000D01*
X167188000Y-77660560D01*
X167241147Y-77691245D01*
X167370857Y-77726000D01*
X167505143Y-77726000D01*
X167634853Y-77691245D01*
X167688000Y-77660560D01*
X167688000Y-78716000D01*
X168485828Y-78716000D01*
X168485844Y-78715999D01*
X168545372Y-78709598D01*
X168545379Y-78709596D01*
X168680086Y-78659354D01*
X168680093Y-78659350D01*
X168795187Y-78573190D01*
X168795190Y-78573187D01*
X168881350Y-78458093D01*
X168881354Y-78458086D01*
X168931596Y-78323379D01*
X168931598Y-78323372D01*
X168937999Y-78263844D01*
X168938000Y-78263827D01*
X168938000Y-77466000D01*
X167882560Y-77466000D01*
X167913245Y-77412853D01*
X167948000Y-77283143D01*
X167948000Y-77148857D01*
X167934347Y-77097902D01*
X210637500Y-77097902D01*
X210637500Y-77334097D01*
X210674446Y-77567368D01*
X210747433Y-77791996D01*
X210854657Y-78002433D01*
X210993483Y-78193510D01*
X211160490Y-78360517D01*
X211351567Y-78499343D01*
X211450991Y-78550002D01*
X211562003Y-78606566D01*
X211562005Y-78606566D01*
X211562008Y-78606568D01*
X211682412Y-78645689D01*
X211786631Y-78679553D01*
X212019903Y-78716500D01*
X212019908Y-78716500D01*
X212256097Y-78716500D01*
X212489368Y-78679553D01*
X212713992Y-78606568D01*
X212924433Y-78499343D01*
X213115510Y-78360517D01*
X213282517Y-78193510D01*
X213421343Y-78002433D01*
X213528568Y-77791992D01*
X213601553Y-77567368D01*
X213611630Y-77503743D01*
X213638500Y-77334097D01*
X213638500Y-77097902D01*
X213601553Y-76864631D01*
X213528566Y-76640003D01*
X213421342Y-76429566D01*
X213408525Y-76411925D01*
X213282517Y-76238490D01*
X213115510Y-76071483D01*
X212924433Y-75932657D01*
X212915452Y-75928081D01*
X212713996Y-75825433D01*
X212489368Y-75752446D01*
X212256097Y-75715500D01*
X212256092Y-75715500D01*
X212019908Y-75715500D01*
X212019903Y-75715500D01*
X211786631Y-75752446D01*
X211562003Y-75825433D01*
X211351566Y-75932657D01*
X211294783Y-75973913D01*
X211160490Y-76071483D01*
X211160488Y-76071485D01*
X211160487Y-76071485D01*
X210993485Y-76238487D01*
X210993485Y-76238488D01*
X210993483Y-76238490D01*
X210956373Y-76289568D01*
X210854657Y-76429566D01*
X210747433Y-76640003D01*
X210674446Y-76864631D01*
X210637500Y-77097902D01*
X167934347Y-77097902D01*
X167913245Y-77019147D01*
X167882560Y-76966000D01*
X168938000Y-76966000D01*
X168938000Y-76168172D01*
X168937999Y-76168155D01*
X168931598Y-76108627D01*
X168931596Y-76108620D01*
X168881354Y-75973913D01*
X168881350Y-75973906D01*
X168795190Y-75858812D01*
X168795187Y-75858809D01*
X168680093Y-75772649D01*
X168680086Y-75772645D01*
X168545379Y-75722403D01*
X168545372Y-75722401D01*
X168485844Y-75716000D01*
X167688000Y-75716000D01*
X167688000Y-76771439D01*
X167634853Y-76740755D01*
X167505143Y-76706000D01*
X167370857Y-76706000D01*
X167241147Y-76740755D01*
X167188000Y-76771439D01*
X167188000Y-75716000D01*
X166390155Y-75716000D01*
X166330627Y-75722401D01*
X166330620Y-75722403D01*
X166195913Y-75772645D01*
X166195906Y-75772649D01*
X166080812Y-75858809D01*
X166080809Y-75858812D01*
X165994649Y-75973906D01*
X165994645Y-75973913D01*
X165944403Y-76108620D01*
X165944401Y-76108627D01*
X165938000Y-76168155D01*
X161961296Y-76168155D01*
X161974819Y-76126534D01*
X161974819Y-76126533D01*
X161992705Y-76071483D01*
X162010286Y-76017375D01*
X162027912Y-75906082D01*
X162044500Y-75801361D01*
X162044500Y-75582638D01*
X162012158Y-75378446D01*
X162010286Y-75366625D01*
X161951040Y-75184282D01*
X161942702Y-75158619D01*
X161942701Y-75158616D01*
X161913395Y-75101101D01*
X161886407Y-75048135D01*
X219121500Y-75048135D01*
X219121500Y-76843870D01*
X219121501Y-76843876D01*
X219127908Y-76903483D01*
X219178202Y-77038328D01*
X219178206Y-77038335D01*
X219264452Y-77153544D01*
X219264455Y-77153547D01*
X219379664Y-77239793D01*
X219379671Y-77239797D01*
X219511082Y-77288810D01*
X219567016Y-77330681D01*
X219591433Y-77396145D01*
X219576582Y-77464418D01*
X219555431Y-77492673D01*
X219441889Y-77606215D01*
X219316951Y-77778179D01*
X219220444Y-77967585D01*
X219154753Y-78169760D01*
X219121500Y-78379713D01*
X219121500Y-78592286D01*
X219154753Y-78802239D01*
X219220444Y-79004414D01*
X219316951Y-79193820D01*
X219441890Y-79365786D01*
X219592213Y-79516109D01*
X219764179Y-79641048D01*
X219764181Y-79641049D01*
X219764184Y-79641051D01*
X219953588Y-79737557D01*
X220155757Y-79803246D01*
X220365713Y-79836500D01*
X220365714Y-79836500D01*
X220578286Y-79836500D01*
X220578287Y-79836500D01*
X220788243Y-79803246D01*
X220990412Y-79737557D01*
X221179816Y-79641051D01*
X221201789Y-79625086D01*
X221351786Y-79516109D01*
X221351788Y-79516106D01*
X221351792Y-79516104D01*
X221502104Y-79365792D01*
X221502106Y-79365788D01*
X221502109Y-79365786D01*
X221627048Y-79193820D01*
X221627047Y-79193820D01*
X221627051Y-79193816D01*
X221723557Y-79004412D01*
X221789246Y-78802243D01*
X221822500Y-78592287D01*
X221822500Y-78379713D01*
X221789246Y-78169757D01*
X221723557Y-77967588D01*
X221627051Y-77778184D01*
X221627049Y-77778181D01*
X221627048Y-77778179D01*
X221502109Y-77606213D01*
X221388569Y-77492673D01*
X221355084Y-77431350D01*
X221360068Y-77361658D01*
X221401940Y-77305725D01*
X221432915Y-77288810D01*
X221564331Y-77239796D01*
X221679546Y-77153546D01*
X221765796Y-77038331D01*
X221816091Y-76903483D01*
X221822500Y-76843873D01*
X221822499Y-75048128D01*
X221816091Y-74988517D01*
X221809457Y-74970731D01*
X221765797Y-74853671D01*
X221765793Y-74853664D01*
X221679547Y-74738455D01*
X221679544Y-74738452D01*
X221564335Y-74652206D01*
X221564328Y-74652202D01*
X221429482Y-74601908D01*
X221429483Y-74601908D01*
X221369883Y-74595501D01*
X221369881Y-74595500D01*
X221369873Y-74595500D01*
X221369864Y-74595500D01*
X219574129Y-74595500D01*
X219574123Y-74595501D01*
X219514516Y-74601908D01*
X219379671Y-74652202D01*
X219379664Y-74652206D01*
X219264455Y-74738452D01*
X219264452Y-74738455D01*
X219178206Y-74853664D01*
X219178202Y-74853671D01*
X219127908Y-74988517D01*
X219121501Y-75048116D01*
X219121501Y-75048123D01*
X219121500Y-75048135D01*
X161886407Y-75048135D01*
X161886404Y-75048129D01*
X161843407Y-74963743D01*
X161835147Y-74952374D01*
X161714857Y-74786806D01*
X161560197Y-74632146D01*
X161560192Y-74632142D01*
X161408605Y-74522008D01*
X161365939Y-74466678D01*
X161359960Y-74397065D01*
X161392565Y-74335270D01*
X161408605Y-74321371D01*
X161559873Y-74211469D01*
X161714471Y-74056871D01*
X161714475Y-74056866D01*
X161842976Y-73879998D01*
X161942237Y-73685191D01*
X161942238Y-73685188D01*
X162009798Y-73477258D01*
X162021718Y-73402000D01*
X159446251Y-73402000D01*
X159477381Y-73348081D01*
X159512000Y-73218880D01*
X159512000Y-73085120D01*
X159477381Y-72955919D01*
X159446251Y-72902000D01*
X162021718Y-72902000D01*
X162009798Y-72826741D01*
X161942238Y-72618811D01*
X161942237Y-72618808D01*
X161842976Y-72424001D01*
X161714475Y-72247133D01*
X161714471Y-72247128D01*
X161559871Y-72092528D01*
X161559866Y-72092524D01*
X161408605Y-71982627D01*
X161365939Y-71927297D01*
X161359960Y-71857684D01*
X161392565Y-71795889D01*
X161408599Y-71781994D01*
X161560199Y-71671852D01*
X161714852Y-71517199D01*
X161714854Y-71517195D01*
X161714857Y-71517193D01*
X161771229Y-71439601D01*
X161843407Y-71340257D01*
X161942701Y-71145383D01*
X162010286Y-70937375D01*
X162027912Y-70826082D01*
X162044500Y-70721361D01*
X162044500Y-70502638D01*
X162024595Y-70376971D01*
X162010286Y-70286625D01*
X161942701Y-70078617D01*
X161942701Y-70078616D01*
X161885909Y-69967157D01*
X161843407Y-69883743D01*
X161835147Y-69872374D01*
X161714857Y-69706806D01*
X161560193Y-69552142D01*
X161383260Y-69423595D01*
X161383259Y-69423594D01*
X161383257Y-69423593D01*
X161320825Y-69391782D01*
X161188383Y-69324298D01*
X161188380Y-69324297D01*
X160980376Y-69256714D01*
X160764361Y-69222500D01*
X160764356Y-69222500D01*
X158767644Y-69222500D01*
X158767639Y-69222500D01*
X158551623Y-69256714D01*
X158343619Y-69324297D01*
X158343616Y-69324298D01*
X158148739Y-69423595D01*
X157971806Y-69552142D01*
X157817142Y-69706806D01*
X157688595Y-69883739D01*
X157589298Y-70078616D01*
X157589297Y-70078619D01*
X157521714Y-70286623D01*
X157487500Y-70502638D01*
X147769663Y-70502638D01*
X145541914Y-68274888D01*
X145458284Y-68191258D01*
X218721500Y-68191258D01*
X218721500Y-68420741D01*
X218746446Y-68610215D01*
X218751452Y-68648238D01*
X218787153Y-68781478D01*
X218810842Y-68869887D01*
X218898650Y-69081876D01*
X218898657Y-69081890D01*
X219013392Y-69280617D01*
X219153081Y-69462661D01*
X219153089Y-69462670D01*
X219315330Y-69624911D01*
X219315338Y-69624918D01*
X219497382Y-69764607D01*
X219497385Y-69764608D01*
X219497388Y-69764611D01*
X219696112Y-69879344D01*
X219696117Y-69879346D01*
X219696123Y-69879349D01*
X219744391Y-69899342D01*
X219908113Y-69967158D01*
X220129762Y-70026548D01*
X220357266Y-70056500D01*
X220357273Y-70056500D01*
X220586727Y-70056500D01*
X220586734Y-70056500D01*
X220814238Y-70026548D01*
X221035887Y-69967158D01*
X221247888Y-69879344D01*
X221446612Y-69764611D01*
X221628661Y-69624919D01*
X221628665Y-69624914D01*
X221628670Y-69624911D01*
X221790911Y-69462670D01*
X221790914Y-69462665D01*
X221790919Y-69462661D01*
X221930611Y-69280612D01*
X222045344Y-69081888D01*
X222133158Y-68869887D01*
X222192548Y-68648238D01*
X222222500Y-68420734D01*
X222222500Y-68191266D01*
X222192548Y-67963762D01*
X222133158Y-67742113D01*
X222062487Y-67571499D01*
X222045349Y-67530123D01*
X222045346Y-67530117D01*
X222045344Y-67530112D01*
X221930611Y-67331388D01*
X221930608Y-67331385D01*
X221930607Y-67331382D01*
X221829764Y-67199962D01*
X221790919Y-67149339D01*
X221790918Y-67149338D01*
X221790911Y-67149330D01*
X221628670Y-66987089D01*
X221628661Y-66987081D01*
X221446617Y-66847392D01*
X221247890Y-66732657D01*
X221247876Y-66732650D01*
X221035887Y-66644842D01*
X220814238Y-66585452D01*
X220776215Y-66580446D01*
X220586741Y-66555500D01*
X220586734Y-66555500D01*
X220357266Y-66555500D01*
X220357258Y-66555500D01*
X220140715Y-66584009D01*
X220129762Y-66585452D01*
X220036076Y-66610554D01*
X219908112Y-66644842D01*
X219696123Y-66732650D01*
X219696109Y-66732657D01*
X219497382Y-66847392D01*
X219315338Y-66987081D01*
X219153081Y-67149338D01*
X219013392Y-67331382D01*
X218898657Y-67530109D01*
X218898650Y-67530123D01*
X218810842Y-67742112D01*
X218751453Y-67963759D01*
X218751451Y-67963770D01*
X218721500Y-68191258D01*
X145458284Y-68191258D01*
X145006968Y-67739942D01*
X144965773Y-67712417D01*
X144883389Y-67657370D01*
X144883386Y-67657368D01*
X144883385Y-67657368D01*
X144802955Y-67624053D01*
X144746080Y-67600495D01*
X144721894Y-67595684D01*
X144600314Y-67571499D01*
X144600312Y-67571499D01*
X144451688Y-67571499D01*
X144445574Y-67571499D01*
X144445554Y-67571500D01*
X129076708Y-67571500D01*
X129009669Y-67551815D01*
X128976392Y-67520388D01*
X128969830Y-67511357D01*
X128969825Y-67511351D01*
X128830648Y-67372174D01*
X128830646Y-67372172D01*
X128671405Y-67256476D01*
X128496029Y-67167117D01*
X128308826Y-67106290D01*
X128114422Y-67075500D01*
X128114417Y-67075500D01*
X127917583Y-67075500D01*
X127917578Y-67075500D01*
X127723173Y-67106290D01*
X127535970Y-67167117D01*
X127360594Y-67256476D01*
X127269741Y-67322485D01*
X127201354Y-67372172D01*
X127201352Y-67372174D01*
X127201350Y-67372175D01*
X127166800Y-67406725D01*
X127105477Y-67440210D01*
X127035785Y-67435224D01*
X126979852Y-67393352D01*
X126971733Y-67381044D01*
X126954609Y-67351384D01*
X126814918Y-67169338D01*
X126814911Y-67169330D01*
X126652670Y-67007089D01*
X126652661Y-67007081D01*
X126470617Y-66867392D01*
X126271890Y-66752657D01*
X126271876Y-66752650D01*
X126059887Y-66664842D01*
X125985245Y-66644842D01*
X125838238Y-66605452D01*
X125800215Y-66600446D01*
X125610741Y-66575500D01*
X125610734Y-66575500D01*
X125381266Y-66575500D01*
X125381258Y-66575500D01*
X125164715Y-66604009D01*
X125153762Y-66605452D01*
X125104189Y-66618735D01*
X124932112Y-66664842D01*
X124720123Y-66752650D01*
X124720109Y-66752657D01*
X124521382Y-66867392D01*
X124339338Y-67007081D01*
X124177081Y-67169338D01*
X124037392Y-67351382D01*
X123922657Y-67550109D01*
X123922650Y-67550123D01*
X123834842Y-67762112D01*
X123775453Y-67983759D01*
X123775451Y-67983770D01*
X123745500Y-68211258D01*
X123474500Y-68211258D01*
X123474500Y-66722961D01*
X123475280Y-66709077D01*
X123480264Y-66664842D01*
X123485459Y-66618731D01*
X123491635Y-66591670D01*
X123519353Y-66512456D01*
X123531396Y-66487450D01*
X123576046Y-66416389D01*
X123593351Y-66394690D01*
X123652690Y-66335351D01*
X123674389Y-66318046D01*
X123745450Y-66273396D01*
X123770456Y-66261353D01*
X123849670Y-66233635D01*
X123876733Y-66227459D01*
X123939419Y-66220396D01*
X123967079Y-66217280D01*
X123980962Y-66216500D01*
X124039892Y-66216500D01*
X221908108Y-66216500D01*
X221967038Y-66216500D01*
X221980922Y-66217280D01*
G37*
%TD.AperFunction*%
%TD*%
M02*
