M48
; DRILL file {KiCad 9.0.6} date 2026-02-28T11:03:29-0800
; FORMAT={-:-/ absolute / metric / decimal}
; #@! TF.CreationDate,2026-02-28T11:03:29-08:00
; #@! TF.GenerationSoftware,Kicad,Pcbnew,9.0.6
; #@! TF.FileFunction,Plated,1,2,PTH
FMAT,2
METRIC
; #@! TA.AperFunction,Plated,PTH,ViaDrill
T1C0.700
; #@! TA.AperFunction,Plated,PTH,ViaDrill
T2C1.000
; #@! TA.AperFunction,Plated,PTH,ComponentDrill
T3C1.000
; #@! TA.AperFunction,Plated,PTH,ComponentDrill
T4C1.016
; #@! TA.AperFunction,Plated,PTH,ComponentDrill
T5C1.020
%
G90
G05
T1
X128.016Y-68.326
X150.114Y-84.582
T2
X147.384Y-75.692
X147.384Y-78.232
T3
X125.755Y-73.406
X125.755Y-75.946
X125.755Y-78.486
X125.755Y-81.026
X220.472Y-75.946
X220.472Y-78.486
T4
X143.764Y-70.612
X143.764Y-73.152
X143.764Y-75.692
X143.764Y-78.232
X143.764Y-80.772
X143.764Y-83.312
X143.764Y-85.852
X147.384Y-75.732
X147.384Y-78.232
X159.004Y-70.612
X159.004Y-73.152
X159.004Y-75.692
X159.004Y-78.232
X159.004Y-80.772
X159.004Y-83.312
X159.004Y-85.852
T5
X167.438Y-77.216
X212.138Y-77.216
M30
