%TF.GenerationSoftware,KiCad,Pcbnew,9.0.6*%
%TF.CreationDate,2026-02-28T11:03:27-08:00*%
%TF.ProjectId,sensor main board,73656e73-6f72-4206-9d61-696e20626f61,rev?*%
%TF.SameCoordinates,Original*%
%TF.FileFunction,Copper,L1,Top*%
%TF.FilePolarity,Positive*%
%FSLAX46Y46*%
G04 Gerber Fmt 4.6, Leading zero omitted, Abs format (unit mm)*
G04 Created by KiCad (PCBNEW 9.0.6) date 2026-02-28 11:03:27*
%MOMM*%
%LPD*%
G01*
G04 APERTURE LIST*
%TA.AperFunction,ComponentPad*%
%ADD10R,1.700000X1.700000*%
%TD*%
%TA.AperFunction,ComponentPad*%
%ADD11C,1.700000*%
%TD*%
%TA.AperFunction,ComponentPad*%
%ADD12O,3.556000X1.778000*%
%TD*%
%TA.AperFunction,ComponentPad*%
%ADD13C,1.905000*%
%TD*%
%TA.AperFunction,SMDPad,CuDef*%
%ADD14R,1.200000X2.500000*%
%TD*%
%TA.AperFunction,ComponentPad*%
%ADD15R,2.000000X2.000000*%
%TD*%
%TA.AperFunction,ComponentPad*%
%ADD16C,2.000000*%
%TD*%
%TA.AperFunction,ViaPad*%
%ADD17C,1.500000*%
%TD*%
%TA.AperFunction,Conductor*%
%ADD18C,0.508000*%
%TD*%
%TA.AperFunction,Conductor*%
%ADD19C,0.200000*%
%TD*%
G04 APERTURE END LIST*
D10*
%TO.P,J3,1,Pin_1*%
%TO.N,+3.3V*%
X125755000Y-73406000D03*
D11*
%TO.P,J3,2,Pin_2*%
%TO.N,GND*%
X125755000Y-75946000D03*
%TO.P,J3,3,Pin_3*%
%TO.N,/SDA*%
X125755000Y-78486000D03*
%TO.P,J3,4,Pin_4*%
%TO.N,/SCL*%
X125755000Y-81026000D03*
%TD*%
D12*
%TO.P,U3,1,GPIO1_A0_D0*%
%TO.N,Net-(U3-GPIO1_A0_D0)*%
X143002000Y-70612000D03*
%TO.P,U3,2,GPIO2_A1_D1*%
%TO.N,unconnected-(U3-GPIO2_A1_D1-Pad2)*%
X143002000Y-73152000D03*
%TO.P,U3,3,GPIO3_A2_D2*%
%TO.N,unconnected-(U3-GPIO3_A2_D2-Pad3)*%
X143002000Y-75692000D03*
%TO.P,U3,4,GPIO4_A3_D3*%
%TO.N,unconnected-(U3-GPIO4_A3_D3-Pad4)*%
X143002000Y-78232000D03*
%TO.P,U3,5,GPIO4_A3_D3_SDA*%
%TO.N,/SDA*%
X143002000Y-80772000D03*
%TO.P,U3,6,GPIO6_A5_D5_SCL*%
%TO.N,/SCL*%
X143002000Y-83312000D03*
%TO.P,U3,7,GPIO43_TX_D6*%
%TO.N,unconnected-(U3-GPIO43_TX_D6-Pad7)*%
X143002000Y-85852000D03*
%TO.P,U3,8,GPIO44_D7_RX*%
%TO.N,unconnected-(U3-GPIO44_D7_RX-Pad8)*%
X159766000Y-85852000D03*
%TO.P,U3,9,GPIO7_A8_D8_SCK*%
%TO.N,unconnected-(U3-GPIO7_A8_D8_SCK-Pad9)*%
X159766000Y-83312000D03*
%TO.P,U3,10,GPIO8_A9_D9_CIPO*%
%TO.N,unconnected-(U3-GPIO8_A9_D9_CIPO-Pad10)*%
X159766000Y-80772000D03*
%TO.P,U3,11,GPIO9_A10_D10_COPI*%
%TO.N,unconnected-(U3-GPIO9_A10_D10_COPI-Pad11)*%
X159766000Y-78232000D03*
%TO.P,U3,12,3V3*%
%TO.N,+3.3V*%
X159766000Y-75692000D03*
%TO.P,U3,13,GND*%
%TO.N,GND*%
X159766000Y-73152000D03*
%TO.P,U3,14,5V*%
%TO.N,unconnected-(U3-5V-Pad14)*%
X159766000Y-70612000D03*
D13*
%TO.P,U3,15,+BATT*%
%TO.N,Net-(SW1-B)*%
X147384000Y-78232000D03*
%TO.P,U3,16,-BATT*%
%TO.N,GND*%
X147384000Y-75732000D03*
%TD*%
D14*
%TO.P,SW2,1,1*%
%TO.N,Net-(U3-GPIO1_A0_D0)*%
X138176000Y-83466000D03*
%TO.P,SW2,2,2*%
%TO.N,GND*%
X138176000Y-70966000D03*
%TO.P,SW2,3*%
%TO.N,N/C*%
X130556000Y-83466000D03*
%TO.P,SW2,4*%
X130556000Y-70966000D03*
%TD*%
D15*
%TO.P,BT1,1,+*%
%TO.N,GND*%
X167438000Y-77216000D03*
D16*
%TO.P,BT1,2,-*%
%TO.N,/+BATT*%
X212138000Y-77216000D03*
%TD*%
D10*
%TO.P,SW1,1,A*%
%TO.N,/+BATT*%
X220472000Y-75946000D03*
D11*
%TO.P,SW1,2,B*%
%TO.N,Net-(SW1-B)*%
X220472000Y-78486000D03*
%TD*%
D17*
%TO.N,GND*%
X147384000Y-75692000D03*
%TO.N,+3.3V*%
X150114000Y-84582000D03*
X128016000Y-68326000D03*
%TO.N,Net-(SW1-B)*%
X147384000Y-78232000D03*
%TD*%
D18*
%TO.N,Net-(U3-GPIO1_A0_D0)*%
X144780000Y-87884000D02*
X138176000Y-87884000D01*
X145796000Y-72644000D02*
X145796000Y-86868000D01*
X138176000Y-87884000D02*
X138176000Y-83466000D01*
X143764000Y-70612000D02*
X145796000Y-72644000D01*
X145796000Y-86868000D02*
X144780000Y-87884000D01*
%TO.N,GND*%
X147384000Y-71184000D02*
X147384000Y-75692000D01*
X140562000Y-68580000D02*
X144780000Y-68580000D01*
X144780000Y-68580000D02*
X147384000Y-71184000D01*
X138176000Y-70966000D02*
X140562000Y-68580000D01*
X165608000Y-77216000D02*
X161544000Y-73152000D01*
X167438000Y-77216000D02*
X165608000Y-77216000D01*
%TO.N,/+BATT*%
X216408000Y-77216000D02*
X217678000Y-75946000D01*
X217678000Y-75946000D02*
X220472000Y-75946000D01*
X212138000Y-77216000D02*
X216408000Y-77216000D01*
%TO.N,GND*%
X156424000Y-75732000D02*
X159004000Y-73152000D01*
X133450000Y-75946000D02*
X138430000Y-70966000D01*
X125755000Y-75946000D02*
X133450000Y-75946000D01*
X147384000Y-75732000D02*
X156424000Y-75732000D01*
D19*
X159004000Y-73152000D02*
X161544000Y-73152000D01*
X147384000Y-75692000D02*
X147384000Y-75732000D01*
D18*
%TO.N,+3.3V*%
X128016000Y-72136000D02*
X128016000Y-69850000D01*
X128016000Y-69850000D02*
X128016000Y-68326000D01*
D19*
X159004000Y-75946000D02*
X159004000Y-75692000D01*
D18*
X126746000Y-73406000D02*
X128016000Y-72136000D01*
X150368000Y-84582000D02*
X159004000Y-75946000D01*
D19*
X150114000Y-84582000D02*
X150368000Y-84582000D01*
X125755000Y-73406000D02*
X126746000Y-73406000D01*
D18*
%TO.N,/SCL*%
X139192000Y-81026000D02*
X141478000Y-83312000D01*
X125755000Y-81026000D02*
X139192000Y-81026000D01*
D19*
X141478000Y-83312000D02*
X143764000Y-83312000D01*
D18*
%TO.N,/SDA*%
X139192000Y-78486000D02*
X141478000Y-80772000D01*
D19*
X125755000Y-78486000D02*
X125755000Y-78511000D01*
D18*
X125755000Y-78486000D02*
X139192000Y-78486000D01*
D19*
X141478000Y-80772000D02*
X143764000Y-80772000D01*
D18*
%TO.N,Net-(SW1-B)*%
X217678000Y-78486000D02*
X208788000Y-87376000D01*
D19*
X147320000Y-78296000D02*
X147384000Y-78232000D01*
D18*
X220472000Y-78486000D02*
X217678000Y-78486000D01*
X208788000Y-87376000D02*
X148844000Y-87376000D01*
X147320000Y-85852000D02*
X147320000Y-78296000D01*
X148844000Y-87376000D02*
X147320000Y-85852000D01*
%TD*%
M02*
